<svg width="35" height="35" viewBox="0 0 35 35" fill="none" xmlns="http://www.w3.org/2000/svg">
<path d="M5.83333 30.625C5.54494 30.6249 5.26305 30.5394 5.02328 30.3791C4.78352 30.2189 4.59665 29.9912 4.4863 29.7247C4.37595 29.4583 4.34707 29.1651 4.40331 28.8823C4.45955 28.5994 4.5984 28.3396 4.80229 28.1356L15.0106 17.9273C15.2842 17.6545 15.6549 17.5014 16.0412 17.5017C16.4276 17.502 16.798 17.6556 17.0712 17.9288C17.3444 18.202 17.498 18.5724 17.4983 18.9588C17.4986 19.3451 17.3455 19.7158 17.0727 19.9894L6.86437 30.1977C6.72914 30.3334 6.56844 30.4409 6.39149 30.5143C6.21455 30.5876 6.02486 30.6252 5.83333 30.625Z" fill="#8799D6"/>
<path fill-rule="evenodd" clip-rule="evenodd" d="M30.625 16.0417C30.6266 17.4362 30.3776 18.8197 29.89 20.1262C29.4415 21.3259 28.617 21.834 27.8222 22.8092C27.0081 24.0841 25.9843 25.2123 24.7942 26.146C23.2913 27.0122 21.6145 27.5332 19.8853 27.6712C18.1562 27.8093 16.418 27.5609 14.7966 26.9442C13.7573 26.5472 13.3363 25.5439 12.4642 24.8828C11.0904 24.1341 9.87325 23.1284 8.87887 21.9205C8.00407 20.4175 7.47551 18.7382 7.33169 17.0051C7.18786 15.272 7.4324 13.5286 8.04748 11.9019C8.55368 10.8429 9.25596 9.88939 10.1172 9.09184C10.9356 7.89744 11.9377 6.83989 13.0863 5.95831C14.5922 5.08319 16.2746 4.5555 18.0105 4.41378C19.7464 4.27206 21.4921 4.51989 23.1199 5.13917C24.374 5.61809 24.9504 6.70906 25.9538 7.56511C26.9888 8.44842 28.4411 9.10759 29.1162 10.2992C30.1082 12.0503 30.6281 14.0291 30.625 16.0417Z" fill="#FA6D62"/>
<path d="M20.6356 9.89611C21.5387 9.36405 22.5494 9.04053 23.5937 8.94921C24.816 8.84212 26.047 8.99883 27.2035 9.40874C27.8671 9.63878 28.5049 9.93725 29.1067 10.2993C27.7533 7.91584 25.6054 6.08368 23.0383 5.12299C22.3478 5.23234 21.6704 5.41292 21.0171 5.66184C19.8674 6.09058 18.8232 6.76122 17.9552 7.6284C17.2136 8.36918 16.6468 9.26627 16.2963 10.2541C16.002 11.0472 15.9265 11.9049 16.0777 12.7372C16.1637 13.2956 16.361 13.8309 16.6579 14.3115C16.9548 14.7921 17.3452 15.2082 17.806 15.535C18.1642 15.7576 18.5522 15.9282 18.9583 16.0417C18.72 15.6938 18.5321 15.3139 18.4005 14.9132C18.2573 14.3668 18.2253 13.7971 18.3065 13.238C18.3877 12.679 18.5804 12.1419 18.8732 11.6588C19.2918 10.9237 19.9005 10.3148 20.6356 9.89611Z" fill="#FFE6BA"/>
<path d="M19.0435 20.4245C18.6249 21.1597 18.0161 21.7685 17.2811 22.1872C16.3779 22.7193 15.3673 23.0428 14.323 23.134C13.1007 23.2411 11.8697 23.0845 10.7132 22.6746C10.0496 22.4446 9.41172 22.1462 8.80994 21.784C10.1633 24.1674 12.3111 25.9995 14.8781 26.9602C15.5687 26.851 16.2462 26.6705 16.8996 26.4215C18.0493 25.9927 19.0935 25.322 19.9615 24.4548C20.7031 23.7141 21.2699 22.817 21.6204 21.8292C21.9147 21.0361 21.9902 20.1784 21.839 19.3461C21.753 18.7878 21.5557 18.2524 21.2588 17.7718C20.9619 17.2912 20.5715 16.8751 20.1107 16.5483C19.7525 16.3257 19.3645 16.1551 18.9583 16.0417C19.1967 16.3895 19.3845 16.7694 19.5161 17.17C19.6594 17.7165 19.6913 18.2862 19.6101 18.8452C19.5289 19.4043 19.3363 19.9414 19.0435 20.4245Z" fill="#FFE6BA"/>
<path d="M23.3412 15.9565C24.0763 16.3751 24.6852 16.9839 25.1039 17.7189C25.6359 18.6221 25.9595 19.6327 26.0508 20.677C26.1578 21.8993 26.0011 23.1303 25.5913 24.2868C25.3612 24.9504 25.0627 25.5882 24.7006 26.1901C27.0841 24.8367 28.9162 22.6889 29.8769 20.1219C29.7676 19.4313 29.587 18.7538 29.3381 18.1004C28.9094 16.9507 28.2387 15.9065 27.3714 15.0385C26.6307 14.2968 25.7337 13.7301 24.7458 13.3796C23.9527 13.0853 23.0951 13.0098 22.2627 13.161C21.7044 13.247 21.169 13.4443 20.6884 13.7412C20.2078 14.0381 19.7917 14.4285 19.4649 14.8893C19.2423 15.2475 19.0717 15.6355 18.9583 16.0417C19.3061 15.8033 19.686 15.6155 20.0866 15.4838C20.6331 15.3406 21.2028 15.3087 21.7619 15.3898C22.321 15.471 22.858 15.6637 23.3412 15.9565Z" fill="#FFE6BA"/>
<path d="M14.5755 16.1267C13.8404 15.7081 13.2315 15.0994 12.8128 14.3644C12.2807 13.4613 11.9572 12.4506 11.8659 11.4064C11.7589 10.1841 11.9156 8.95305 12.3254 7.79655C12.5554 7.13294 12.8539 6.49508 13.216 5.89328C10.8326 7.24663 9.00048 9.39443 8.03979 11.9614C8.14907 12.652 8.32961 13.3295 8.5785 13.9829C9.00726 15.1326 9.67796 16.1767 10.5452 17.0447C11.2858 17.7864 12.1829 18.3532 13.1708 18.7036C13.9639 18.998 14.8216 19.0735 15.6539 18.9222C16.2122 18.8362 16.7476 18.6389 17.2282 18.3421C17.7088 18.0452 18.1249 17.6548 18.4517 17.1941C18.6743 16.8359 18.8449 16.4479 18.9583 16.0417C18.6105 16.28 18.2306 16.4678 17.83 16.5993C17.2835 16.7426 16.7138 16.7746 16.1548 16.6934C15.5957 16.6122 15.0586 16.4195 14.5755 16.1267Z" fill="#FFE6BA"/>
</svg>
