<svg width="40" height="40" viewBox="0 0 40 40" fill="none" xmlns="http://www.w3.org/2000/svg">
<path d="M7.82064 23.9435C7.57927 23.9435 7.38301 23.7472 7.38301 23.5058C7.38301 23.2645 7.57927 23.0682 7.82064 23.0682C8.06202 23.0682 8.25827 23.2645 8.25827 23.5058C8.25827 23.7472 8.06202 23.9435 7.82064 23.9435ZM7.82064 22.6306C7.3373 22.6306 6.94538 23.0225 6.94538 23.5059C6.94538 23.9892 7.3373 24.3811 7.82064 24.3811C8.30399 24.3811 8.69591 23.9892 8.69591 23.5059C8.69591 23.0225 8.30399 22.6306 7.82064 22.6306ZM9.00531 14.1542L9.4703 13.6892C9.55389 13.6058 9.55497 13.466 9.46946 13.3807C9.44932 13.3603 9.42533 13.344 9.39889 13.3329C9.37244 13.3218 9.34406 13.3161 9.31538 13.316C9.2867 13.3159 9.25828 13.3215 9.23178 13.3325C9.20527 13.3434 9.18119 13.3595 9.16093 13.3798L8.69595 13.8448L8.23096 13.3798C8.14761 13.2963 8.00778 13.2951 7.92243 13.3807C7.90202 13.4008 7.88579 13.4248 7.87469 13.4513C7.86359 13.4777 7.85783 13.5061 7.85775 13.5348C7.85768 13.5635 7.86328 13.5919 7.87423 13.6184C7.88519 13.6449 7.90129 13.669 7.92159 13.6892L8.38658 14.1542L7.92159 14.6191C7.838 14.7025 7.83692 14.8423 7.92243 14.9276C7.94257 14.9481 7.96656 14.9643 7.993 14.9754C8.01945 14.9865 8.04783 14.9923 8.07651 14.9924C8.1052 14.9924 8.13361 14.9868 8.16012 14.9759C8.18663 14.9649 8.2107 14.9488 8.23096 14.9285L8.69595 14.4636L9.16093 14.9285C9.24428 15.0121 9.38391 15.0132 9.46946 14.9276C9.48988 14.9075 9.5061 14.8835 9.5172 14.8571C9.5283 14.8306 9.53406 14.8022 9.53414 14.7736C9.53422 14.7449 9.52861 14.7165 9.51766 14.6899C9.5067 14.6634 9.49061 14.6394 9.4703 14.6191L9.00531 14.1542ZM7.85772 19.4702C7.88647 19.4702 7.91496 19.4646 7.94153 19.4536C7.96811 19.4426 7.99225 19.4265 8.01258 19.4062C8.03291 19.3858 8.04902 19.3617 8.05998 19.3351C8.07095 19.3085 8.07656 19.28 8.0765 19.2513C8.0765 19.1297 7.97867 19.0325 7.85772 19.0325C7.82897 19.0324 7.80049 19.038 7.77392 19.049C7.74734 19.06 7.7232 19.0761 7.70287 19.0964C7.68254 19.1168 7.66643 19.1409 7.65546 19.1675C7.64449 19.194 7.63888 19.2225 7.63894 19.2513C7.63884 19.28 7.64443 19.3085 7.65539 19.3351C7.66635 19.3617 7.68246 19.3859 7.70279 19.4062C7.72312 19.4266 7.74728 19.4427 7.77387 19.4537C7.80046 19.4646 7.82896 19.4703 7.85772 19.4702ZM5.5511 26.8705C5.57985 26.8706 5.60834 26.865 5.63491 26.854C5.66148 26.843 5.68563 26.8269 5.70596 26.8065C5.72628 26.7862 5.74239 26.762 5.75336 26.7355C5.76433 26.7089 5.76994 26.6804 5.76987 26.6516C5.76987 26.5301 5.67204 26.4329 5.5511 26.4329C5.52235 26.4328 5.49387 26.4384 5.4673 26.4494C5.44072 26.4604 5.41658 26.4765 5.39625 26.4968C5.37592 26.5171 5.35981 26.5413 5.34884 26.5678C5.33787 26.5944 5.33225 26.6229 5.33232 26.6516C5.33222 26.6804 5.33781 26.7089 5.34877 26.7355C5.35973 26.7621 5.37584 26.7863 5.39617 26.8066C5.4165 26.827 5.44066 26.8431 5.46725 26.854C5.49384 26.865 5.52233 26.8706 5.5511 26.8705ZM4.16505 10.8737C4.19381 10.8737 4.22229 10.8681 4.24886 10.8571C4.27544 10.8462 4.29958 10.83 4.31991 10.8097C4.34024 10.7894 4.35635 10.7652 4.36732 10.7386C4.37829 10.712 4.3839 10.6836 4.38383 10.6548C4.38383 10.5332 4.286 10.436 4.16505 10.436C4.1363 10.436 4.10782 10.4416 4.08125 10.4525C4.05468 10.4635 4.03053 10.4796 4.0102 10.4999C3.98987 10.5203 3.97376 10.5444 3.96279 10.571C3.95182 10.5976 3.94621 10.626 3.94628 10.6548C3.94618 10.6836 3.95177 10.7121 3.96272 10.7387C3.97368 10.7652 3.98979 10.7894 4.01012 10.8098C4.03046 10.8301 4.05461 10.8462 4.0812 10.8572C4.10779 10.8682 4.13629 10.8738 4.16505 10.8737ZM3.25875 24.9404C3.38034 24.9404 3.47753 24.8424 3.47753 24.7217C3.47761 24.6929 3.47201 24.6644 3.46105 24.6378C3.45009 24.6112 3.43398 24.5871 3.41365 24.5667C3.39332 24.5464 3.36917 24.5303 3.34259 24.5193C3.316 24.5083 3.28751 24.5027 3.25875 24.5028C3.23 24.5027 3.20152 24.5083 3.17494 24.5193C3.14837 24.5303 3.12422 24.5464 3.1039 24.5668C3.08357 24.5871 3.06746 24.6113 3.05649 24.6378C3.04552 24.6644 3.03991 24.6929 3.03998 24.7217C3.03989 24.7504 3.04549 24.7789 3.05645 24.8055C3.06741 24.8321 3.08352 24.8562 3.10386 24.8766C3.12419 24.8969 3.14834 24.913 3.17493 24.924C3.20151 24.9349 3.23 24.9405 3.25875 24.9404Z" fill="#404041"/>
<path d="M3.71643 19.6052C3.68596 19.6052 3.65675 19.593 3.63521 19.5715C3.61366 19.55 3.60156 19.5207 3.60156 19.4903V19.0123C3.60158 18.9819 3.61369 18.9527 3.63523 18.9312C3.65677 18.9096 3.68598 18.8975 3.71643 18.8975C3.74688 18.8975 3.77609 18.9096 3.79763 18.9312C3.81917 18.9527 3.83128 18.9819 3.8313 19.0123V19.4903C3.83131 19.5054 3.82834 19.5203 3.82257 19.5343C3.81681 19.5482 3.80834 19.5609 3.79768 19.5715C3.78701 19.5822 3.77434 19.5907 3.7604 19.5964C3.74646 19.6022 3.73152 19.6052 3.71643 19.6052Z" fill="#404041"/>
<path d="M3.95548 19.3662H3.47753C3.44708 19.3662 3.41788 19.3541 3.39635 19.3325C3.37482 19.311 3.36273 19.2818 3.36273 19.2513C3.36273 19.2209 3.37482 19.1917 3.39635 19.1701C3.41788 19.1486 3.44708 19.1365 3.47753 19.1364H3.95548C3.98593 19.1365 4.01513 19.1486 4.03666 19.1701C4.05819 19.1917 4.07028 19.2209 4.07028 19.2513C4.07028 19.2818 4.05819 19.311 4.03666 19.3325C4.01513 19.3541 3.98593 19.3662 3.95548 19.3662Z" fill="#404041"/>
<path d="M2.81958 15.3703C2.78911 15.3703 2.7599 15.3582 2.73836 15.3366C2.71681 15.3151 2.70471 15.2859 2.70471 15.2554V14.7775C2.70473 14.747 2.71684 14.7178 2.73838 14.6963C2.75992 14.6748 2.78913 14.6627 2.81958 14.6627C2.85003 14.6627 2.87924 14.6748 2.90078 14.6963C2.92232 14.7178 2.93443 14.747 2.93445 14.7775V15.2554C2.93445 15.2859 2.92234 15.3151 2.9008 15.3366C2.87926 15.3582 2.85004 15.3703 2.81958 15.3703Z" fill="#404041"/>
<path d="M3.05857 15.1313H2.58063C2.55016 15.1313 2.52094 15.1192 2.4994 15.0977C2.47786 15.0761 2.46576 15.0469 2.46576 15.0164C2.46576 14.986 2.47786 14.9568 2.4994 14.9352C2.52094 14.9137 2.55016 14.9016 2.58063 14.9016H3.05857C3.08904 14.9016 3.11825 14.9137 3.1398 14.9352C3.16134 14.9568 3.17344 14.986 3.17344 15.0164C3.17344 15.0469 3.16134 15.0761 3.1398 15.0977C3.11825 15.1192 3.08904 15.1313 3.05857 15.1313Z" fill="#404041"/>
<path d="M5.79004 16.733C5.75957 16.733 5.73036 16.7209 5.70881 16.6994C5.68727 16.6778 5.67517 16.6486 5.67517 16.6181V16.1402C5.67519 16.1097 5.6873 16.0805 5.70884 16.059C5.73038 16.0375 5.75958 16.0254 5.79004 16.0254C5.82049 16.0254 5.8497 16.0375 5.87124 16.059C5.89278 16.0805 5.90489 16.1097 5.90491 16.1402V16.6181C5.90491 16.6486 5.8928 16.6778 5.87126 16.6994C5.84972 16.7209 5.8205 16.733 5.79004 16.733Z" fill="#404041"/>
<path d="M6.02903 16.494H5.55108C5.52063 16.494 5.49143 16.4819 5.4699 16.4604C5.44837 16.4388 5.43628 16.4096 5.43628 16.3792C5.43628 16.3487 5.44837 16.3195 5.4699 16.298C5.49143 16.2764 5.52063 16.2643 5.55108 16.2643H6.02903C6.05948 16.2643 6.08868 16.2764 6.11021 16.298C6.13173 16.3195 6.14383 16.3487 6.14383 16.3792C6.14383 16.4096 6.13173 16.4388 6.11021 16.4604C6.08868 16.4819 6.05948 16.494 6.02903 16.494Z" fill="#404041"/>
<path d="M32.067 23.9435C31.8256 23.9435 31.6293 23.7472 31.6293 23.5058C31.6293 23.2645 31.8256 23.0682 32.067 23.0682C32.3083 23.0682 32.5046 23.2645 32.5046 23.5058C32.5046 23.7472 32.3083 23.9435 32.067 23.9435ZM32.067 22.6306C31.5836 22.6306 31.1917 23.0225 31.1917 23.5059C31.1917 23.9892 31.5836 24.3811 32.067 24.3811C32.5503 24.3811 32.9422 23.9892 32.9422 23.5059C32.9422 23.0225 32.5503 22.6306 32.067 22.6306ZM30.8823 14.1542L30.4174 13.6892C30.3337 13.6058 30.3326 13.466 30.4182 13.3807C30.4383 13.3603 30.4623 13.344 30.4887 13.3329C30.5152 13.3218 30.5436 13.3161 30.5722 13.316C30.6009 13.3159 30.6293 13.3215 30.6558 13.3325C30.6824 13.3434 30.7064 13.3595 30.7267 13.3798L31.1917 13.8448L31.6567 13.3798C31.74 13.2963 31.8798 13.2951 31.9652 13.3807C31.9856 13.4008 32.0018 13.4248 32.0129 13.4513C32.024 13.4777 32.0298 13.5061 32.0299 13.5348C32.03 13.5635 32.0244 13.5919 32.0134 13.6184C32.0025 13.6449 31.9864 13.669 31.9661 13.6892L31.501 14.1542L31.9661 14.6191C32.0496 14.7025 32.0507 14.8423 31.9652 14.9276C31.945 14.9481 31.9211 14.9643 31.8946 14.9754C31.8682 14.9865 31.8398 14.9923 31.8111 14.9924C31.7824 14.9924 31.754 14.9868 31.7275 14.9759C31.701 14.9649 31.6769 14.9488 31.6567 14.9285L31.1917 14.4636L30.7267 14.9285C30.6433 15.0122 30.5037 15.0132 30.4182 14.9276C30.3977 14.9075 30.3815 14.8835 30.3704 14.8571C30.3593 14.8306 30.3536 14.8022 30.3535 14.7735C30.3534 14.7449 30.359 14.7165 30.37 14.6899C30.381 14.6634 30.3971 14.6394 30.4174 14.6191L30.8823 14.1542ZM32.0299 19.4702C32.0012 19.4702 31.9727 19.4646 31.9461 19.4536C31.9195 19.4426 31.8954 19.4265 31.8751 19.4062C31.8548 19.3858 31.8386 19.3617 31.8277 19.3351C31.8167 19.3085 31.8111 19.28 31.8112 19.2513C31.8112 19.1297 31.909 19.0325 32.0299 19.0325C32.1516 19.0325 32.2487 19.1305 32.2487 19.2513C32.2488 19.28 32.2432 19.3085 32.2323 19.3351C32.2213 19.3617 32.2052 19.3859 32.1849 19.4062C32.1645 19.4266 32.1404 19.4427 32.1138 19.4537C32.0872 19.4646 32.0587 19.4703 32.0299 19.4702ZM34.3366 26.8705C34.3078 26.8706 34.2793 26.865 34.2527 26.854C34.2262 26.843 34.202 26.8269 34.1817 26.8065C34.1614 26.7862 34.1453 26.762 34.1343 26.7355C34.1233 26.7089 34.1177 26.6804 34.1178 26.6516C34.1178 26.5301 34.2156 26.4329 34.3366 26.4329C34.4583 26.4329 34.5553 26.5309 34.5553 26.6516C34.5554 26.6804 34.5498 26.7089 34.5389 26.7355C34.5279 26.7621 34.5118 26.7863 34.4915 26.8066C34.4711 26.8269 34.447 26.8431 34.4204 26.854C34.3938 26.865 34.3653 26.8706 34.3366 26.8705ZM35.7226 10.8737C35.6938 10.8737 35.6654 10.8681 35.6388 10.8571C35.6122 10.8462 35.5881 10.83 35.5677 10.8097C35.5474 10.7894 35.5313 10.7652 35.5203 10.7386C35.5094 10.712 35.5038 10.6836 35.5038 10.6548C35.5038 10.5332 35.6017 10.436 35.7226 10.436C35.8443 10.436 35.9414 10.534 35.9414 10.6548C35.9415 10.6836 35.9359 10.7121 35.9249 10.7387C35.914 10.7652 35.8979 10.7894 35.8775 10.8098C35.8572 10.8301 35.833 10.8462 35.8064 10.8572C35.7799 10.8682 35.7514 10.8738 35.7226 10.8737ZM11.2126 8.95911C11.1838 8.95916 11.1553 8.95354 11.1287 8.94255C11.1022 8.93157 11.078 8.91545 11.0577 8.89511C11.0374 8.87477 11.0213 8.85062 11.0103 8.82404C10.9993 8.79745 10.9937 8.76897 10.9938 8.74021C10.9938 8.61863 11.0916 8.52144 11.2126 8.52144C11.3343 8.52144 11.4313 8.61943 11.4313 8.74021C11.4314 8.76898 11.4258 8.79747 11.4149 8.82407C11.4039 8.85066 11.3878 8.87482 11.3675 8.89517C11.3471 8.91551 11.323 8.93163 11.2964 8.94261C11.2698 8.95358 11.2413 8.95919 11.2126 8.95911ZM16.7799 13.8875C16.7511 13.8876 16.7226 13.8819 16.6961 13.871C16.6695 13.86 16.6454 13.8439 16.625 13.8235C16.6047 13.8032 16.5886 13.779 16.5776 13.7524C16.5667 13.7259 16.561 13.6974 16.5611 13.6686C16.5611 13.547 16.6589 13.4498 16.7799 13.4498C16.9016 13.4498 16.9987 13.5478 16.9987 13.6686C16.9988 13.6974 16.9932 13.7259 16.9822 13.7525C16.9712 13.7791 16.9551 13.8032 16.9348 13.8236C16.9145 13.8439 16.8903 13.86 16.8637 13.871C16.8371 13.882 16.8086 13.8876 16.7799 13.8875ZM25.7928 14.373C25.764 14.3731 25.7355 14.3674 25.7089 14.3565C25.6824 14.3455 25.6582 14.3294 25.6379 14.309C25.6176 14.2887 25.6015 14.2645 25.5905 14.2379C25.5795 14.2114 25.5739 14.1829 25.574 14.1541C25.574 14.0325 25.6718 13.9354 25.7928 13.9354C25.9145 13.9354 26.0115 14.0333 26.0115 14.1541C26.0116 14.1829 26.006 14.2114 25.9951 14.238C25.9841 14.2646 25.968 14.2887 25.9477 14.3091C25.9273 14.3294 25.9032 14.3455 25.8766 14.3565C25.85 14.3675 25.8215 14.3731 25.7928 14.373ZM29.9452 8.95911C29.9165 8.95916 29.888 8.95354 29.8614 8.94255C29.8348 8.93157 29.8107 8.91545 29.7904 8.89511C29.77 8.87477 29.7539 8.85062 29.7429 8.82404C29.732 8.79745 29.7264 8.76897 29.7264 8.74021C29.7264 8.61863 29.8243 8.52144 29.9452 8.52144C30.0669 8.52144 30.164 8.61943 30.164 8.74021C30.1641 8.76898 30.1585 8.79748 30.1475 8.82407C30.1366 8.85067 30.1205 8.87483 30.1001 8.89518C30.0798 8.91552 30.0557 8.93164 30.0291 8.94262C30.0025 8.95359 29.974 8.95919 29.9452 8.95911ZM36.6289 24.9404C36.5073 24.9404 36.4101 24.8425 36.4101 24.7217C36.41 24.6929 36.4156 24.6644 36.4266 24.6378C36.4376 24.6112 36.4537 24.5871 36.474 24.5667C36.4943 24.5464 36.5185 24.5303 36.5451 24.5193C36.5717 24.5083 36.6001 24.5027 36.6289 24.5028C36.6577 24.5027 36.6861 24.5083 36.7127 24.5193C36.7393 24.5303 36.7634 24.5464 36.7838 24.5668C36.8041 24.5871 36.8202 24.6113 36.8312 24.6378C36.8421 24.6644 36.8477 24.6929 36.8477 24.7217C36.8477 24.8433 36.75 24.9404 36.6289 24.9404Z" fill="#404041"/>
<path d="M36.1711 19.6052C36.1406 19.6052 36.1114 19.593 36.0899 19.5715C36.0683 19.55 36.0562 19.5207 36.0562 19.4903V19.0123C36.0562 18.9819 36.0683 18.9527 36.0899 18.9312C36.1114 18.9096 36.1406 18.8975 36.1711 18.8975C36.2015 18.8975 36.2307 18.9096 36.2523 18.9312C36.2738 18.9527 36.2859 18.9819 36.2859 19.0123V19.4903C36.286 19.5054 36.283 19.5203 36.2772 19.5343C36.2715 19.5482 36.263 19.5609 36.2523 19.5715C36.2417 19.5822 36.229 19.5907 36.2151 19.5964C36.2011 19.6022 36.1862 19.6052 36.1711 19.6052Z" fill="#404041"/>
<path d="M36.4101 19.3662H35.9321C35.9017 19.3662 35.8725 19.3541 35.8509 19.3325C35.8294 19.311 35.8173 19.2818 35.8173 19.2513C35.8173 19.2209 35.8294 19.1917 35.8509 19.1701C35.8725 19.1486 35.9017 19.1365 35.9321 19.1364H36.4101C36.4405 19.1365 36.4697 19.1486 36.4913 19.1701C36.5128 19.1917 36.5249 19.2209 36.5249 19.2513C36.5249 19.2818 36.5128 19.311 36.4913 19.3325C36.4697 19.3541 36.4405 19.3662 36.4101 19.3662Z" fill="#404041"/>
<path d="M26.0416 10.2278C26.0111 10.2278 25.9819 10.2157 25.9603 10.1942C25.9388 10.1726 25.9267 10.1434 25.9267 10.1129V9.63499C25.9267 9.60453 25.9388 9.57534 25.9604 9.55381C25.9819 9.53228 26.0111 9.52019 26.0416 9.52019C26.072 9.52019 26.1012 9.53228 26.1228 9.55381C26.1443 9.57534 26.1564 9.60453 26.1564 9.63499V10.1129C26.1564 10.1434 26.1443 10.1726 26.1228 10.1942C26.1012 10.2157 26.072 10.2278 26.0416 10.2278Z" fill="#404041"/>
<path d="M26.2806 9.98883H25.8026C25.7722 9.98881 25.743 9.9767 25.7214 9.95516C25.6999 9.93362 25.6878 9.90441 25.6878 9.87396C25.6878 9.84351 25.6999 9.8143 25.7214 9.79276C25.743 9.77122 25.7722 9.75911 25.8026 9.75909H26.2806C26.311 9.75911 26.3402 9.77122 26.3617 9.79276C26.3833 9.8143 26.3954 9.84351 26.3954 9.87396C26.3954 9.90441 26.3833 9.93362 26.3617 9.95516C26.3402 9.9767 26.311 9.98881 26.2806 9.98883Z" fill="#404041"/>
<path d="M16.7799 9.31299C16.7494 9.31299 16.7202 9.30089 16.6987 9.27935C16.6771 9.25781 16.665 9.22859 16.665 9.19812V8.72018C16.6651 8.68972 16.6772 8.66052 16.6987 8.639C16.7202 8.61747 16.7495 8.60538 16.7799 8.60538C16.8104 8.60538 16.8396 8.61747 16.8611 8.639C16.8826 8.66052 16.8948 8.68972 16.8948 8.72018V9.19812C16.8948 9.22859 16.8827 9.25781 16.8611 9.27935C16.8396 9.30089 16.8104 9.31299 16.7799 9.31299Z" fill="#404041"/>
<path d="M17.0188 9.07402H16.5409C16.5104 9.074 16.4812 9.06189 16.4597 9.04035C16.4382 9.01881 16.4261 8.9896 16.4261 8.95915C16.4261 8.9287 16.4382 8.89949 16.4597 8.87795C16.4812 8.85641 16.5104 8.8443 16.5409 8.84428H17.0188C17.0493 8.8443 17.0785 8.85641 17.1 8.87795C17.1215 8.89949 17.1336 8.9287 17.1336 8.95915C17.1336 8.9896 17.1215 9.01881 17.1 9.04035C17.0785 9.06189 17.0493 9.074 17.0188 9.07402Z" fill="#404041"/>
<path d="M12.6829 14.5274C12.6525 14.5274 12.6232 14.5153 12.6017 14.4938C12.5802 14.4722 12.5681 14.443 12.5681 14.4125V13.9346C12.5681 13.9041 12.5802 13.8749 12.6017 13.8534C12.6233 13.8319 12.6525 13.8198 12.6829 13.8198C12.7134 13.8198 12.7426 13.8319 12.7641 13.8534C12.7857 13.8749 12.7978 13.9041 12.7978 13.9346V14.4125C12.7978 14.4276 12.7948 14.4426 12.7891 14.4565C12.7833 14.4705 12.7748 14.4831 12.7642 14.4938C12.7535 14.5045 12.7408 14.5129 12.7269 14.5187C12.7129 14.5245 12.698 14.5274 12.6829 14.5274Z" fill="#404041"/>
<path d="M12.9218 14.2884H12.4439C12.4134 14.2884 12.3842 14.2763 12.3627 14.2548C12.3412 14.2332 12.3291 14.204 12.3291 14.1736C12.3291 14.1431 12.3412 14.1139 12.3627 14.0924C12.3842 14.0708 12.4134 14.0587 12.4439 14.0587H12.9218C12.9523 14.0587 12.9815 14.0708 13.003 14.0924C13.0246 14.1139 13.0366 14.1431 13.0366 14.1736C13.0366 14.204 13.0246 14.2332 13.003 14.2548C12.9815 14.2763 12.9523 14.2884 12.9218 14.2884Z" fill="#404041"/>
<path d="M37.068 15.3703C37.0375 15.3703 37.0083 15.3582 36.9868 15.3366C36.9652 15.3151 36.9531 15.2859 36.9531 15.2554V14.7775C36.9531 14.747 36.9653 14.7178 36.9868 14.6963C37.0083 14.6748 37.0375 14.6627 37.068 14.6627C37.0984 14.6627 37.1277 14.6748 37.1492 14.6963C37.1707 14.7178 37.1828 14.747 37.1829 14.7775V15.2554C37.1829 15.2859 37.1708 15.3151 37.1492 15.3366C37.1277 15.3582 37.0985 15.3703 37.068 15.3703Z" fill="#404041"/>
<path d="M37.307 15.1313H36.829C36.7986 15.1313 36.7694 15.1192 36.7478 15.0977C36.7263 15.0761 36.7142 15.0469 36.7142 15.0164C36.7142 14.986 36.7263 14.9568 36.7478 14.9352C36.7694 14.9137 36.7986 14.9016 36.829 14.9016H37.307C37.3375 14.9016 37.3667 14.9137 37.3882 14.9352C37.4098 14.9568 37.4219 14.986 37.4219 15.0164C37.4219 15.0469 37.4098 15.0761 37.3882 15.0977C37.3667 15.1192 37.3375 15.1313 37.307 15.1313Z" fill="#404041"/>
<path d="M34.0975 16.733C34.0671 16.733 34.0379 16.7209 34.0163 16.6994C33.9948 16.6778 33.9827 16.6486 33.9827 16.6181V16.1402C33.9827 16.1097 33.9948 16.0805 34.0163 16.059C34.0379 16.0375 34.0671 16.0254 34.0975 16.0254C34.128 16.0254 34.1572 16.0375 34.1787 16.059C34.2003 16.0805 34.2124 16.1097 34.2124 16.1402V16.6181C34.2124 16.6486 34.2003 16.6778 34.1788 16.6994C34.1572 16.7209 34.128 16.733 34.0975 16.733Z" fill="#404041"/>
<path d="M34.3365 16.494H33.8586C33.8281 16.494 33.7989 16.4819 33.7774 16.4604C33.7559 16.4388 33.7438 16.4096 33.7438 16.3792C33.7438 16.3487 33.7559 16.3195 33.7774 16.298C33.7989 16.2764 33.8281 16.2643 33.8586 16.2643H34.3365C34.367 16.2643 34.3962 16.2764 34.4177 16.298C34.4392 16.3195 34.4513 16.3487 34.4513 16.3792C34.4513 16.4096 34.4392 16.4388 34.4177 16.4604C34.3962 16.4819 34.367 16.494 34.3365 16.494Z" fill="#404041"/>
<path d="M6.86628 31.4074H3.80626C3.75143 31.4073 3.69885 31.3855 3.66007 31.3468C3.6213 31.308 3.59951 31.2554 3.59949 31.2006C3.59951 31.1457 3.6213 31.0932 3.66007 31.0544C3.69885 31.0156 3.75143 30.9938 3.80626 30.9938H6.86628C6.92112 30.9938 6.9737 31.0156 7.01247 31.0544C7.05124 31.0932 7.07304 31.1457 7.07306 31.2006C7.07304 31.2554 7.05124 31.308 7.01247 31.3468C6.9737 31.3855 6.92112 31.4073 6.86628 31.4074Z" fill="#404041"/>
<path d="M14.1995 31.4074H9.48534C9.43051 31.4073 9.37792 31.3855 9.33915 31.3468C9.30038 31.308 9.27859 31.2554 9.27856 31.2006C9.27859 31.1457 9.30038 31.0932 9.33915 31.0544C9.37792 31.0156 9.43051 30.9938 9.48534 30.9938H14.1995C14.2543 30.9938 14.3069 31.0156 14.3456 31.0544C14.3844 31.0932 14.4062 31.1457 14.4062 31.2006C14.4062 31.2554 14.3844 31.308 14.3456 31.3468C14.3069 31.3855 14.2543 31.4073 14.1995 31.4074Z" fill="#404041"/>
<path d="M16.4352 31.4074H15.0875C15.0327 31.4073 14.9801 31.3855 14.9413 31.3468C14.9026 31.308 14.8808 31.2554 14.8807 31.2006C14.8808 31.1457 14.9026 31.0932 14.9413 31.0544C14.9801 31.0156 15.0327 30.9938 15.0875 30.9938H16.4352C16.4901 30.9938 16.5427 31.0156 16.5814 31.0544C16.6202 31.0932 16.642 31.1457 16.642 31.2006C16.642 31.2554 16.6202 31.308 16.5814 31.3468C16.5427 31.3855 16.4901 31.4073 16.4352 31.4074Z" fill="#404041"/>
<path d="M8.87689 31.4074H7.52916C7.47433 31.4073 7.42175 31.3855 7.38297 31.3468C7.3442 31.308 7.32241 31.2554 7.32239 31.2006C7.32241 31.1457 7.3442 31.0932 7.38297 31.0544C7.42175 31.0156 7.47433 30.9938 7.52916 30.9938H8.87689C8.93173 30.9938 8.98431 31.0156 9.02308 31.0544C9.06186 31.0932 9.08365 31.1457 9.08367 31.2006C9.08365 31.2554 9.06186 31.308 9.02308 31.3468C8.98431 31.3855 8.93173 31.4073 8.87689 31.4074Z" fill="#404041"/>
<path d="M26.2214 31.4074H23.1614C23.1065 31.4073 23.054 31.3855 23.0152 31.3468C22.9764 31.308 22.9546 31.2554 22.9546 31.2006C22.9546 31.1457 22.9764 31.0932 23.0152 31.0544C23.054 31.0156 23.1065 30.9938 23.1614 30.9938H26.2214C26.2762 30.9938 26.3288 31.0156 26.3676 31.0544C26.4063 31.0932 26.4281 31.1457 26.4282 31.2006C26.4281 31.2554 26.4063 31.308 26.3676 31.3468C26.3288 31.3855 26.2762 31.4073 26.2214 31.4074Z" fill="#404041"/>
<path d="M33.5545 31.4074H28.8404C28.7855 31.4073 28.733 31.3855 28.6942 31.3468C28.6554 31.308 28.6336 31.2554 28.6336 31.2006C28.6336 31.1457 28.6554 31.0932 28.6942 31.0544C28.733 31.0156 28.7855 30.9938 28.8404 30.9938H33.5545C33.6093 30.9938 33.6619 31.0156 33.7007 31.0544C33.7395 31.0932 33.7613 31.1457 33.7613 31.2006C33.7613 31.2554 33.7395 31.308 33.7007 31.3468C33.6619 31.3855 33.6093 31.4073 33.5545 31.4074Z" fill="#404041"/>
<path d="M28.232 31.4074H26.8841C26.8293 31.4073 26.7767 31.3855 26.738 31.3468C26.6992 31.308 26.6774 31.2554 26.6774 31.2006C26.6774 31.1457 26.6992 31.0932 26.738 31.0544C26.7767 31.0156 26.8293 30.9938 26.8841 30.9938H28.232C28.2868 30.9938 28.3394 31.0156 28.3781 31.0544C28.4169 31.0932 28.4387 31.1457 28.4387 31.2006C28.4387 31.2554 28.4169 31.308 28.3781 31.3468C28.3394 31.3855 28.2868 31.4073 28.232 31.4074Z" fill="#404041"/>
<path d="M18.619 31.4074H17.4435C17.3887 31.4073 17.3361 31.3855 17.2973 31.3468C17.2586 31.308 17.2368 31.2554 17.2368 31.2006C17.2368 31.1457 17.2586 31.0932 17.2973 31.0544C17.3361 31.0156 17.3887 30.9938 17.4435 30.9938H18.619C18.6739 30.9938 18.7265 31.0156 18.7652 31.0544C18.804 31.0932 18.8258 31.1457 18.8258 31.2006C18.8258 31.2554 18.804 31.308 18.7652 31.3468C18.7265 31.3855 18.6739 31.4073 18.619 31.4074Z" fill="#404041"/>
<path d="M35.5891 31.4074H34.4136C34.3587 31.4073 34.3061 31.3855 34.2674 31.3468C34.2286 31.308 34.2068 31.2554 34.2068 31.2006C34.2068 31.1457 34.2286 31.0932 34.2674 31.0544C34.3061 31.0156 34.3587 30.9938 34.4136 30.9938H35.5891C35.6439 30.9938 35.6965 31.0156 35.7353 31.0544C35.774 31.0932 35.7958 31.1457 35.7958 31.2006C35.7958 31.2554 35.774 31.308 35.7353 31.3468C35.6965 31.3855 35.6439 31.4073 35.5891 31.4074Z" fill="#404041"/>
<path d="M22.3817 31.4074H19.6823C19.6275 31.4073 19.5749 31.3855 19.5361 31.3468C19.4973 31.308 19.4755 31.2554 19.4755 31.2006C19.4755 31.1457 19.4973 31.0932 19.5361 31.0544C19.5749 31.0156 19.6275 30.9938 19.6823 30.9938H22.3817C22.4366 30.9938 22.4891 31.0156 22.5279 31.0544C22.5667 31.0932 22.5885 31.1457 22.5885 31.2006C22.5885 31.2554 22.5667 31.308 22.5279 31.3468C22.4891 31.3855 22.4366 31.4073 22.3817 31.4074Z" fill="#404041"/>
<path d="M10.5539 22.6474H28.933V23.2597C28.933 23.2597 28.5321 23.3554 28.4505 23.4632C28.3691 23.571 27.1932 23.6907 26.2863 24.1557C25.3793 24.6206 25.1271 25.3044 24.3306 25.4422C23.5341 25.58 22.1327 24.753 22.1327 24.753C22.1327 24.753 15.1574 23.6043 15.0037 23.5813C14.85 23.5584 10.7377 23.4665 10.7377 23.4665C10.7377 23.4665 10.3931 22.9899 10.3701 22.941C10.3472 22.8921 10.5538 22.531 10.5538 22.531" fill="#F2C928"/>
<path d="M10.7377 23.4664C10.8538 23.451 21.1364 24.0112 23.4151 25.0746C23.4151 25.0746 23.7563 25.4881 24.5297 25.1895C25.3031 24.8908 25.8409 24.0178 26.3071 23.9259C26.7735 23.834 28.8181 23.511 28.887 23.4658C28.9559 23.4205 29.3924 23.9948 29.4384 24.1097C29.4843 24.2246 29.8979 25.0976 29.6452 25.4192C29.3924 25.7408 28.8411 26.4616 28.7721 26.3884C28.7032 26.3152 26.245 26.4299 26.1531 26.4299C26.0612 26.4299 10.7377 26.3884 10.7377 26.3884C10.7377 26.3884 9.54306 25.3273 9.65793 24.8448C9.77284 24.3624 9.70392 23.6043 10.7377 23.4664Z" fill="#F26E3F"/>
<path d="M10.3702 22.5245C10.5283 22.5617 29.0578 22.6474 29.0578 22.6474C29.0578 22.6474 30.7147 21.894 30.5182 21.1921C30.3218 20.4901 29.242 20.2202 28.8334 20.4394C28.4249 20.6585 27.9911 20.8934 27.9911 20.8934C27.9911 20.8934 28.0141 20.6406 28.0371 20.2501C28.0601 19.8596 27.7614 19.515 27.7614 19.515C27.7614 19.515 27.3633 19.4794 27.0032 19.515C26.6432 19.5506 25.1309 21.3299 25.1309 21.3299C25.1309 21.3299 24.8437 20.7785 24.8207 20.7785C24.7977 20.7785 24.0106 20.8457 23.9706 20.858C23.9306 20.8703 22.6694 21.4293 22.6727 21.4276C22.6759 21.4259 22.2323 20.7709 22.2323 20.7709C22.2323 20.7709 21.9288 20.7444 21.399 20.6696C20.8692 20.5947 18.8934 21.3376 17.9975 21.2763C17.1015 21.215 16.2102 20.9343 15.7599 20.8334C15.3096 20.7325 15.0339 20.8704 14.8501 20.9852C14.6663 21.1001 14.6062 21.3806 14.5137 21.3054C14.4212 21.2303 13.3048 19.9514 13.3048 19.9514C13.3048 19.9514 12.6153 19.7677 12.584 19.7677C12.5527 19.7677 11.8854 19.9222 11.8111 19.9888C11.7368 20.0554 11.7027 21.0733 11.7027 21.0733C11.7027 21.0733 11.0391 20.8341 10.9613 20.8009C10.8836 20.7678 9.70396 20.7096 9.70396 20.7096L8.87689 21.261V21.7434C8.87689 21.7434 9.97965 22.4326 10.3702 22.5245Z" fill="#33B88C"/>
<path d="M10.3702 20.5488C10.3931 20.4569 11.4729 15.6783 19.8354 15.2418C19.8354 15.2418 26.5636 15.1959 29.0578 20.319L27.9298 20.924C27.9298 20.924 28.7186 19.8978 27.9987 19.6068C27.2789 19.3158 25.6401 21.0159 25.1806 21.1537C25.1806 21.1537 24.6675 20.7478 24.1851 20.8091C23.7026 20.8704 22.5233 21.506 22.5233 21.506C22.5233 21.506 22.5003 21.0082 22.2323 20.7709C21.9643 20.5335 19.5443 20.7096 17.9974 21.2763C17.9974 21.2763 17.2546 21.4141 16.933 21.3069C16.6114 21.1997 15.9222 20.6943 15.4091 20.8551C14.896 21.0159 14.85 20.924 14.7582 21.2533C14.7582 21.2533 14.5361 21.4065 14.4212 21.2304C14.3064 21.0542 13.441 20.1199 13.0505 20.0051C12.6599 19.8902 11.4117 19.4996 11.5878 20.8168L11.4653 21.0159L10.3702 20.5488ZM10.5539 26.3889C10.6487 26.3877 29.0479 26.3889 29.0479 26.3889C29.0479 26.3889 29.1627 28.5347 28.6114 28.8846C28.06 29.2345 21.972 29.0945 21.88 29.1179C21.7881 29.1412 10.9905 29.1179 10.9905 29.1179C10.9905 29.1179 10.0945 28.0683 10.1174 27.9517C10.1404 27.835 10.2095 26.3936 10.5539 26.3889Z" fill="#F2C928"/>
<path d="M9.48531 29.335H7.69335C7.63851 29.335 7.58593 29.3132 7.54716 29.2744C7.50839 29.2357 7.48659 29.1831 7.48657 29.1283C7.48659 29.0734 7.50839 29.0208 7.54716 28.9821C7.58593 28.9433 7.63852 28.9215 7.69335 28.9215H9.48531C9.54014 28.9215 9.59273 28.9433 9.6315 28.9821C9.67027 29.0208 9.69206 29.0734 9.69209 29.1283C9.69206 29.1831 9.67027 29.2357 9.6315 29.2744C9.59273 29.3132 9.54014 29.335 9.48531 29.335Z" fill="#404041"/>
<path d="M7.14201 29.335H6.59063C6.53579 29.335 6.48321 29.3132 6.44444 29.2744C6.40566 29.2357 6.38387 29.1831 6.38385 29.1283C6.38387 29.0734 6.40566 29.0208 6.44444 28.9821C6.48321 28.9433 6.53579 28.9215 6.59063 28.9215H7.14201C7.19684 28.9215 7.24942 28.9433 7.2882 28.9821C7.32697 29.0208 7.34876 29.0734 7.34878 29.1283C7.34876 29.1831 7.32697 29.2357 7.2882 29.2744C7.24942 29.3132 7.19684 29.335 7.14201 29.335Z" fill="#404041"/>
<path d="M31.3531 29.335H29.5611C29.5063 29.335 29.4537 29.3132 29.415 29.2744C29.3762 29.2357 29.3544 29.1831 29.3544 29.1283C29.3544 29.0734 29.3762 29.0208 29.415 28.9821C29.4537 28.9433 29.5063 28.9215 29.5611 28.9215H31.3531C31.4079 28.9215 31.4605 28.9433 31.4993 28.9821C31.5381 29.0208 31.5599 29.0734 31.5599 29.1283C31.5599 29.1831 31.5381 29.2357 31.4993 29.2744C31.4605 29.3132 31.4079 29.335 31.3531 29.335Z" fill="#404041"/>
<path d="M32.4558 29.335H31.9044C31.8496 29.335 31.797 29.3132 31.7582 29.2744C31.7194 29.2357 31.6976 29.1831 31.6976 29.1283C31.6976 29.0734 31.7194 29.0208 31.7582 28.9821C31.797 28.9433 31.8496 28.9215 31.9044 28.9215H32.4558C32.5106 28.9215 32.5632 28.9433 32.602 28.9821C32.6407 29.0208 32.6625 29.0734 32.6626 29.1283C32.6625 29.1831 32.6407 29.2357 32.602 29.2744C32.5632 29.3132 32.5106 29.335 32.4558 29.335ZM13.3803 26.6412H12.4001C12.3331 26.6412 12.2688 26.6145 12.2214 26.5672C12.174 26.5198 12.1474 26.4555 12.1474 26.3885C12.1474 26.3214 12.174 26.2572 12.2214 26.2098C12.2688 26.1624 12.3331 26.1357 12.4001 26.1357H13.3803C13.4464 26.1372 13.5092 26.1644 13.5554 26.2117C13.6017 26.2589 13.6275 26.3224 13.6275 26.3885C13.6275 26.4545 13.6017 26.518 13.5554 26.5652C13.5092 26.6125 13.4464 26.6397 13.3803 26.6412ZM24.8207 29.3535H23.8405C23.7744 29.3521 23.7116 29.3248 23.6653 29.2776C23.6191 29.2303 23.5932 29.1669 23.5932 29.1008C23.5932 29.0347 23.6191 28.9713 23.6653 28.924C23.7116 28.8768 23.7744 28.8495 23.8405 28.8481H24.8207C24.8872 28.8489 24.9506 28.8759 24.9973 28.9232C25.044 28.9705 25.0702 29.0343 25.0702 29.1008C25.0702 29.1673 25.044 29.2311 24.9973 29.2784C24.9506 29.3257 24.8872 29.3527 24.8207 29.3535ZM26.7763 29.3535H25.7962C25.7301 29.3521 25.6672 29.3248 25.621 29.2776C25.5748 29.2303 25.5489 29.1669 25.5489 29.1008C25.5489 29.0347 25.5748 28.9713 25.621 28.924C25.6672 28.8768 25.7301 28.8495 25.7962 28.8481H26.7763C26.8428 28.8489 26.9063 28.8759 26.953 28.9232C26.9997 28.9705 27.0259 29.0343 27.0259 29.1008C27.0259 29.1673 26.9997 29.2311 26.953 29.2784C26.9063 29.3257 26.8428 29.3527 26.7763 29.3535ZM25.0198 22.9231H24.0396C24.0034 22.9231 23.9676 22.916 23.9341 22.9021C23.9007 22.8883 23.8702 22.868 23.8446 22.8424C23.819 22.8168 23.7987 22.7864 23.7849 22.7529C23.771 22.7194 23.7639 22.6836 23.7639 22.6474C23.7639 22.6112 23.771 22.5753 23.7849 22.5419C23.7987 22.5084 23.819 22.478 23.8446 22.4524C23.8702 22.4268 23.9007 22.4065 23.9341 22.3926C23.9676 22.3788 24.0034 22.3717 24.0396 22.3717H25.0198C25.056 22.3717 25.0919 22.3788 25.1254 22.3926C25.1588 22.4065 25.1892 22.4268 25.2148 22.4524C25.2404 22.478 25.2608 22.5084 25.2746 22.5419C25.2885 22.5753 25.2956 22.6112 25.2956 22.6474C25.2956 22.6836 25.2885 22.7194 25.2746 22.7529C25.2608 22.7864 25.2404 22.8168 25.2148 22.8424C25.1892 22.868 25.1588 22.8883 25.1254 22.9021C25.0919 22.916 25.056 22.9231 25.0198 22.9231ZM27.116 22.9231H26.1359C26.0996 22.9231 26.0638 22.916 26.0303 22.9021C25.9969 22.8883 25.9665 22.868 25.9408 22.8424C25.9152 22.8168 25.8949 22.7864 25.8811 22.7529C25.8672 22.7194 25.8601 22.6836 25.8601 22.6474C25.8601 22.6112 25.8672 22.5753 25.8811 22.5419C25.8949 22.5084 25.9152 22.478 25.9408 22.4524C25.9665 22.4268 25.9969 22.4065 26.0303 22.3926C26.0638 22.3788 26.0996 22.3717 26.1359 22.3717H27.116C27.1522 22.3717 27.1881 22.3788 27.2216 22.3926C27.255 22.4065 27.2854 22.4268 27.311 22.4524C27.3366 22.478 27.357 22.5084 27.3708 22.5419C27.3847 22.5753 27.3918 22.6112 27.3918 22.6474C27.3918 22.6836 27.3847 22.7194 27.3708 22.7529C27.357 22.7864 27.3366 22.8168 27.311 22.8424C27.2854 22.868 27.255 22.8883 27.2216 22.9021C27.1881 22.916 27.1522 22.9231 27.116 22.9231ZM15.4938 26.6412H14.5137C14.4476 26.6397 14.3847 26.6125 14.3385 26.5652C14.2923 26.518 14.2664 26.4545 14.2664 26.3885C14.2664 26.3224 14.2923 26.2589 14.3385 26.2117C14.3847 26.1644 14.4476 26.1372 14.5137 26.1357H15.4938C15.5599 26.1372 15.6228 26.1644 15.669 26.2117C15.7152 26.2589 15.7411 26.3224 15.7411 26.3885C15.7411 26.4545 15.7152 26.518 15.669 26.5652C15.6228 26.6125 15.5599 26.6397 15.4938 26.6412Z" fill="#404041"/>
<path d="M19.6883 11.2214H23.5479V13.4498H19.6883V11.2214Z" fill="#F26E3F"/>
<path d="M23.5479 13.6567H19.6883C19.6334 13.6566 19.5809 13.6348 19.5421 13.5961C19.5033 13.5573 19.4815 13.5047 19.4815 13.4499V11.2214C19.4815 11.1666 19.5033 11.114 19.5421 11.0752C19.5809 11.0364 19.6334 11.0147 19.6883 11.0146H23.5479C23.6027 11.0147 23.6553 11.0364 23.6941 11.0752C23.7329 11.114 23.7546 11.1666 23.7547 11.2214V13.4499C23.7546 13.5047 23.7329 13.5573 23.6941 13.5961C23.6553 13.6348 23.6027 13.6566 23.5479 13.6567ZM19.895 13.2431H23.3411V11.4282H19.895V13.2431Z" fill="#404041"/>
<path d="M19.6883 15.4486C19.6335 15.4486 19.5809 15.4268 19.5421 15.388C19.5034 15.3493 19.4816 15.2967 19.4815 15.2419V13.1053C19.4815 12.9911 19.5742 12.8985 19.6883 12.8985C19.8025 12.8985 19.8951 12.9911 19.8951 13.1053V15.2419C19.8951 15.2967 19.8733 15.3493 19.8345 15.388C19.7957 15.4268 19.7432 15.4486 19.6883 15.4486ZM13.3165 17.1974C13.2221 17.1975 13.1299 17.1579 13.0761 17.0858C12.9931 16.9745 13.0332 16.8278 13.1657 16.758L13.6895 16.4822C13.8219 16.4124 13.9967 16.4461 14.0797 16.5574C14.1627 16.6687 14.1225 16.8154 13.9901 16.8852L13.4663 17.161C13.42 17.1851 13.3686 17.1976 13.3165 17.1974ZM11.9256 18.3843C11.8343 18.408 11.7351 18.3928 11.665 18.3365C11.5567 18.2496 11.5588 18.0975 11.6696 17.9967L12.1076 17.5985C12.2183 17.4978 12.3959 17.4865 12.5041 17.5735C12.6123 17.6604 12.6103 17.8125 12.4995 17.9133L12.0615 18.3115C12.0228 18.3464 11.9762 18.3714 11.9256 18.3843ZM23.5115 16.025C23.4431 15.955 23.4048 15.8588 23.4176 15.7684C23.4374 15.6288 23.5718 15.5559 23.7179 15.6055L24.2952 15.8016C24.4412 15.8511 24.5436 16.0044 24.5237 16.144C24.5039 16.2835 24.3694 16.3564 24.2234 16.3069L23.646 16.1108C23.5951 16.0932 23.549 16.0638 23.5115 16.025ZM25.3298 16.745C25.2787 16.6615 25.2627 16.5591 25.2953 16.4738C25.3456 16.3422 25.4929 16.301 25.6243 16.3818L26.1436 16.7013C26.2749 16.782 26.3407 16.9543 26.2903 17.086C26.2399 17.2176 26.0926 17.2588 25.9612 17.178L25.4419 16.8586C25.3962 16.83 25.3578 16.7911 25.3298 16.745Z" fill="#404041"/>
<path d="M14.9941 16.4122C16.3751 15.8471 17.9951 15.5209 19.7288 15.5209H19.7302C21.2615 15.5209 22.7036 15.7758 23.9706 16.2242V15.6901C22.7108 15.2656 21.3001 15.0253 19.8093 15.0165L19.3051 15.0236C17.0753 15.0904 15.0397 15.6764 13.4422 16.6182C13.2907 16.7076 13.4481 16.6052 13.3048 16.7009L13.9745 16.896C14.2971 16.72 14.6374 16.558 14.9941 16.4122ZM30.5641 20.7404L30.5599 20.7335C30.4071 20.5362 30.2171 20.3907 30.0098 20.3C29.8016 20.2076 29.5785 20.1689 29.353 20.1689C29.2924 20.1689 29.2313 20.1718 29.1709 20.1774C28.9253 19.4674 28.5207 18.8058 27.9893 18.2097C27.4159 17.566 26.6943 16.9992 25.8602 16.5276V17.1121C26.5457 17.5281 27.1375 18.0119 27.6128 18.5449C28.0873 19.0778 28.4458 19.6594 28.6691 20.2744C28.6205 20.2883 28.5722 20.3035 28.5244 20.3199C28.458 20.3423 28.3923 20.3671 28.3277 20.3943C28.3422 20.3037 28.3494 20.2113 28.3501 20.1207C28.3494 19.9466 28.3236 19.7751 28.258 19.619C28.2248 19.5414 28.1817 19.4665 28.1234 19.4001C28.0664 19.3345 27.9944 19.2776 27.9094 19.2395C27.908 19.2387 27.9058 19.238 27.9043 19.2373C27.8079 19.1934 27.7034 19.174 27.5983 19.174C27.4433 19.1747 27.2849 19.2135 27.1209 19.282C26.8746 19.3857 26.6103 19.5556 26.3266 19.7931C26.0429 20.0313 25.7399 20.3373 25.4231 20.7146C25.3496 20.7967 25.2777 20.8744 25.1998 20.9457C25.1884 20.9091 25.1718 20.8744 25.1524 20.8413C25.0797 20.7183 24.9644 20.6281 24.83 20.57C24.6944 20.5114 24.5381 20.4828 24.3618 20.4828C24.264 20.4828 24.1604 20.4913 24.0508 20.51C23.9212 20.5301 23.8037 20.5539 23.6908 20.5878C23.5209 20.6382 23.3646 20.7101 23.2026 20.8096C23.0516 20.9017 22.8946 21.0169 22.7 21.1667C22.6928 21.1244 22.6837 21.0823 22.6728 21.0407C22.6397 20.9118 22.5922 20.7959 22.5282 20.6951C22.4808 20.6206 22.4228 20.5535 22.356 20.4957C22.2575 20.4115 22.1424 20.3533 22.022 20.3179C21.9019 20.2835 21.7766 20.2698 21.6477 20.2698C21.3923 20.2705 21.1186 20.3216 20.8205 20.3935C20.375 20.5016 19.8759 20.6586 19.3403 20.7875C18.8044 20.9164 18.2336 21.0172 17.6518 21.0172C17.307 21.0172 16.9578 20.9818 16.6085 20.896L16.6078 20.8953C16.5064 20.8263 16.4106 20.7686 16.3141 20.719C16.209 20.6656 16.0993 20.6217 15.9864 20.5878C15.8734 20.554 15.7561 20.5301 15.6264 20.5093C15.6256 20.5093 15.6242 20.5093 15.6235 20.5085C15.5146 20.4905 15.4124 20.482 15.3153 20.482C15.0814 20.482 14.8798 20.5324 14.7206 20.6382C14.6415 20.6907 14.573 20.7585 14.5249 20.8406C14.5055 20.873 14.4898 20.9081 14.4775 20.9442C14.4004 20.8737 14.3284 20.7959 14.255 20.7139C14.2535 20.7119 14.2513 20.7104 14.2499 20.7082C13.8913 20.2822 13.5715 19.9984 13.277 19.8147C12.9818 19.6317 12.7062 19.5519 12.4592 19.5526C12.2706 19.5521 12.1035 19.5988 11.9653 19.6629C11.9638 19.6636 11.9623 19.6644 11.9608 19.6651C11.8602 19.7111 11.7745 19.7766 11.7003 19.8523C11.5873 19.9689 11.5016 20.1109 11.4412 20.2656C11.383 20.4159 11.3483 20.5796 11.3469 20.7457C11.2301 20.6944 11.1109 20.6488 10.9898 20.609C10.8964 20.578 10.8017 20.5509 10.7061 20.5276C10.8969 19.8888 11.2324 19.282 11.6924 18.7247C11.9152 18.4548 12.1683 18.1971 12.4469 17.9527L11.6697 17.9966C11.5257 18.143 11.4317 18.2496 11.3039 18.4044C10.7911 19.0251 10.4131 19.7135 10.2051 20.4471C10.1488 20.4435 10.0923 20.4417 10.0359 20.4415C9.80628 20.4415 9.58002 20.4761 9.36985 20.5603C9.16035 20.6446 8.96729 20.7813 8.81895 20.9729L8.81379 20.9801C8.706 21.1276 8.64901 21.3003 8.64973 21.4702C8.64973 21.5739 8.66916 21.6756 8.70448 21.7706C8.76643 21.9371 8.8715 22.0862 9.00541 22.2179C9.20554 22.4144 9.47127 22.5757 9.77876 22.6916C9.9177 22.7439 10.0658 22.7855 10.22 22.8163C10.1903 22.8979 10.1752 22.9841 10.1754 23.071C10.1754 23.156 10.1892 23.2373 10.2157 23.3137C10.0264 23.4348 9.86335 23.5927 9.73628 23.7781C9.55359 24.0458 9.44624 24.3727 9.44624 24.7219V24.9776C9.44624 25.3903 9.59582 25.7711 9.84291 26.062C9.94897 26.1868 10.0729 26.2952 10.2108 26.3837C10.0687 26.5325 9.98953 26.7304 9.98974 26.9361V27.8706C9.98951 28.0654 10.0277 28.2584 10.1023 28.4384C10.1768 28.6184 10.2861 28.7819 10.424 28.9196C10.5615 29.0576 10.725 29.1671 10.905 29.2418C11.085 29.3164 11.278 29.3547 11.4729 29.3545H24.1547V28.8505H11.4727C11.2013 28.8505 10.9587 28.741 10.7801 28.5631C10.6031 28.3854 10.4935 28.142 10.4935 27.8706V26.9361C10.4935 26.854 10.5259 26.7814 10.5799 26.7274C10.6352 26.6722 10.7099 26.6411 10.788 26.6408H13.0922V26.1381H11.0906C11.0753 26.1381 11.0603 26.1374 11.0451 26.1374C10.9998 26.1349 10.9546 26.1301 10.9098 26.1229H10.909C10.6391 26.0796 10.4002 25.9394 10.2273 25.7355C10.0544 25.5324 9.95002 25.269 9.95002 24.9782V24.7224C9.95002 24.4764 10.0249 24.2501 10.1531 24.063C10.2595 23.9069 10.4029 23.7786 10.5692 23.6922C10.6232 23.7116 10.6817 23.7231 10.7421 23.7231C13.4714 23.7354 16.0448 23.9024 18.2205 24.1976C19.3083 24.3453 20.2971 24.5246 21.1545 24.7311C22.0119 24.9376 22.739 25.1724 23.3007 25.4266C23.5446 25.5374 23.801 25.5914 24.0545 25.5914C24.3354 25.5914 24.6118 25.5259 24.8696 25.4029C25.1276 25.2796 25.3665 25.1003 25.576 24.8736C25.954 24.4632 26.4758 24.1844 27.0346 24.0059C27.5923 23.8273 28.1835 23.7494 28.6818 23.7286C28.7368 23.7262 28.7911 23.7147 28.8425 23.6947C29.0069 23.7831 29.1476 23.9098 29.2529 24.064C29.3796 24.2511 29.4538 24.4764 29.4538 24.722V24.9777C29.4538 25.2684 29.3493 25.532 29.1777 25.7355C29.0051 25.9392 28.7652 26.0796 28.4951 26.123H28.4945C28.4497 26.1303 28.4045 26.1352 28.3591 26.1374C28.3438 26.1374 28.329 26.1381 28.3136 26.1381H14.628V26.6409H28.6158C28.6938 26.6412 28.7686 26.6723 28.8238 26.7274C28.8514 26.7547 28.8732 26.7872 28.888 26.823C28.9029 26.8589 28.9104 26.8973 28.9102 26.9361V27.8706C28.9102 28.142 28.8007 28.3855 28.6228 28.5631C28.445 28.741 28.2016 28.8505 27.9303 28.8505H26.3753V29.3545H27.9303C28.1252 29.3548 28.3183 29.3165 28.4983 29.2419C28.6784 29.1672 28.8419 29.0577 28.9795 28.9196C29.1176 28.7821 29.2272 28.6186 29.3018 28.4386C29.3765 28.2586 29.4148 28.0655 29.4145 27.8706V26.9361C29.4144 26.7303 29.335 26.5324 29.1927 26.3837C29.3307 26.2952 29.4549 26.1868 29.5613 26.062C29.8089 25.7712 29.9579 25.3903 29.9579 24.9777V24.722C29.9583 24.3865 29.8579 24.0587 29.6699 23.7808C29.5435 23.5943 29.38 23.4357 29.1897 23.3149C29.2149 23.2399 29.2285 23.1595 29.2285 23.0767V23.071C29.2283 22.9963 29.217 22.9221 29.195 22.8508C29.5977 22.7909 29.9459 22.6221 30.2105 22.3947C30.377 22.2515 30.5109 22.0846 30.6051 21.9038C30.6987 21.7232 30.7528 21.528 30.7534 21.3294C30.7542 21.1247 30.6931 20.9174 30.5641 20.7404ZM30.1581 21.6712C30.065 21.8497 29.9003 22.0268 29.68 22.1565C29.4597 22.2868 29.1861 22.3704 28.8722 22.3711H26.5031V22.9227H28.6603L28.6639 22.9241C28.6706 22.9271 28.6863 22.9398 28.7 22.9659C28.7138 22.9911 28.7246 23.0285 28.7246 23.0709V23.0767C28.7246 23.1322 28.706 23.1783 28.6873 23.2021C28.6837 23.2072 28.6796 23.2119 28.675 23.216C28.6714 23.2193 28.6679 23.2216 28.6657 23.2231L28.665 23.2238L28.6613 23.2245C28.1271 23.2474 27.4963 23.329 26.8814 23.5254C26.2664 23.7226 25.6644 24.0349 25.2059 24.5311C25.0362 24.7153 24.8476 24.8543 24.6531 24.9472C24.4581 25.0399 24.2565 25.0869 24.0548 25.0869C23.8726 25.0869 23.6898 25.0486 23.5084 24.9665C22.9049 24.6937 22.1517 24.4525 21.2727 24.2407C19.9544 23.9227 18.3538 23.6722 16.5668 23.4986C14.7791 23.3245 12.8055 23.228 10.7441 23.2185L10.739 23.2171C10.7369 23.2159 10.735 23.2144 10.7333 23.2127C10.7208 23.2026 10.7108 23.1899 10.7038 23.1754C10.6894 23.1496 10.6793 23.1128 10.6793 23.0709V23.068C10.6793 23.0128 10.6987 22.9665 10.7173 22.9443C10.7267 22.9319 10.7353 22.9263 10.7389 22.9241L10.7434 22.9227H24.4125V22.3711H10.8111L10.803 22.3701C10.3356 22.3708 9.90063 22.2355 9.5983 22.0462C9.44652 21.9518 9.32913 21.8438 9.25494 21.7417C9.21834 21.6913 9.19155 21.6417 9.17515 21.5963C9.15843 21.5501 9.15135 21.5091 9.15135 21.4702C9.15207 21.4091 9.16727 21.3521 9.21466 21.2824C9.21546 21.2816 9.21546 21.2816 9.21546 21.2809C9.30777 21.1627 9.42 21.0837 9.55534 21.0282C9.69217 20.9726 9.85423 20.9454 10.0335 20.9454C10.1379 20.9454 10.2489 20.9547 10.3619 20.9726C10.5147 20.9965 10.6731 21.036 10.83 21.0879C11.1029 21.1779 11.3728 21.3054 11.6083 21.4486C11.6581 21.479 11.7169 21.4911 11.7747 21.483C11.8325 21.4748 11.8857 21.4469 11.9251 21.4039C11.9646 21.3607 11.9878 21.3051 11.9908 21.2466C11.9938 21.1882 11.9764 21.1305 11.9416 21.0834C11.9102 21.0401 11.8866 20.9916 11.8718 20.9402C11.8558 20.8854 11.848 20.8251 11.848 20.7617C11.8473 20.6249 11.8875 20.4739 11.9524 20.3542C11.9841 20.2943 12.0217 20.2425 12.0597 20.2037C12.098 20.1642 12.1361 20.1384 12.1678 20.1239L12.173 20.1216C12.2579 20.0821 12.3486 20.0568 12.4573 20.0568C12.5971 20.0568 12.7749 20.0985 13.0097 20.2432C13.2445 20.3886 13.5311 20.6376 13.8666 21.038L13.8717 21.0436C13.9928 21.1792 14.1282 21.326 14.3075 21.4591C14.4853 21.5923 14.7063 21.709 14.9843 21.7853C15.0446 21.8021 15.1088 21.7958 15.1647 21.7677C15.2205 21.7397 15.264 21.6918 15.2865 21.6336C15.309 21.5753 15.3091 21.5107 15.2867 21.4523C15.2642 21.394 15.2209 21.3461 15.1651 21.318C15.0715 21.2705 15.0131 21.22 14.9843 21.1826C14.9541 21.1436 14.9526 21.1227 14.9519 21.1148C14.9524 21.1085 14.9524 21.1055 14.9575 21.0969C14.9649 21.0846 14.9887 21.0566 15.0469 21.0313C15.1047 21.006 15.1946 20.9852 15.3141 20.9859C15.3812 20.9859 15.4568 20.9916 15.5403 21.006L15.544 21.0068C15.6607 21.0247 15.7564 21.0456 15.8415 21.0708C15.9697 21.109 16.077 21.1581 16.2116 21.2394C16.2634 21.2712 16.3141 21.3048 16.3636 21.3401C16.3651 21.3408 16.3673 21.3415 16.3688 21.343C16.466 21.4108 16.577 21.4943 16.7094 21.5972C16.7109 21.5987 16.7124 21.5994 16.7138 21.6002C16.9118 21.7603 17.1225 21.904 17.3438 22.03C17.3724 22.0464 17.4041 22.057 17.4369 22.0612C17.4697 22.0655 17.503 22.0631 17.5349 22.0545C17.5667 22.0458 17.5966 22.0309 17.6227 22.0106C17.6489 21.9903 17.6707 21.9651 17.6871 21.9364C17.7563 21.8155 17.7146 21.6613 17.5935 21.5923C17.5511 21.568 17.5091 21.543 17.4675 21.5174C17.5289 21.5203 17.5901 21.5211 17.6513 21.5211C18.5037 21.5203 19.3044 21.3266 19.9948 21.1379C20.3404 21.0443 20.6586 20.9516 20.9386 20.883C21.2188 20.8145 21.4622 20.7727 21.6472 20.7734C21.7582 20.7734 21.8466 20.7877 21.9129 20.8122C21.9632 20.8309 22.002 20.8547 22.0367 20.8864C22.0885 20.9338 22.1354 21.0036 22.1728 21.1246C22.2025 21.2204 22.2233 21.3456 22.2304 21.5041C22.1703 21.5415 22.1093 21.5775 22.0475 21.6122C21.9265 21.6797 21.8825 21.8337 21.9502 21.9548C22.0185 22.0766 22.172 22.1205 22.2936 22.052C22.4022 21.9913 22.5084 21.9264 22.612 21.8575C22.6212 21.8518 22.6299 21.846 22.6385 21.8396C22.7502 21.7645 22.8585 21.6845 22.9632 21.5998C22.9646 21.5992 22.9654 21.5977 22.9668 21.597C23.2448 21.3803 23.4313 21.2498 23.5919 21.1679C23.6697 21.1282 23.7509 21.0957 23.8345 21.0706C23.9203 21.0453 24.0152 21.0252 24.1326 21.0066L24.1356 21.0058C24.2103 20.9927 24.286 20.9859 24.3618 20.9856C24.5224 20.9849 24.6276 21.023 24.6772 21.0568C24.7017 21.0733 24.713 21.0877 24.7182 21.0963C24.7231 21.1057 24.7238 21.1087 24.7238 21.1143C24.7238 21.1224 24.7216 21.1433 24.6922 21.1821C24.6627 21.2194 24.6049 21.27 24.5106 21.3174C24.3955 21.3756 24.3429 21.5132 24.3891 21.6335C24.4358 21.7538 24.5676 21.8201 24.6922 21.7855C24.9701 21.7085 25.1904 21.5918 25.3691 21.4587C25.5476 21.3253 25.6836 21.1784 25.8039 21.0431L25.8091 21.0375C26.2102 20.5596 26.5825 20.2103 26.8964 19.9877C27.0533 19.8763 27.195 19.7962 27.3147 19.7459C27.4349 19.6955 27.5327 19.6769 27.5983 19.6769C27.6446 19.6769 27.6747 19.6847 27.6956 19.6948L27.7 19.697C27.7145 19.7037 27.7283 19.713 27.7447 19.7316C27.7682 19.7582 27.7958 19.8072 27.8152 19.8755C27.8346 19.9433 27.8461 20.0291 27.8461 20.1197C27.8461 20.2349 27.8282 20.3594 27.795 20.4731C27.7619 20.5871 27.7137 20.6899 27.659 20.7627C27.6245 20.8098 27.6072 20.8675 27.6102 20.9259C27.6132 20.9843 27.6363 21.0398 27.6755 21.0832C27.7568 21.1719 27.8901 21.1905 27.993 21.1279C28.2178 20.9906 28.4553 20.8758 28.6878 20.7961C28.9204 20.7163 29.1479 20.673 29.3524 20.673C29.5202 20.673 29.6721 20.702 29.8053 20.761C29.9371 20.8194 30.0531 20.9056 30.156 21.036L30.1575 21.0375C30.2201 21.1259 30.2489 21.221 30.2496 21.329C30.2495 21.4344 30.22 21.5523 30.1581 21.6712Z" fill="#404041"/>
<path d="M15.9988 19.7677H15.3785C15.3124 19.7663 15.2495 19.739 15.2033 19.6918C15.1571 19.6445 15.1312 19.5811 15.1312 19.515C15.1312 19.4489 15.1571 19.3854 15.2033 19.3382C15.2495 19.291 15.3124 19.2637 15.3785 19.2623H15.9988C16.0658 19.2623 16.1301 19.2889 16.1775 19.3363C16.2249 19.3837 16.2515 19.448 16.2515 19.515C16.2515 19.582 16.2249 19.6463 16.1775 19.6937C16.1301 19.7411 16.0658 19.7677 15.9988 19.7677ZM17.4002 17.0326H16.7799C16.7138 17.0312 16.6509 17.0039 16.6047 16.9567C16.5585 16.9095 16.5326 16.846 16.5326 16.7799C16.5326 16.7138 16.5585 16.6504 16.6047 16.6032C16.6509 16.5559 16.7138 16.5287 16.7799 16.5272H17.4002C17.4662 16.5287 17.5291 16.5559 17.5753 16.6032C17.6216 16.6504 17.6474 16.7138 17.6474 16.7799C17.6474 16.846 17.6216 16.9095 17.5753 16.9567C17.5291 17.0039 17.4662 17.0312 17.4002 17.0326ZM22.9828 18.2077H22.3625C22.296 18.2069 22.2326 18.1799 22.1858 18.1326C22.1391 18.0853 22.1129 18.0215 22.1129 17.955C22.1129 17.8885 22.1391 17.8247 22.1858 17.7774C22.2326 17.7301 22.296 17.7031 22.3625 17.7023H22.9828C23.0489 17.7037 23.1117 17.731 23.1579 17.7782C23.2042 17.8255 23.23 17.8889 23.23 17.955C23.23 18.0211 23.2042 18.0845 23.1579 18.1318C23.1117 18.179 23.0489 18.2063 22.9828 18.2077ZM18.3995 18.3433H17.7792C17.713 18.3421 17.6499 18.315 17.6034 18.2677C17.557 18.2204 17.531 18.1568 17.531 18.0906C17.531 18.0243 17.557 17.9607 17.6034 17.9134C17.6499 17.8662 17.713 17.839 17.7792 17.8378H18.3995C18.4658 17.839 18.5289 17.8662 18.5754 17.9134C18.6218 17.9607 18.6478 18.0243 18.6478 18.0906C18.6478 18.1568 18.6218 18.2204 18.5754 18.2677C18.5289 18.315 18.4658 18.3421 18.3995 18.3433ZM19.8976 19.7677H19.2773C19.2112 19.7663 19.1483 19.739 19.1021 19.6918C19.0559 19.6445 19.03 19.5811 19.03 19.515C19.03 19.4489 19.0559 19.3854 19.1021 19.3382C19.1483 19.291 19.2112 19.2637 19.2773 19.2623H19.8976C19.9646 19.2623 20.0289 19.2889 20.0763 19.3363C20.1237 19.3837 20.1503 19.448 20.1503 19.515C20.1503 19.582 20.1237 19.6463 20.0763 19.6937C20.0289 19.7411 19.9646 19.7677 19.8976 19.7677ZM21.053 16.6986H20.4327C20.3665 16.6975 20.3033 16.6703 20.2569 16.623C20.2105 16.5758 20.1844 16.5122 20.1844 16.4459C20.1844 16.3796 20.2105 16.316 20.2569 16.2688C20.3033 16.2215 20.3665 16.1944 20.4327 16.1932H21.053C21.12 16.1932 21.1843 16.2198 21.2317 16.2672C21.2791 16.3146 21.3057 16.3789 21.3057 16.4459C21.3057 16.5129 21.2791 16.5772 21.2317 16.6246C21.1843 16.672 21.12 16.6986 21.053 16.6986ZM25.441 19.469H24.8207C24.7544 19.4679 24.6913 19.4407 24.6449 19.3935C24.5984 19.3462 24.5724 19.2826 24.5724 19.2163C24.5724 19.1501 24.5984 19.0864 24.6449 19.0392C24.6913 18.9919 24.7544 18.9648 24.8207 18.9636H25.441C25.508 18.9636 25.5723 18.9902 25.6197 19.0376C25.6671 19.085 25.6937 19.1493 25.6937 19.2163C25.6937 19.2833 25.6671 19.3476 25.6197 19.395C25.5723 19.4424 25.508 19.469 25.441 19.469ZM13.8908 18.3433H13.2705C13.2043 18.3421 13.1412 18.315 13.0947 18.2677C13.0483 18.2204 13.0223 18.1568 13.0223 18.0906C13.0223 18.0243 13.0483 17.9607 13.0947 17.9134C13.1412 17.8662 13.2043 17.839 13.2705 17.8378H13.8908C13.9579 17.8378 14.0222 17.8645 14.0695 17.9119C14.1169 17.9593 14.1436 18.0235 14.1436 18.0906C14.1436 18.1576 14.1169 18.2219 14.0695 18.2693C14.0222 18.3167 13.9579 18.3433 13.8908 18.3433ZM11.7536 24.5845H9.82646C9.77162 24.5845 9.71904 24.5627 9.68027 24.5239C9.64149 24.4851 9.6197 24.4325 9.61968 24.3777C9.6197 24.3229 9.64149 24.2703 9.68027 24.2315C9.71904 24.1927 9.77162 24.1709 9.82646 24.1709H11.7536C11.8085 24.1709 11.8611 24.1927 11.8998 24.2315C11.9386 24.2703 11.9604 24.3229 11.9604 24.3777C11.9604 24.4325 11.9386 24.4851 11.8998 24.5239C11.8611 24.5627 11.8085 24.5845 11.7536 24.5845ZM9.92872 25.4011C9.60556 25.4011 9.58384 25.373 9.53629 25.2725C9.51959 25.2372 9.51324 25.1979 9.51795 25.1592C9.52266 25.1204 9.53825 25.0838 9.56292 25.0535C9.58759 25.0232 9.62032 25.0006 9.65733 24.9881C9.69434 24.9757 9.73412 24.974 9.77206 24.9832C9.85317 24.988 10.1815 24.9842 10.457 24.9774C10.5736 24.9739 10.666 25.0648 10.6688 25.179C10.6695 25.2061 10.6648 25.2331 10.655 25.2585C10.6453 25.2838 10.6306 25.307 10.6119 25.3267C10.5932 25.3463 10.5707 25.3621 10.5459 25.3731C10.5211 25.3841 10.4943 25.3901 10.4672 25.3907C10.2283 25.3968 10.0553 25.4011 9.92872 25.4011ZM11.3657 27.617H10.3684C10.3136 27.617 10.261 27.5952 10.2222 27.5564C10.1834 27.5177 10.1616 27.4651 10.1616 27.4102C10.1616 27.3554 10.1834 27.3028 10.2222 27.2641C10.261 27.2253 10.3136 27.2035 10.3684 27.2035H11.3657C11.4205 27.2035 11.4731 27.2253 11.5119 27.2641C11.5506 27.3028 11.5724 27.3554 11.5725 27.4102C11.5724 27.4651 11.5506 27.5177 11.5119 27.5564C11.4731 27.5952 11.4205 27.617 11.3657 27.617ZM12.6829 28.4982H10.5883C10.5335 28.4982 10.4809 28.4764 10.4421 28.4376C10.4034 28.3988 10.3816 28.3463 10.3816 28.2914C10.3816 28.2366 10.4034 28.184 10.4421 28.1452C10.4809 28.1065 10.5335 28.0847 10.5883 28.0846H12.6829C12.7377 28.0847 12.7903 28.1065 12.8291 28.1452C12.8679 28.184 12.8897 28.2366 12.8897 28.2914C12.8897 28.3463 12.8679 28.3988 12.8291 28.4376C12.7903 28.4764 12.7377 28.4982 12.6829 28.4982ZM10.3684 21.7128H8.87688C8.82205 21.7127 8.76947 21.6909 8.73069 21.6522C8.69192 21.6134 8.67013 21.5608 8.6701 21.506C8.67013 21.4511 8.69192 21.3986 8.73069 21.3598C8.76947 21.321 8.82205 21.2992 8.87688 21.2992H10.3684C10.4232 21.2992 10.4758 21.321 10.5146 21.3598C10.5534 21.3986 10.5752 21.4511 10.5752 21.506C10.5752 21.5608 10.5534 21.6134 10.5146 21.6522C10.4758 21.6909 10.4232 21.7127 10.3684 21.7128ZM13.0328 19.0933H11.2125C11.0984 19.0933 11.0057 19.0007 11.0057 18.8865C11.0057 18.7724 11.0984 18.6797 11.2125 18.6797H13.0328C13.147 18.6797 13.2396 18.7724 13.2396 18.8865C13.2396 19.0007 13.147 19.0933 13.0328 19.0933ZM15.3785 16.9488H13.76C13.6458 16.9488 13.5532 16.8562 13.5532 16.742C13.5532 16.6279 13.6458 16.5353 13.76 16.5353H15.3785C15.4926 16.5353 15.5853 16.6279 15.5853 16.742C15.5853 16.8562 15.4926 16.9488 15.3785 16.9488ZM13.76 22.0421H12.584C12.5292 22.0421 12.4766 22.0203 12.4378 21.9815C12.399 21.9427 12.3772 21.8901 12.3772 21.8353C12.3772 21.7805 12.399 21.7279 12.4378 21.6891C12.4766 21.6503 12.5292 21.6285 12.584 21.6285H13.76C13.8141 21.6296 13.8657 21.6518 13.9036 21.6905C13.9415 21.7292 13.9627 21.7812 13.9627 21.8353C13.9627 21.8895 13.9415 21.9414 13.9036 21.9801C13.8657 22.0188 13.8141 22.041 13.76 22.0421ZM16.3893 25.3949H13.5779C13.5231 25.3949 13.4705 25.3731 13.4317 25.3344C13.393 25.2956 13.3712 25.243 13.3711 25.1882C13.3712 25.1333 13.393 25.0808 13.4317 25.042C13.4705 25.0032 13.5231 24.9814 13.5779 24.9814H16.3893C16.4442 24.9814 16.4967 25.0032 16.5355 25.042C16.5743 25.0808 16.5961 25.1333 16.5961 25.1882C16.5961 25.243 16.5743 25.2956 16.5355 25.3344C16.4967 25.3731 16.4442 25.3949 16.3893 25.3949ZM15.9988 27.965H14.5692C14.5143 27.965 14.4617 27.9432 14.423 27.9044C14.3842 27.8657 14.3624 27.8131 14.3624 27.7582C14.3624 27.7034 14.3842 27.6508 14.423 27.6121C14.4617 27.5733 14.5143 27.5515 14.5692 27.5515H15.9988C16.0529 27.5525 16.1045 27.5748 16.1424 27.6134C16.1803 27.6521 16.2015 27.7041 16.2015 27.7582C16.2015 27.8124 16.1803 27.8644 16.1424 27.903C16.1045 27.9417 16.0529 27.964 15.9988 27.965Z" fill="#404041"/>
</svg>
