<svg width="35" height="35" viewBox="0 0 35 35" fill="none" xmlns="http://www.w3.org/2000/svg">
<path d="M9.85339 12.9937L17.3899 34.0654L26.1414 13.4687L9.85339 12.9937Z" fill="#F1C84F"/>
<path d="M24.7281 13.9842L16.9432 32.8276L17.5857 34.5295L25.8903 13.9979L24.7281 13.9842Z" fill="#F0841B"/>
<path d="M21.0895 25.2622C21.0613 25.2622 21.0335 25.2553 21.0086 25.2421C20.9837 25.2289 20.9623 25.2098 20.9464 25.1866C20.9305 25.1633 20.9205 25.1364 20.9173 25.1084C20.9141 25.0804 20.9178 25.052 20.928 25.0257L25.9593 12.1546H8.84349L10.875 17.3517C10.8904 17.3943 10.8886 17.4411 10.8699 17.4824C10.8513 17.5236 10.8172 17.5559 10.7751 17.5724C10.7329 17.5888 10.686 17.5882 10.6443 17.5705C10.6027 17.5529 10.5695 17.5196 10.552 17.4779L8.33569 11.8078H26.4671L21.2509 25.152C21.2383 25.1845 21.2161 25.2124 21.1872 25.232C21.1584 25.2517 21.1244 25.2622 21.0895 25.2622ZM20.269 27.3611C20.2408 27.3611 20.213 27.3542 20.1881 27.341C20.1632 27.3278 20.1418 27.3088 20.1259 27.2855C20.11 27.2622 20.1 27.2354 20.0968 27.2073C20.0937 27.1793 20.0974 27.1509 20.1076 27.1246L20.5478 25.9987C20.5646 25.9559 20.5976 25.9216 20.6397 25.9031C20.6818 25.8846 20.7295 25.8836 20.7723 25.9003C20.7935 25.9085 20.8129 25.9209 20.8293 25.9367C20.8457 25.9525 20.8589 25.9713 20.868 25.9922C20.8772 26.013 20.8821 26.0355 20.8825 26.0583C20.883 26.081 20.879 26.1037 20.8707 26.1249L20.4306 27.2508C20.4179 27.2833 20.3957 27.3112 20.3668 27.3309C20.338 27.3506 20.3039 27.3611 20.269 27.3611ZM17.4014 35L12.1769 21.6348C12.1687 21.6136 12.1646 21.591 12.1651 21.5682C12.1655 21.5455 12.1705 21.523 12.1796 21.5022C12.1887 21.4813 12.2019 21.4625 12.2183 21.4467C12.2347 21.4309 12.2541 21.4186 12.2753 21.4103C12.2965 21.402 12.3192 21.3979 12.3419 21.3984C12.3647 21.3989 12.3871 21.4038 12.408 21.4129C12.4289 21.4221 12.4477 21.4352 12.4635 21.4517C12.4792 21.4681 12.4916 21.4874 12.4999 21.5087L17.4014 34.0476L19.6778 28.2245C19.7127 28.1352 19.8132 28.0916 19.9024 28.126C19.9452 28.1428 19.9796 28.1759 19.998 28.218C20.0165 28.2601 20.0175 28.3078 20.0007 28.3506L17.4014 35ZM11.8329 20.4519C11.798 20.4519 11.764 20.4413 11.7351 20.4217C11.7063 20.402 11.6841 20.3741 11.6714 20.3416L11.1036 18.8889C11.0953 18.8677 11.0912 18.8451 11.0917 18.8223C11.0921 18.7996 11.0971 18.7771 11.1062 18.7563C11.1153 18.7354 11.1285 18.7166 11.1449 18.7008C11.1614 18.685 11.1807 18.6726 11.2019 18.6644C11.2231 18.6561 11.2458 18.652 11.2685 18.6525C11.2913 18.6529 11.3138 18.6579 11.3346 18.667C11.3555 18.6761 11.3743 18.6893 11.3901 18.7057C11.4058 18.7222 11.4182 18.7415 11.4265 18.7627L11.9943 20.2154C12.0046 20.2417 12.0083 20.27 12.0051 20.2981C12.0019 20.3261 11.992 20.3529 11.9761 20.3762C11.9602 20.3995 11.9388 20.4186 11.9139 20.4318C11.8889 20.445 11.8611 20.4519 11.8329 20.4519Z" fill="black"/>
<path d="M10.6981 6.11711C10.698 6.88723 10.8838 7.64982 11.2448 8.36134C11.6059 9.07285 12.1351 9.71936 12.8023 10.2639C13.4695 10.8085 14.2616 11.2405 15.1333 11.5352C16.0051 11.8299 16.9394 11.9816 17.883 11.9816C18.8265 11.9816 19.7609 11.8299 20.6326 11.5352C21.5044 11.2405 22.2964 10.8085 22.9636 10.2639C23.6308 9.71936 24.16 9.07285 24.5211 8.36134C24.8821 7.64982 25.0679 6.88723 25.0679 6.11711C25.0679 5.34699 24.8821 4.5844 24.5211 3.87288C24.16 3.16137 23.6308 2.51486 22.9636 1.97028C22.2964 1.42571 21.5044 0.993723 20.6326 0.698998C19.7609 0.404272 18.8265 0.252579 17.883 0.252579C16.9394 0.252579 16.0051 0.404272 15.1333 0.698998C14.2616 0.993723 13.4695 1.42571 12.8023 1.97028C12.1351 2.51486 11.6059 3.16137 11.2448 3.87288C10.8838 4.5844 10.698 5.34699 10.6981 6.11711Z" fill="#EC7699"/>
<path d="M18.3544 0.252907C18.113 0.252907 17.8747 0.263964 17.6398 0.284827C21.1013 0.60919 23.8068 3.41058 23.8068 6.81909C23.8068 8.35386 23.2568 9.76442 22.3378 10.8824C24.0665 9.81818 25.1937 8.08103 25.1937 6.11707C25.1937 2.87836 22.1316 0.252907 18.3544 0.252907Z" fill="#D8476D"/>
<path d="M11.3677 2.86465C11.3341 2.8646 11.3012 2.85478 11.2731 2.83639C11.245 2.818 11.2228 2.79183 11.2092 2.76106C11.1957 2.73029 11.1914 2.69625 11.1968 2.66308C11.2023 2.6299 11.2172 2.59902 11.2399 2.5742C11.6156 2.16388 12.0471 1.7908 12.5221 1.46538C12.5601 1.43945 12.6068 1.42964 12.6519 1.43809C12.6971 1.44654 12.7371 1.47257 12.7631 1.51047C12.7891 1.54841 12.7989 1.59512 12.7905 1.64031C12.782 1.68551 12.756 1.7255 12.718 1.75149C12.2648 2.06187 11.8535 2.41745 11.4956 2.80839C11.4794 2.82615 11.4597 2.84032 11.4376 2.85001C11.4156 2.8597 11.3918 2.86469 11.3677 2.86465Z" fill="#040000"/>
<path d="M17.4013 13.494C13.0784 13.494 9.56146 10.4675 9.56146 6.74728C9.56146 5.75649 9.80518 4.802 10.2859 3.91029C10.3082 3.87063 10.3451 3.84131 10.3888 3.82863C10.4325 3.81596 10.4794 3.82096 10.5194 3.84255C10.5595 3.86414 10.5894 3.9006 10.6028 3.94406C10.6162 3.98752 10.612 4.03451 10.5911 4.0749C10.1379 4.91542 9.90817 5.81455 9.90817 6.74728C9.90817 10.2762 13.2696 13.1473 17.4013 13.1473C21.533 13.1473 24.8946 10.2762 24.8946 6.74728C24.8946 3.21828 21.5331 0.347223 17.4013 0.347223C16.2044 0.347223 15.0606 0.581138 14.0018 1.04252C13.981 1.05163 13.9585 1.05654 13.9357 1.05696C13.913 1.05738 13.8904 1.05331 13.8692 1.04498C13.848 1.03666 13.8286 1.02423 13.8123 1.00842C13.7959 0.992616 13.7828 0.973732 13.7737 0.952854C13.7646 0.931988 13.7597 0.909534 13.7593 0.886774C13.7589 0.864014 13.7629 0.841395 13.7713 0.82021C13.7796 0.799024 13.792 0.779687 13.8078 0.763302C13.8236 0.746918 13.8425 0.733808 13.8634 0.724722C14.966 0.244194 16.1564 0.000511169 17.4013 0.000511169C21.7242 0.000511169 25.2413 3.02711 25.2413 6.74732C25.2412 10.4675 21.7242 13.494 17.4013 13.494Z" fill="#040000"/>
<path d="M17.4014 2.34853C17.4014 2.42027 17.4299 2.48907 17.4806 2.5398C17.5313 2.59052 17.6001 2.61902 17.6719 2.61902C17.7436 2.61902 17.8124 2.59052 17.8631 2.5398C17.9138 2.48907 17.9423 2.42027 17.9423 2.34853C17.9423 2.2768 17.9138 2.208 17.8631 2.15727C17.8124 2.10655 17.7436 2.07805 17.6719 2.07805C17.6001 2.07805 17.5313 2.10655 17.4806 2.15727C17.4299 2.208 17.4014 2.2768 17.4014 2.34853Z" fill="#E5C569"/>
<path d="M18.2286 1.8076C18.2286 1.84312 18.2356 1.87828 18.2492 1.9111C18.2628 1.94391 18.2827 1.97372 18.3078 1.99884C18.3329 2.02395 18.3627 2.04387 18.3955 2.05746C18.4283 2.07105 18.4635 2.07805 18.499 2.07805C18.5345 2.07805 18.5697 2.07105 18.6025 2.05746C18.6353 2.04387 18.6651 2.02395 18.6903 1.99884C18.7154 1.97372 18.7353 1.94391 18.7489 1.9111C18.7625 1.87828 18.7695 1.84312 18.7695 1.8076C18.7695 1.77209 18.7625 1.73692 18.7489 1.70411C18.7353 1.67129 18.7154 1.64148 18.6903 1.61637C18.6651 1.59125 18.6353 1.57133 18.6025 1.55774C18.5697 1.54415 18.5345 1.53716 18.499 1.53716C18.4635 1.53716 18.4283 1.54415 18.3955 1.55774C18.3627 1.57133 18.3329 1.59125 18.3078 1.61637C18.2827 1.64148 18.2628 1.67129 18.2492 1.70411C18.2356 1.73692 18.2286 1.77209 18.2286 1.8076Z" fill="#E5C569"/>
<path d="M18.2286 2.88942C18.2286 2.92493 18.2356 2.9601 18.2492 2.99291C18.2628 3.02573 18.2827 3.05554 18.3078 3.08065C18.3329 3.10577 18.3627 3.12569 18.3955 3.13928C18.4283 3.15287 18.4635 3.15986 18.499 3.15986C18.5345 3.15986 18.5697 3.15287 18.6025 3.13928C18.6353 3.12569 18.6651 3.10577 18.6903 3.08065C18.7154 3.05554 18.7353 3.02573 18.7489 2.99291C18.7625 2.9601 18.7695 2.92493 18.7695 2.88942C18.7695 2.8539 18.7625 2.81874 18.7489 2.78592C18.7353 2.75311 18.7154 2.7233 18.6903 2.69818C18.6651 2.67307 18.6353 2.65315 18.6025 2.63956C18.5697 2.62597 18.5345 2.61897 18.499 2.61897C18.4635 2.61897 18.4283 2.62597 18.3955 2.63956C18.3627 2.65315 18.3329 2.67307 18.3078 2.69818C18.2827 2.7233 18.2628 2.75311 18.2492 2.78592C18.2356 2.81874 18.2286 2.8539 18.2286 2.88942Z" fill="#E5C569"/>
<path d="M19.6753 2.07805C19.6741 2.14899 19.6451 2.21662 19.5945 2.26636C19.5439 2.3161 19.4758 2.34397 19.4048 2.34397C19.3339 2.34397 19.2658 2.3161 19.2152 2.26636C19.1646 2.21662 19.1355 2.14899 19.1343 2.07805C19.1355 2.00711 19.1646 1.93948 19.2152 1.88973C19.2658 1.83999 19.3339 1.81212 19.4048 1.81212C19.4758 1.81212 19.5439 1.83999 19.5945 1.88973C19.6451 1.93948 19.6741 2.00711 19.6753 2.07805Z" fill="#E5C569"/>
<path d="M15.9877 3.17338C15.9877 3.26744 16.0251 3.35765 16.0916 3.42415C16.1581 3.49066 16.2483 3.52803 16.3424 3.52803C16.4364 3.52803 16.5266 3.49066 16.5931 3.42415C16.6597 3.35765 16.697 3.26744 16.697 3.17338C16.697 3.07933 16.6597 2.98912 16.5931 2.92261C16.5266 2.85611 16.4364 2.81874 16.3424 2.81874C16.2483 2.81874 16.1581 2.85611 16.0916 2.92261C16.0251 2.98912 15.9877 3.07933 15.9877 3.17338Z" fill="#E5C569"/>
<path d="M19.6753 3.8888C19.6753 3.94231 19.6595 3.99462 19.6297 4.03912C19.6 4.08361 19.5578 4.11829 19.5083 4.13877C19.4589 4.15925 19.4045 4.16461 19.352 4.15417C19.2995 4.14373 19.2513 4.11796 19.2135 4.08012C19.1757 4.04228 19.1499 3.99407 19.1395 3.94158C19.129 3.8891 19.1344 3.8347 19.1549 3.78527C19.1754 3.73584 19.2101 3.69359 19.2546 3.66387C19.2991 3.63416 19.3514 3.6183 19.4049 3.61832C19.5542 3.61832 19.6753 3.73944 19.6753 3.8888Z" fill="#E5C569"/>
<path d="M17.4014 1.53716C17.4014 1.60889 17.4299 1.67769 17.4806 1.72842C17.5313 1.77914 17.6001 1.80764 17.6719 1.80764C17.7436 1.80764 17.8124 1.77914 17.8631 1.72842C17.9138 1.67769 17.9423 1.60889 17.9423 1.53716C17.9423 1.46542 17.9138 1.39662 17.8631 1.34589C17.8124 1.29517 17.7436 1.26667 17.6719 1.26667C17.6001 1.26667 17.5313 1.29517 17.4806 1.34589C17.4299 1.39662 17.4014 1.46542 17.4014 1.53716Z" fill="#E5C569"/>
<path d="M19.6753 2.88942C19.6753 2.94293 19.6595 2.99524 19.6297 3.03973C19.6 3.08423 19.5578 3.11891 19.5083 3.13939C19.4589 3.15987 19.4045 3.16522 19.352 3.15478C19.2995 3.14434 19.2513 3.11857 19.2135 3.08073C19.1757 3.04289 19.1499 2.99468 19.1395 2.9422C19.129 2.88972 19.1344 2.83532 19.1549 2.78589C19.1754 2.73646 19.2101 2.69421 19.2546 2.66449C19.2991 2.63477 19.3514 2.61892 19.4049 2.61893C19.5542 2.61893 19.6753 2.74005 19.6753 2.88942Z" fill="#E5C569"/>
<path d="M20.1932 2.88942C20.1932 2.96116 20.2217 3.02996 20.2725 3.08068C20.3232 3.13141 20.392 3.1599 20.4637 3.1599C20.5355 3.1599 20.6043 3.13141 20.655 3.08068C20.7057 3.02996 20.7342 2.96116 20.7342 2.88942C20.7342 2.81768 20.7057 2.74888 20.655 2.69816C20.6043 2.64743 20.5355 2.61893 20.4637 2.61893C20.392 2.61893 20.3232 2.64743 20.2725 2.69816C20.2217 2.74888 20.1932 2.81768 20.1932 2.88942Z" fill="#E5C569"/>
<path d="M20.4637 4.15929C20.4637 4.23103 20.4922 4.29983 20.5429 4.35056C20.5936 4.40128 20.6624 4.42978 20.7342 4.42978C20.8059 4.42978 20.8747 4.40128 20.9254 4.35056C20.9762 4.29983 21.0047 4.23103 21.0047 4.15929C21.0047 4.08756 20.9762 4.01876 20.9254 3.96803C20.8747 3.91731 20.8059 3.88881 20.7342 3.88881C20.6624 3.88881 20.5936 3.91731 20.5429 3.96803C20.4922 4.01876 20.4637 4.08756 20.4637 4.15929Z" fill="#E5C569"/>
<path d="M15.0934 15.5523L14.8704 15.2858L13.8237 16.2978L14.0467 16.5644L15.0934 15.5523ZM15.3433 15.3107L16.9943 13.7144L16.9897 13.7089L16.5167 13.694L15.1203 15.0442L15.3433 15.3107ZM13.5738 16.5394L11.7385 18.314L11.8599 18.6788L13.7969 16.806L13.5738 16.5394ZM16.2415 19.7276L16.0184 19.461L13.9234 21.4867L14.1465 21.7532L16.2415 19.7276ZM17.788 18.2323L19.439 16.6361L19.2159 16.3694L17.5649 17.9657L17.788 18.2323ZM16.4914 19.486L17.5381 18.474L17.315 18.2074L16.2683 19.2194L16.4914 19.486ZM13.6735 21.7282L13.0689 22.3128L13.1903 22.6777L13.8966 21.9948L13.6735 21.7282ZM21.7786 14.3739L21.5555 14.1073L20.6915 14.9427L20.9146 15.2093L21.7786 14.3739ZM20.6647 15.4509L20.4416 15.1843L19.4658 16.1278L19.6889 16.3944L20.6647 15.4509ZM22.0285 14.1323L22.2944 13.8752L21.8112 13.86L21.8054 13.8657L22.0285 14.1323ZM18.3608 21.7201L19.4075 20.7081L19.1845 20.4416L18.1378 21.4536L18.3608 21.7201ZM17.8878 21.6952L15.7929 23.7208L16.0159 23.9873L18.1109 21.9618L17.8878 21.6952ZM24.8194 15.152L24.921 14.895L24.746 15.0643L24.8194 15.152ZM21.3353 18.362L21.5583 18.6285L22.5341 17.685L22.3111 17.4185L21.3353 18.362ZM23.6748 16.0999L23.8978 16.3665L24.6125 15.6754L24.6743 15.519L24.496 15.3059L23.6748 16.0999ZM22.5609 17.1769L22.784 17.4434L23.6479 16.608L23.4249 16.3415L22.5609 17.1769ZM19.4344 20.1999L19.6574 20.4664L21.3083 18.8702L21.0853 18.6036L19.4344 20.1999ZM15.543 23.9625L14.0864 25.3708L14.2078 25.7356L15.766 24.229L15.543 23.9625ZM19.9592 23.6304L20.1823 23.897L21.229 22.885L21.0059 22.6184L19.9592 23.6304ZM17.5875 26.4059L17.3644 26.1393L15.6425 27.8042L15.8656 28.0708L17.5875 26.4059ZM21.4789 22.6433L22.093 22.0495L22.4016 21.2689L21.2558 22.3767L21.4789 22.6433ZM15.3926 28.0458L15.0777 28.3503L15.1991 28.7151L15.6156 28.3124L15.3926 28.0458ZM17.6143 25.8977L17.8374 26.1642L19.9324 24.1386L19.7093 23.8721L17.6143 25.8977ZM19.623 28.2984L19.8822 27.6429L19.4358 28.0745L19.623 28.2984ZM17.214 30.2227L16.069 31.3297L16.1904 31.6946L17.437 30.4892L17.214 30.2227ZM17.687 30.2476L19.4089 28.5827L19.1858 28.3161L17.4639 29.981L17.687 30.2476ZM24.746 15.0643L23.7902 13.9221L23.3259 13.9075L24.496 15.3059L24.746 15.0643Z" fill="black"/>
<path d="M24.4961 15.3059L24.6744 15.519L24.8195 15.152L24.746 15.0643L24.4961 15.3059ZM21.3084 18.8702L22.6949 20.5272L22.8399 20.1602L21.5583 18.6285L21.3084 18.8702ZM19.2159 16.3694L19.4658 16.1278L17.454 13.7234L16.9997 13.7092L16.9944 13.7144L19.2159 16.3694ZM21.3353 18.362L19.6889 16.3944L19.439 16.6361L21.0853 18.6036L21.3353 18.362ZM16.9997 13.7092L16.9897 13.7089L16.9944 13.7144L16.9997 13.7092Z" fill="black"/>
<path d="M19.6889 16.3944L19.4658 16.1278L19.2159 16.3694L19.439 16.6361L19.6889 16.3944ZM21.0853 18.6036L21.3084 18.8702L21.5583 18.6285L21.3353 18.362L21.0853 18.6036ZM22.561 17.1769L20.9146 15.2093L20.6648 15.4509L22.3111 17.4185L22.561 17.1769ZM22.5341 17.685L23.4063 18.7273L23.5513 18.3604L22.784 17.4434L22.5341 17.685ZM20.6915 14.9427L19.731 13.7948L19.2669 13.7802L20.4417 15.1843L20.6915 14.9427Z" fill="black"/>
<path d="M20.9146 15.2093L20.6915 14.9427L20.4416 15.1843L20.6648 15.4509L20.9146 15.2093ZM22.3111 17.4185L22.5341 17.685L22.784 17.4434L22.561 17.1769L22.3111 17.4185ZM18.1109 21.9618L19.7093 23.8721L19.9592 23.6304L18.3608 21.7201L18.1109 21.9618ZM18.1378 21.4536L16.4914 19.486L16.2415 19.7276L17.8879 21.6952L18.1378 21.4536ZM19.9324 24.1386L20.839 25.2222L20.984 24.8552L20.1823 23.897L19.9324 24.1386ZM11.8341 13.92L11.5682 14.1424L13.5739 16.5394L13.8238 16.2978L11.8341 13.92ZM14.0468 16.5644L13.7969 16.806L16.0184 19.461L16.2684 19.2194L14.0468 16.5644Z" fill="black"/>
<path d="M14.0468 16.5644L13.8238 16.2978L13.5739 16.5394L13.7969 16.806L14.0468 16.5644ZM16.4915 19.486L16.2684 19.2194L16.0184 19.461L16.2415 19.7276L16.4915 19.486ZM18.1109 21.9618L18.3608 21.7201L18.1378 21.4536L17.8879 21.6952L18.1109 21.9618ZM19.7093 23.8721L19.9324 24.1386L20.1823 23.897L19.9592 23.6304L19.7093 23.8721ZM15.1204 15.0442L13.9226 13.6127L13.4584 13.5982L14.8705 15.2858L15.1204 15.0442ZM21.0059 22.6184L21.2559 22.3767L19.6574 20.4665L19.4075 20.7081L21.0059 22.6184ZM19.1845 20.4416L19.4344 20.1999L17.788 18.2323L17.5381 18.474L19.1845 20.4416ZM17.3151 18.2074L17.565 17.9657L15.3434 15.3107L15.0935 15.5523L17.3151 18.2074ZM21.229 22.885L21.5916 23.3183L21.7366 22.9513L21.4789 22.6433L21.229 22.885ZM15.3434 15.3107L15.1204 15.0442L14.8705 15.2858L15.0935 15.5523L15.3434 15.3107ZM17.788 18.2323L17.565 17.9657L17.3151 18.2074L17.5381 18.474L17.788 18.2323ZM19.1845 20.4416L19.4075 20.7081L19.6574 20.4665L19.4344 20.1999L19.1845 20.4416Z" fill="black"/>
<path d="M21.229 22.885L21.4789 22.6433L21.2559 22.3767L21.0059 22.6184L21.229 22.885ZM21.8054 13.8657L21.8003 13.8597L21.3361 13.8451L21.5555 14.1073L21.8054 13.8657ZM23.4249 16.3415L23.6749 16.0999L22.0285 14.1323L21.7786 14.3739L23.4249 16.3415ZM23.6479 16.608L24.0527 17.0918L24.1977 16.7249L23.8978 16.3665L23.6479 16.608Z" fill="black"/>
<path d="M22.0285 14.1323L21.8054 13.8657L21.5555 14.1073L21.7786 14.3739L22.0285 14.1323ZM23.648 16.608L23.8979 16.3665L23.6749 16.0999L23.4249 16.3415L23.648 16.608ZM19.4781 28.6653L19.5737 28.4234L19.4089 28.5827L19.4781 28.6653ZM19.1859 28.3161L19.4358 28.0745L17.8374 26.1642L17.5875 26.4059L19.1859 28.3161ZM13.9235 21.4867L12.0485 19.2458L12.3469 20.1427L13.6736 21.7282L13.9235 21.4867ZM16.0159 23.9873L15.766 24.229L17.3644 26.1393L17.6143 25.8977L16.0159 23.9873ZM14.1466 21.7532L13.8966 21.9948L15.543 23.9625L15.7929 23.7208L14.1466 21.7532ZM13.9235 21.4867L13.6736 21.7282L13.8966 21.9948L14.1466 21.7532L13.9235 21.4867Z" fill="black"/>
<path d="M15.7929 23.7208L15.543 23.9625L15.766 24.229L16.0159 23.9873L15.7929 23.7208ZM17.3644 26.1393L17.5875 26.4059L17.8374 26.1642L17.6143 25.8977L17.3644 26.1393ZM19.1859 28.3161L19.4089 28.5827L19.5737 28.4234L19.6231 28.2984L19.4358 28.0745L19.1859 28.3161ZM17.437 30.4892L18.3336 31.5607L18.4787 31.1937L17.687 30.2476L17.437 30.4892ZM15.6425 27.8042L14.4033 26.3231L14.7017 27.2202L15.3926 28.0458L15.6425 27.8042ZM15.8656 28.0708L15.6157 28.3124L17.214 30.2227L17.464 29.981L15.8656 28.0708Z" fill="black"/>
<path d="M15.6425 27.8042L15.3926 28.0458L15.6156 28.3124L15.8656 28.0708L15.6425 27.8042ZM17.214 30.2227L17.437 30.4892L17.687 30.2476L17.4639 29.981L17.214 30.2227ZM16.7005 33.2276L17.3621 34.0184L17.5072 33.6514L16.402 32.3306L16.7005 33.2276Z" fill="black"/>
<path d="M19.9229 2.07805C19.9229 2.11356 19.9298 2.14873 19.9434 2.18154C19.957 2.21435 19.9769 2.24417 20.0021 2.26928C20.0272 2.2944 20.057 2.31432 20.0898 2.32791C20.1226 2.3415 20.1578 2.34849 20.1933 2.34849C20.2288 2.34849 20.264 2.3415 20.2968 2.32791C20.3296 2.31432 20.3594 2.2944 20.3845 2.26928C20.4096 2.24417 20.4296 2.21435 20.4432 2.18154C20.4567 2.14873 20.4637 2.11356 20.4637 2.07805C20.4637 2.04253 20.4567 2.00736 20.4432 1.97455C20.4296 1.94174 20.4096 1.91193 20.3845 1.88681C20.3594 1.8617 20.3296 1.84178 20.2968 1.82819C20.264 1.8146 20.2288 1.8076 20.1933 1.8076C20.1578 1.8076 20.1226 1.8146 20.0898 1.82819C20.057 1.84178 20.0272 1.8617 20.0021 1.88681C19.9769 1.91193 19.957 1.94174 19.9434 1.97455C19.9298 2.00736 19.9229 2.04253 19.9229 2.07805Z" fill="#E5C569"/>
<path d="M16.983 3.34791C16.983 3.41964 17.0115 3.48843 17.0622 3.53915C17.1129 3.58987 17.1817 3.61836 17.2534 3.61836C17.3251 3.61836 17.3939 3.58987 17.4447 3.53915C17.4954 3.48843 17.5239 3.41964 17.5239 3.34791C17.5239 3.27619 17.4954 3.2074 17.4447 3.15668C17.3939 3.10596 17.3251 3.07747 17.2534 3.07747C17.1817 3.07747 17.1129 3.10596 17.0622 3.15668C17.0115 3.2074 16.983 3.27619 16.983 3.34791Z" fill="#E5C569"/>
<path d="M21.1462 2.88942C21.1462 2.96116 21.1747 3.02996 21.2255 3.08068C21.2762 3.13141 21.345 3.1599 21.4167 3.1599C21.4885 3.1599 21.5573 3.13141 21.608 3.08068C21.6587 3.02996 21.6872 2.96116 21.6872 2.88942C21.6872 2.81768 21.6587 2.74888 21.608 2.69816C21.5573 2.64743 21.4885 2.61893 21.4167 2.61893C21.345 2.61893 21.2762 2.64743 21.2255 2.69816C21.1747 2.74888 21.1462 2.81768 21.1462 2.88942Z" fill="#E5C569"/>
<path d="M8.78588 11.4014C8.78588 11.4014 6.09807 15.3688 10.4658 13.7158C10.4658 13.7158 9.56112 17.3679 13.7136 15.2587C14.8709 14.6708 15.1695 16.7281 15.1695 16.7281C15.1695 16.7281 17.0359 17.5364 18.2679 14.6342C19.4997 11.732 19.5745 15.9199 21.0305 15.8097C22.4863 15.6995 23.4195 14.5238 23.6435 13.4585C23.8674 12.3932 25.5475 14.3402 25.7341 14.781C25.9207 15.2218 28.1385 12.6765 25.0247 9.34429C23.0087 7.1869 22.1394 6.92954 21.8409 8.98668C21.5422 11.0438 20.7343 10.5536 19.3133 8.4992C18.6259 7.50552 16.8151 8.20949 15.9879 9.19559C15.4667 9.81673 14.1991 10.1889 13.1911 8.60946C12.1831 7.02999 8.86051 8.86666 8.78588 11.4014Z" fill="white"/>
<path d="M15.7715 17.0049C15.3769 17.0049 15.1116 16.892 15.1005 16.8872L15.0118 16.8488L14.9978 16.7531C14.9398 16.3563 14.6667 15.3264 14.1084 15.3264C14.0119 15.3264 13.9054 15.3556 13.792 15.4132C12.9106 15.8609 12.1787 16.0879 11.6169 16.0879C11.143 16.0879 10.7798 15.9309 10.5373 15.621C10.1564 15.1343 10.1861 14.3954 10.2419 13.9814C8.93905 14.4325 8.1712 14.3867 7.89497 13.866C7.49629 13.1144 8.41089 11.6544 8.61441 11.3459C8.70177 9.45717 10.5609 7.84903 12.0464 7.84903C12.6122 7.84903 13.0585 8.07974 13.3371 8.51616C13.7713 9.19669 14.2935 9.55641 14.847 9.55641C15.298 9.55641 15.6634 9.31249 15.8549 9.08417C16.4571 8.36636 17.4858 7.84544 18.3009 7.84544C18.8051 7.84544 19.2045 8.03739 19.4557 8.40055C19.7521 8.82907 20.6541 10.1331 21.1387 10.133C21.3745 10.133 21.5579 9.72793 21.6692 8.9618C21.7662 8.29275 21.9768 7.40324 22.6815 7.40324C23.2261 7.40324 23.9415 7.93135 25.1513 9.22591C27.3582 11.5876 26.8912 13.4667 26.5881 14.1649C26.3735 14.659 26.0529 15.004 25.8084 15.004C25.7031 15.004 25.6156 14.9459 25.5744 14.8485C25.4248 14.4952 24.3839 13.3174 23.9495 13.3174C23.9147 13.3174 23.8502 13.3174 23.8129 13.4941C23.5785 14.6094 22.6118 15.8637 21.0435 15.9824C20.3041 16.0378 19.8914 15.213 19.5637 14.555C19.401 14.2286 19.1784 13.7814 19.0343 13.7814C18.9982 13.7814 18.7991 13.8258 18.4273 14.7019C17.5768 16.7057 16.3982 17.0049 15.7715 17.0049ZM15.3227 16.5973C15.4133 16.6233 15.5718 16.6582 15.7715 16.6582C16.4324 16.6582 17.3743 16.2953 18.1081 14.5665C18.4449 13.7733 18.7218 13.4348 19.0343 13.4348C19.393 13.4348 19.6159 13.8823 19.874 14.4006C20.1716 14.9979 20.505 15.6739 21.0174 15.6369C22.4073 15.5317 23.2651 14.4155 23.4738 13.4229C23.5564 13.0295 23.8073 12.9708 23.9495 12.9708C24.5849 12.9708 25.603 14.1881 25.8534 14.6334C25.971 14.5492 26.2191 14.2537 26.3735 13.7443C26.6045 12.9823 26.7201 11.4126 24.8979 9.46272C24.211 8.72757 23.2338 7.75007 22.6815 7.75007C22.5613 7.75007 22.1954 7.75007 22.0123 9.01165C21.9208 9.64186 21.7307 10.4797 21.1388 10.4798C20.6655 10.4799 20.0952 9.93469 19.1705 8.59793C18.9843 8.32866 18.6917 8.19223 18.3009 8.19223C17.5911 8.19223 16.6537 8.6715 16.1205 9.30706C15.8074 9.68026 15.3313 9.90308 14.847 9.90308C14.3743 9.90308 13.678 9.69484 13.0448 8.70268C12.7775 8.28373 12.3544 8.19574 12.0465 8.19574C10.8414 8.19574 9.01403 9.54395 8.95921 11.4065L8.95765 11.4569L8.9294 11.4986C8.63348 11.9359 7.9258 13.1845 8.20136 13.7037C8.28763 13.8663 8.47884 13.9454 8.78581 13.9454C9.173 13.9454 9.71757 13.8136 10.4043 13.5536L10.7127 13.4369L10.634 13.7573C10.6313 13.7681 10.3725 14.8489 10.8108 15.408C10.9866 15.6323 11.2503 15.7412 11.6168 15.7412C12.1236 15.7412 12.8026 15.5269 13.6349 15.1041C13.7975 15.0215 13.9567 14.9796 14.1083 14.9796C14.9494 14.9797 15.2505 16.219 15.3227 16.5973Z" fill="#040000"/>
</svg>
