<svg width="35" height="35" viewBox="0 0 35 35" fill="none" xmlns="http://www.w3.org/2000/svg">
<path d="M17.7805 32.4942C26.0471 32.4942 32.7485 25.7928 32.7485 17.5263C32.7485 9.25968 26.0471 2.55829 17.7805 2.55829C9.51395 2.55829 2.81256 9.25968 2.81256 17.5263C2.81256 25.7928 9.51395 32.4942 17.7805 32.4942Z" fill="#CF9F66"/>
<path d="M17.8084 30.3423C24.8711 30.3423 30.5966 24.6168 30.5966 17.5541C30.5966 10.4915 24.8711 4.76602 17.8084 4.76602C10.7458 4.76602 5.02032 10.4915 5.02032 17.5541C5.02032 24.6168 10.7458 30.3423 17.8084 30.3423Z" fill="#89643D"/>
<path d="M16.3335 26.8007C21.9168 26.8007 26.443 22.2745 26.443 16.6912C26.443 11.1078 21.9168 6.58165 16.3335 6.58165C10.7501 6.58165 6.22394 11.1078 6.22394 16.6912C6.22394 22.2745 10.7501 26.8007 16.3335 26.8007Z" fill="#C45C00"/>
<path d="M5.495 14.2089C5.495 14.2089 8.27969 11.6933 11.2952 12.2227C14.3106 12.752 14.7602 15.7227 13.5373 16.8542C13.5373 16.8542 13.1381 16.806 12.9265 16.1481C12.7148 15.4902 12.0608 14.0656 10.7636 14.07C9.4664 14.0744 8.08008 14.2789 5.24453 16.5441C5.17058 15.7568 5.25575 14.9626 5.495 14.2089Z" fill="#C98019"/>
<path d="M16.0382 11.2908C16.0382 11.2908 20.0069 8.6822 22.5848 11.48C23.0989 12.4144 23.7179 13.287 24.43 14.081C25.1907 14.7569 27.1097 15.3355 27.0003 17.6772C26.8909 20.0189 25.8005 20.7944 25.1891 20.8491C24.5777 20.9038 21.1132 20.3985 20.3323 21.4922C19.5513 22.586 19.9199 25.2454 18.9268 26.4863C17.9337 27.7271 13.2836 25.9744 14.6284 22.5488C15.9731 19.1231 13.6779 17.2036 13.2491 16.287C12.8204 15.3705 11.6938 13.0758 14.7656 12.0006C17.8374 10.9255 17.1516 13.1759 16.3406 13.4449C15.5296 13.714 13.9743 13.8928 14.2729 15.528C14.5715 17.1631 16.5566 17.9014 16.4188 20.2858C16.281 22.6702 15.2961 23.2805 15.7653 24.2266C16.2345 25.1727 17.8341 26.0548 18.1765 25.0163C18.5188 23.9777 18.1087 20.9453 20.1797 19.7242C22.2507 18.503 24.5044 19.8817 25.1672 19.2276C25.83 18.5735 25.7305 16.8968 24.3966 15.9573C23.1815 15.0493 22.186 13.8796 21.484 12.5349C20.8277 11.3531 18.5134 11.375 16.5074 12.5798C14.5015 13.7845 14.2187 12.3884 16.0382 11.2908Z" fill="#EB9800"/>
<path d="M14.5966 9.99197C14.5966 9.99197 13.0194 8.02869 14.7159 6.16001C16.4123 4.29134 21.7787 5.6558 21.2707 8.59798C20.7627 11.5402 21.4003 11.4445 22.2004 11.9738C23.0005 12.5032 24.3966 12.3917 25.4636 13.0397C26.5305 13.6877 27.4263 15.0281 25.9694 16.8831C25.2896 17.7993 24.3019 18.4392 23.1879 18.6852C22.0739 18.9311 20.9086 18.7666 19.9062 18.2219C17.6006 17.0992 15.9348 16.2269 14.788 19.2648C13.6412 22.3027 13.0643 24.5662 11.3619 24.7051C9.65945 24.844 9.25804 24.2337 9.93343 23.473C10.6088 22.7123 11.3553 23.4943 12.0192 22.4941C12.6831 21.4938 12.6623 20.0441 14.1575 17.8697C15.6527 15.6953 17.7428 15.9277 19.8094 17.0647C20.1815 17.2993 20.5968 17.4569 21.0308 17.5282C21.4648 17.5995 21.9087 17.583 22.3362 17.4798C22.7637 17.3765 23.1662 17.1886 23.5198 16.9271C23.8734 16.6656 24.171 16.3358 24.395 15.9573C25.2421 14.677 24.9462 13.7331 21.4457 13.3733C21.4457 13.3733 18.982 12.6624 19.3725 10.3343C19.763 8.00626 19.0936 6.75611 17.6301 6.70853C16.1667 6.66095 14.9734 7.85697 15.6461 10.0117C16.3187 12.1663 14.5966 9.99197 14.5966 9.99197Z" fill="#D68B00"/>
<path d="M26.0274 14.2735C26.0274 14.2735 26.6558 11.4106 24.2287 9.86291C21.8017 8.31525 19.6153 10.8374 18.4931 13.1442C17.3709 15.4509 18.3493 17.5356 16.9531 18.5117C15.5569 19.4879 13.1075 18.3258 11.5937 18.5309C10.08 18.736 6.3082 21.1313 11.1016 25.2782C15.8949 29.4252 21.5573 24.7751 22.2983 23.6545C23.0393 22.534 23.2739 21.3095 24.2424 20.4548C25.2109 19.6 23.3603 19.3534 22.8834 19.9008C22.203 20.7355 21.6332 21.6545 21.1881 22.6352C20.6598 23.7836 17.8309 25.1885 15.7954 25.2224C13.7599 25.2563 10.949 24.202 10.5678 21.822C10.1866 19.442 13.6358 20.2278 14.3959 20.5576C15.1561 20.8874 19.6875 20.2049 19.6875 16.2936C19.6875 12.3824 22.0899 11.0983 23.701 11.3564C25.3121 11.6145 24.7237 14.6787 24.2599 15.1195C23.7962 15.5602 21.793 17.2835 19.2287 15.2442L18.7414 16.5895C18.7414 16.5895 20.8917 18.8169 23.2034 17.9304C25.515 17.0439 26.0274 14.2735 26.0274 14.2735Z" fill="#EBBA1D"/>
<path d="M12.3216 17.3874C12.3216 17.3874 8.96984 14.9549 11.6709 11.2624C14.3719 7.56986 19.373 8.16212 19.6875 9.8372C20.002 11.5123 18.8207 13.1037 20.2344 15.2037C21.648 17.3037 24.5317 17.0543 25.7578 20.1535C26.9839 23.2526 21.8203 27.0824 18.5981 24.1303C15.3759 21.1783 18.0611 19.203 18.9263 18.7409C19.7914 18.2788 20.1447 19.1155 19.6684 19.8346C19.192 20.5538 17.1418 22.0888 20.0413 23.7049C22.9409 25.3209 25.842 21.8482 24.0997 20.0485C22.3573 18.2487 21.9302 18.9585 19.7466 16.6513C17.5629 14.344 18.4138 12.2763 18.4209 11.4177C18.428 10.5591 17.4054 9.23564 15.6417 10.0106C13.878 10.7855 9.85852 13.9929 13.632 17.2222C13.638 17.2233 13.7501 17.9014 12.3216 17.3874Z" fill="#FFCA1F"/>
<path d="M26.6481 14.0181C26.6481 14.0181 23.1952 12.0214 20.9453 15.9409C18.6955 19.8603 25.5445 22.2042 26.017 20.446C26.4895 18.6878 25.8666 19.3692 25.0294 19.5049C24.1921 19.6405 21.2012 19.7318 21.7191 16.5102C22.1703 13.7173 25.6134 14.2434 26.3763 14.9363C26.4261 14.986 26.4867 15.0236 26.5533 15.0461C26.62 15.0685 26.691 15.0753 26.7607 15.0658C26.8304 15.0564 26.897 15.0309 26.9553 14.9914C27.0135 14.952 27.0619 14.8996 27.0966 14.8384C27.1966 14.6382 27.137 14.3653 26.6481 14.0181Z" fill="#FFD85E"/>
<path d="M17.9922 21.7356C17.9922 21.7356 20.253 20.4701 19.9265 18.4855C19.6 16.5009 19.2702 16.9313 19.3249 17.3103C19.3796 17.6892 19.8794 19.0149 19.1248 20.0255C18.7617 20.6161 18.2687 21.116 17.6832 21.4873C16.8952 22.0888 17.8319 21.846 17.9922 21.7356Z" fill="#FFE38A"/>
<path d="M17.2566 8.82602C17.2566 8.82602 19.0219 8.57063 19.4151 9.73657C19.8083 10.9025 19.5666 10.2249 19.0263 9.86782C18.486 9.51071 16.1202 9.24219 17.2566 8.82602Z" fill="#FFD85E"/>
<path d="M20.0774 28.6814C25.0086 28.6814 29.0062 24.6838 29.0062 19.7526C29.0062 14.8213 25.0086 10.8238 20.0774 10.8238C15.1461 10.8238 11.1486 14.8213 11.1486 19.7526C11.1486 24.6838 15.1461 28.6814 20.0774 28.6814Z" fill="#D96600"/>
<path d="M24.4573 28.542C24.4573 28.542 26.0383 25.6293 24.9594 23.1503C23.8804 20.6713 21.2357 20.9021 20.5176 22.1867C20.5176 22.1867 20.6423 22.5198 21.251 22.5652C21.8597 22.6106 23.2197 22.8763 23.4833 23.9909C23.7469 25.1054 23.8607 26.3375 22.5044 29.2409C23.1957 29.1412 23.8598 28.9035 24.4573 28.542Z" fill="#C98019"/>
<path d="M24.7734 18.8852C24.7734 18.8852 26.1893 14.9373 23.252 13.3071C22.3432 13.0595 21.4656 12.7091 20.6363 12.2626C19.8985 11.7496 19.0039 10.2233 17.0165 10.8046C15.0292 11.3859 14.5906 12.4791 14.6699 13.0156C14.7492 13.5521 15.9025 16.4188 15.1254 17.3163C14.3483 18.2137 11.9891 18.4488 11.13 19.5584C10.2708 20.668 12.74 24.2966 15.4005 22.4317C18.061 20.5669 20.1862 22.1386 21.0618 22.3169C21.9373 22.4952 24.1439 22.9846 24.43 20.1261C24.716 17.2676 22.926 18.3214 22.8632 19.0739C22.8003 19.8264 22.9725 21.1985 21.5042 21.2816C20.0358 21.3648 18.9929 19.8133 16.9766 20.4258C14.9603 21.0383 14.636 22.0117 13.7293 21.8028C12.8225 21.5939 11.7299 20.4061 12.5507 19.897C13.3716 19.3878 16.0595 19.1105 16.6758 17.0795C17.2921 15.0484 15.6433 13.3984 16.0671 12.6957C16.491 11.993 17.9511 11.7283 19.0345 12.6782C20.0659 13.5331 21.2765 14.1448 22.5766 14.4681C23.725 14.7864 24.1888 16.7781 23.5708 18.7491C22.9528 20.72 24.2101 20.6746 24.7734 18.8852Z" fill="#EB9800"/>
<path d="M26.1887 19.8516C26.7511 20.1126 27.3878 20.1657 27.9857 20.0014C28.5835 19.8371 29.1037 19.466 29.4536 18.9541C30.7059 17.1101 28.4211 12.7865 26.0011 13.8332C23.5812 14.8799 23.5304 14.3123 22.9097 13.7353C22.289 13.1584 22.0937 11.9377 21.3177 11.1563C20.5417 10.3748 19.2029 9.88367 17.9134 11.5188C17.2685 12.2926 16.9244 13.2731 16.9445 14.2802C16.9646 15.2873 17.3475 16.2533 18.0228 17.0007C19.4649 18.7474 20.5597 19.9965 18.1869 21.6114C15.814 23.2263 13.994 24.191 14.2275 25.6813C14.461 27.1715 15.0686 27.3897 15.5815 26.652C16.0945 25.9142 15.2676 25.4341 15.989 24.6586C16.7103 23.8831 17.9577 23.5982 19.5152 21.863C21.0727 20.1277 20.4383 18.3821 19.034 16.8443C18.7554 16.5735 18.534 16.2496 18.3828 15.8918C18.2316 15.534 18.1537 15.1494 18.1537 14.761C18.1537 14.3725 18.2316 13.988 18.3828 13.6302C18.534 13.2723 18.7554 12.9484 19.034 12.6777C19.9571 11.6851 20.8288 11.743 21.864 14.6732C21.864 14.6732 22.9846 16.642 24.903 15.8216C26.8215 15.0013 28.0328 15.3185 28.3773 16.5648C28.7219 17.8112 27.9453 19.0859 25.9541 18.9552C23.9629 18.8245 26.1887 19.8516 26.1887 19.8516Z" fill="#D68B00"/>
<path d="M20.1403 10.9293C20.1403 10.9293 22.4672 9.79617 24.2998 11.5582C26.1324 13.3202 24.4207 15.7205 22.6739 17.1626C20.9272 18.6047 18.9344 18.1973 18.3854 19.5962C17.8363 20.9951 19.3429 22.8588 19.4791 24.203C19.6153 25.5473 18.3443 29.2802 13.7916 26.0274C9.23887 22.7746 12.0542 16.9493 12.8619 16.0792C13.6697 15.2091 14.6726 14.7547 15.2058 13.7457C15.739 12.7367 16.334 14.2745 15.9632 14.7979C15.3877 15.5553 14.717 16.2354 13.9677 16.8213C13.0927 17.512 12.4725 20.2327 12.8657 21.9871C13.2589 23.7415 14.7475 25.9355 16.8694 25.7693C18.9913 25.603 17.6017 22.8047 17.1609 22.2212C16.7201 21.6377 16.3641 17.6039 19.7225 16.7929C23.0808 15.9819 23.6857 13.6516 23.1279 12.3227C22.57 10.9938 20.0654 12.1341 19.7815 12.6235C19.4977 13.113 18.4351 15.1905 20.7178 16.9663L19.6645 17.6641C19.6645 17.6641 17.3064 16.2805 17.5864 14.1094C17.8664 11.9383 20.1403 10.9293 20.1403 10.9293Z" fill="#EBBA1D"/>
<path d="M20.312 23.3412C20.312 23.3412 23.0962 25.7135 25.7048 22.6302C28.3134 19.547 26.7684 15.3749 25.2673 15.452C23.7661 15.5291 22.6423 16.8738 20.5466 16.0951C18.451 15.3163 18.0666 12.7898 15.1512 12.3763C12.2358 11.9629 10.0177 17.1938 13.2207 19.3485C16.4238 21.5031 17.5618 18.7868 17.7789 17.9468C17.996 17.1068 17.2041 16.9783 16.6852 17.5367C16.1662 18.095 15.2742 20.1737 13.2852 18.0195C11.2963 15.8654 13.6757 12.6547 15.5821 13.7774C17.4885 14.9002 16.9679 15.4131 19.4015 16.8093C21.8351 18.2055 23.4341 17.0456 24.1697 16.864C24.9052 16.6824 26.2533 17.2834 25.9541 18.958C25.655 20.6325 23.7344 24.7461 20.1797 22.1769C20.1797 22.1769 19.5748 22.2212 20.312 23.3412Z" fill="#FFCA1F"/>
<path d="M29.7155 21.6295C28.8535 21.3224 28.0992 20.7714 27.5445 20.0435C26.3714 18.6922 24.8363 17.2638 21.7383 18.6348C18.6402 20.0058 19.0832 23.5424 21.4298 25.0332C21.4298 25.0332 22.2015 25.2301 21.3577 24.2714C20.5138 23.3127 19.687 21.589 21.303 20.3164C22.919 19.0438 24.447 18.9886 25.7934 20.1524C27.1398 21.3161 27.7736 22.6888 29.3601 23.036C29.548 22.5875 29.6678 22.1134 29.7155 21.6295Z" fill="#FFD03B"/>
<path d="M24.8538 27.6954C24.8538 27.6954 28.9526 26.6481 28.7913 21.5053C28.7913 21.5053 28.4911 18.7961 25.492 19.174C22.493 19.5519 21.3828 18.6933 20.4241 17.6717C19.4655 16.6502 17.5498 15.9097 15.7172 18.0666C13.8846 20.2235 15.7462 26.9462 20.4487 25.8092C25.1513 24.6723 20.6642 28.6568 19.9194 28.5715C19.1745 28.4862 18.8535 28.3177 17.763 27.3902C16.6726 26.4627 14.3205 23.5807 11.609 23.8356C11.609 23.8356 11.3695 24.0467 12.0941 24.8074C12.8187 25.5681 13.656 24.4792 16.2898 27.061C18.9235 29.6428 19.8341 30.5747 22.8074 27.6117C25.7808 24.6488 22.9168 24.4152 22.2458 24.5295C21.5748 24.6438 19.0619 25.3865 17.6329 23.7973C16.2039 22.2081 16.0185 19.5617 17.2183 18.5511C18.4182 17.5405 19.1729 17.8949 20.1365 19.0526C21.1001 20.2103 23.7759 20.8321 25.5095 20.2749C27.2431 19.7176 28.5665 22.12 26.8975 25.0808C25.2284 28.0416 21.0372 27.2267 20.1797 27.125C19.4649 27.0386 16.9296 26.7056 15.7976 27.4668C15.7155 27.5253 15.6486 27.6026 15.6023 27.6921C15.556 27.7816 15.5317 27.8809 15.5314 27.9817C15.5311 28.0825 15.5547 28.1819 15.6004 28.2717C15.6462 28.3615 15.7126 28.4392 15.7943 28.4982C15.9946 28.6803 16.2589 28.7756 16.5293 28.7635C16.9985 28.6606 16.6217 27.8885 22.1594 28.1116C22.8109 28.1371 23.4628 28.0707 24.0958 27.9142C24.3474 27.8502 24.6094 27.7774 24.8538 27.6954Z" fill="#FFD85E"/>
<path d="M20.2344 10.3431C20.2344 10.3431 22.6647 12.8931 19.7663 15.6357C16.8678 18.3783 13.4356 12.9872 14.8444 12.2167C16.2531 11.4461 15.8003 12.122 15.8572 12.8696C15.9141 13.6172 16.4588 16.2056 19.1149 15.0899C21.4189 14.1231 20.253 11.276 19.4977 10.7652C19.4447 10.7328 19.3999 10.6886 19.3668 10.636C19.3336 10.5835 19.3131 10.5239 19.3067 10.4621C19.3004 10.4003 19.3084 10.3379 19.3301 10.2796C19.3519 10.2214 19.3868 10.169 19.4321 10.1265C19.5858 10.0013 19.8324 9.99525 20.2344 10.3431Z" fill="#FFD85E"/>
<path d="M15.4033 19.3758C15.4033 19.3758 16.0201 17.173 17.7915 17.0412C19.5628 16.9094 19.262 17.2802 18.9257 17.3146C18.5893 17.3491 17.3474 17.1916 16.6365 18.0491C16.2048 18.4834 15.8779 19.0105 15.6805 19.5902C15.3272 20.3902 15.3415 19.5355 15.4033 19.3758Z" fill="#FFE38A"/>
<path d="M26.6377 17.3283C26.6377 17.3283 26.4912 15.7598 25.4084 15.6641C24.3255 15.5684 24.9577 15.6352 25.3766 16.0251C25.7955 16.415 26.5191 18.3892 26.6377 17.3283Z" fill="#FFD85E"/>
<path d="M11.7031 6.58329C11.7031 6.58329 12.2254 7.61907 14.0251 8.55204C15.8249 9.48501 17.8046 10.7942 17.1199 14.5677C16.4352 18.3411 12.4255 18.795 10.1625 16.6081C10.1625 16.6081 9.74036 15.8113 11.02 16.4856C12.2997 17.1598 14.4167 17.6105 15.3868 15.4919C16.357 13.3733 16.0119 11.678 14.3713 10.506C12.7307 9.33407 11.0529 9.00157 10.2489 7.34782C10.25 7.34672 11.4045 6.55758 11.7031 6.58329Z" fill="#FFD03B"/>
<path d="M6.32079 13.5477C6.32079 13.5477 6.38368 8.75767 12.0865 7.56986C12.0865 7.56986 15.149 7.17939 15.5318 10.581C15.9146 13.9825 17.1538 14.9756 18.5341 15.7588C19.9145 16.5419 21.2379 18.4532 19.3512 21.0443C17.4645 23.6354 9.57032 23.3745 9.57032 17.8965C9.57032 12.4184 6.3793 18.4166 6.67188 19.2139C6.96446 20.0113 7.23462 20.3197 8.54548 21.2729C9.85633 22.2261 13.6544 24.0483 14.0946 27.1004C14.0946 27.1004 13.9256 27.4198 12.8959 26.827C11.8661 26.2342 12.8412 25.0223 9.29907 22.8091C5.75696 20.5959 4.48657 19.8428 6.95899 15.7828C9.43141 11.7228 10.4481 14.8121 10.5006 15.5805C10.5531 16.3488 10.4043 19.3124 12.5338 20.4624C14.6634 21.6125 17.6236 21.1094 18.416 19.5235C19.2084 17.9375 18.6173 17.1976 17.0877 16.4445C15.5581 15.6915 14.1641 12.9106 14.3139 10.8544C14.4638 8.79814 11.4702 7.98111 8.6554 10.6056C5.84063 13.23 7.85204 17.6231 8.19493 18.5391C8.4804 19.3047 9.5211 22.0041 8.98407 23.4527C8.94141 23.5586 8.8742 23.6527 8.78797 23.7274C8.70174 23.8021 8.59898 23.8552 8.48817 23.8824C8.37736 23.9095 8.26168 23.9099 8.15069 23.8835C8.0397 23.8571 7.93658 23.8047 7.84985 23.7306C7.59641 23.5584 7.42128 23.293 7.36258 22.9923C7.3511 22.4487 8.29993 22.6581 6.58219 16.6228C6.38125 15.9125 6.2811 15.1774 6.28469 14.4392C6.28579 14.146 6.29508 13.836 6.32079 13.5477Z" fill="#FFE38C"/>
<path d="M14.5228 8.34204C14.5228 8.34204 15.4388 8.84189 15.6264 11.2995C15.6985 12.2384 16.0102 13.143 16.5316 13.927C17.053 14.7111 17.7668 15.3483 18.6046 15.7779C18.9998 15.9846 19.3472 16.2718 19.6246 16.621C19.9019 16.9702 20.103 17.3737 20.2149 17.8053C20.3267 18.237 20.3469 18.6873 20.274 19.1273C20.2012 19.5672 20.0369 19.987 19.7919 20.3596C19.7919 20.3596 21.1875 17.4021 18.4378 15.9234C15.6882 14.4446 15.4809 12.4234 15.3557 11.258C15.2304 10.0926 15.2096 9.27938 14.5228 8.34204Z" fill="#FFF4D1"/>
<path d="M24.8669 10.6608C24.5505 10.184 24.0801 9.83024 23.5343 9.65846C22.9885 9.48667 22.4003 9.5073 21.8678 9.71689C21.8678 9.71689 21.257 10.0778 22.062 10.0226C22.5255 9.93733 23.0025 9.96076 23.4554 10.091C23.9083 10.2213 24.3249 10.4549 24.6722 10.7734C25.5057 11.6052 24.9779 10.7997 24.8669 10.6608Z" fill="#FFD03B"/>
<path d="M19.2298 19.4365C19.2298 19.4365 19.8959 18.4368 19.3938 17.6034C18.8918 16.7699 19.1264 16.6256 19.3993 16.8093C19.6569 17.0506 19.8555 17.3478 19.9798 17.6781C20.1042 18.0084 20.1508 18.3629 20.1162 18.7141C20.0752 19.7531 19.4217 21.2138 18.3116 21.5748C17.2014 21.9357 17.8965 20.9081 19.2298 19.4365Z" fill="#FFF0C2"/>
<path d="M7.7607 14.7153C7.7607 14.7153 8.76039 13.5767 9.42703 13.8824C9.68108 14.0466 9.89357 14.2674 10.0478 14.5276C10.202 14.7878 10.2937 15.0803 10.3157 15.382C10.343 15.6598 10.4251 16.9094 10.4798 17.2145C10.5344 17.5197 10.1467 17.4371 10.1188 16.8815C10.0909 16.3259 10.1188 14.3823 9.34117 14.2434C9.0604 14.1967 8.77212 14.2321 8.51103 14.3454C8.24994 14.4588 8.02717 14.6451 7.86953 14.8821C7.67757 15.1599 7.64968 14.8821 7.7607 14.7153Z" fill="#FFF0C2"/>
<path opacity="0.51" d="M29.7018 16.4746C31.1363 22.8561 24.7116 31.2402 17.8587 29.2923C11.5697 27.5034 5.36591 24.9293 5.36591 18.3887C5.36591 11.848 10.9922 5.19531 17.5339 5.19531C24.0756 5.19531 28.6765 11.9115 29.7018 16.4746Z" fill="#FFF276"/>
<path d="M23.8229 7.554C23.8229 7.554 23.071 6.83595 22.6269 7.62236C22.1829 8.40876 23.0371 8.51103 23.4472 8.57939C23.4472 8.57939 22.9687 9.0579 23.6179 9.26298C24.267 9.46806 25.2246 9.19462 26.3183 10.3906C27.4121 11.5867 29.0866 14.9368 28.3691 16.8164C27.6516 18.696 29.5312 20.3027 29.1894 21.4993C28.8476 22.6959 28.403 24.4727 27.5488 25.1563C26.6946 25.8399 25.737 26.8652 26.7285 26.7285C26.7285 26.7285 29.5996 24.097 29.9069 18.8672C30.1575 17.244 29.8946 15.583 29.155 14.1165C28.3796 12.7486 27.5117 11.4352 26.5573 10.1856C26.3183 9.7754 26.0449 8.68165 23.8229 7.554Z" fill="#FFF2FF"/>
<path d="M11.1764 26.8313C11.1764 26.8313 10.3561 26.1133 11.2793 25.7376C12.2024 25.3619 12.8515 26.5579 12.8515 26.9336C12.8515 27.3093 13.6035 27.8567 15.0046 28.1985C16.4057 28.5403 16.5085 28.0273 17.2265 28.2324C17.9446 28.4375 19.0722 29.3945 20.1999 29.1895C21.3275 28.9844 21.6354 29.3606 20.8151 29.4973C19.9948 29.6341 15.039 29.1211 11.1764 26.8313Z" fill="#FFF2FF"/>
<path d="M20.6615 10.2539C21.0484 10.2539 21.362 9.97087 21.362 9.62172C21.362 9.27257 21.0484 8.98953 20.6615 8.98953C20.2746 8.98953 19.9609 9.27257 19.9609 9.62172C19.9609 9.97087 20.2746 10.2539 20.6615 10.2539Z" fill="#FFF2FF"/>
<path d="M15.207 14.3281C15.2264 14.9465 15.1184 15.5622 14.8897 16.1371C14.661 16.7119 14.3164 17.2335 13.8775 17.6695C13.4386 18.1055 12.9147 18.4465 12.3383 18.6714C11.762 18.8963 11.1456 19.0001 10.5273 18.9766C9.2117 18.9672 7.95186 18.4438 7.0169 17.5181C6.08193 16.5925 5.54596 15.3379 5.52344 14.0224C5.52344 11.3187 7.83781 9.35814 10.5416 9.35814C13.2453 9.35814 15.207 11.6266 15.207 14.3281Z" fill="#965030"/>
<path d="M10.5273 18.4253C12.9248 18.4253 14.8684 16.4817 14.8684 14.0842C14.8684 11.6867 12.9248 9.74313 10.5273 9.74313C8.12979 9.74313 6.18622 11.6867 6.18622 14.0842C6.18622 16.4817 8.12979 18.4253 10.5273 18.4253Z" fill="#FFB95C"/>
<path d="M10.5273 18.1481C12.6974 18.1481 14.4566 16.3888 14.4566 14.2188C14.4566 12.0487 12.6974 10.2895 10.5273 10.2895C8.35723 10.2895 6.59802 12.0487 6.59802 14.2188C6.59802 16.3888 8.35723 18.1481 10.5273 18.1481Z" fill="#FFE9CC"/>
<path d="M10.5273 17.9227C12.463 17.9227 14.0322 16.3535 14.0322 14.4178C14.0322 12.4821 12.463 10.9129 10.5273 10.9129C8.59161 10.9129 7.0224 12.4821 7.0224 14.4178C7.0224 16.3535 8.59161 17.9227 10.5273 17.9227Z" fill="url(#paint0_linear_161_837)"/>
<path opacity="0.47" d="M6.87915 16.4063C6.87915 16.4063 8.86485 12.0422 11.8896 10.0795C11.8896 10.0795 12.4206 9.91539 12.8363 10.5875C13.2519 11.2596 7.87173 14.7902 9.3729 15.3213C10.8741 15.8523 13.8294 11.8573 14.776 13.4739C14.776 13.4739 15.0763 14.1898 13.8294 15.2288C12.5825 16.2679 11.2656 18.025 11.1967 18.3941C10.8599 18.4353 10.5204 18.4509 10.1812 18.4406C11.1386 17.0473 12.2629 15.7764 13.5292 14.6563C14.4988 13.9869 13.8988 13.5477 12.6542 14.5638C11.4095 15.5799 8.72868 16.8733 8.61274 15.3721C8.49681 13.8709 10.8298 11.8623 11.3378 11.5161C11.8459 11.1699 11.5456 10.9616 11.0606 11.4007C9.36439 12.902 8.05042 14.7859 7.22751 16.8963C7.09207 16.7476 6.9751 16.583 6.87915 16.4063Z" fill="#FF9100"/>
<path d="M6.87914 16.4063C7.63199 14.8762 8.56204 13.4399 9.65016 12.127C11.0972 10.5569 11.8513 9.98704 12.2363 10.1101C12.137 10.057 12.0341 10.0108 11.9284 9.97172C11.7589 9.90993 10.6351 10.5875 9.23453 12.2194C8.2489 13.4509 7.4117 14.7941 6.74023 16.2214L6.87914 16.4063Z" fill="#FFE9CC"/>
<path d="M5.69351 15.2999C5.39871 14.2306 5.4995 13.0909 5.97738 12.0899C6.45525 11.089 7.27815 10.294 8.295 9.85087C9.30832 9.3185 10.4822 9.17801 11.5926 9.45622C12.7029 9.73444 13.6719 10.4119 14.3144 11.3592C14.3144 11.3592 11.7742 8.14189 8.295 9.94329C7.32654 10.4187 6.54461 11.2039 6.07331 12.1744C5.602 13.1448 5.46833 14.2449 5.69351 15.2999Z" fill="#70270F"/>
<path d="M12.0137 5.80344C12.5383 5.47553 13.1248 5.25905 13.7367 5.16746C14.3486 5.07588 14.9727 5.11115 15.5704 5.27108C16.1681 5.43101 16.7264 5.71218 17.2108 6.0971C17.6951 6.48203 18.0951 6.96249 18.3859 7.5086C19.0402 8.65082 19.2218 10.0037 18.8918 11.278C18.5618 12.5523 17.7465 13.647 16.62 14.3281C14.2832 15.6882 11.4247 14.6743 10.0641 12.338C8.70347 10.0018 9.67964 7.16406 12.0137 5.80344Z" fill="#965030"/>
<path d="M14.1559 14.3128C16.5534 14.3128 18.4969 12.3692 18.4969 9.97172C18.4969 7.5742 16.5534 5.63063 14.1559 5.63063C11.7583 5.63063 9.81476 7.5742 9.81476 9.97172C9.81476 12.3692 11.7583 14.3128 14.1559 14.3128Z" fill="#FFB95C"/>
<path d="M14.2723 13.8332C16.4424 13.8332 18.2016 12.074 18.2016 9.90391C18.2016 7.73382 16.4424 5.97461 14.2723 5.97461C12.1022 5.97461 10.343 7.73382 10.343 9.90391C10.343 12.074 12.1022 13.8332 14.2723 13.8332Z" fill="#FFE9CC"/>
<path d="M14.4441 13.3088C16.3798 13.3088 17.949 11.7396 17.949 9.80384C17.949 7.86813 16.3798 6.29892 14.4441 6.29892C12.5084 6.29892 10.9391 7.86813 10.9391 9.80384C10.9391 11.7396 12.5084 13.3088 14.4441 13.3088Z" fill="url(#paint1_linear_161_837)"/>
<path opacity="0.47" d="M18.0004 11.9552C18.0004 11.9552 13.2294 12.4348 10.0116 10.8068C9.88579 10.6579 9.81365 10.4711 9.80681 10.2763C9.79997 10.0815 9.85881 9.89006 9.9739 9.73274C10.3436 9.03656 16.1038 11.9088 15.8074 10.3441C15.511 8.77953 10.5722 8.23594 11.4926 6.60406C11.4926 6.60406 11.9601 5.98445 13.4854 6.53953C15.0106 7.09461 17.1894 7.34891 17.5437 7.22258C17.7488 7.49316 17.9331 7.7789 18.095 8.07735C16.4083 7.95181 14.7434 7.61993 13.1376 7.08914C12.0712 6.5882 11.9941 7.32758 13.4991 7.89414C15.0041 8.4607 17.4699 10.1248 16.2307 10.9796C14.9915 11.8344 12.0821 10.8298 11.5276 10.5651C10.973 10.3004 10.9441 10.6646 11.5669 10.8626C13.7178 11.5731 16.007 11.7605 18.2448 11.4095C18.1858 11.6006 18.1037 11.7839 18.0004 11.9552Z" fill="#FF9100"/>
<path d="M18.0004 11.9552C16.2992 12.0743 14.59 11.9932 12.9079 11.7135C10.8226 11.253 9.95091 10.8877 9.86395 10.4934C9.86749 10.6061 9.87919 10.7183 9.89895 10.8292C9.93067 11.0064 11.0818 11.637 13.1966 12.0263C14.7568 12.2584 16.3388 12.306 17.9101 12.168L18.0004 11.9552Z" fill="#FFE9CC"/>
<path d="M17.6389 13.5368C16.8632 14.3289 15.8279 14.8147 14.7229 14.9051C13.6179 14.9955 12.5174 14.6844 11.6233 14.029C10.6531 13.4213 9.9409 12.4775 9.62271 11.3779C9.30452 10.2782 9.40268 9.09989 9.89843 8.06805C9.89843 8.06805 8.39616 11.882 11.7031 13.982C12.6008 14.5794 13.6722 14.86 14.7475 14.7794C15.8228 14.6987 16.8404 14.2614 17.6389 13.5368Z" fill="#70270F"/>
<path d="M22.8829 12.7799C22.4867 13.2551 21.997 13.6438 21.4442 13.9216C20.8914 14.1995 20.2873 14.3606 19.6696 14.395C19.0519 14.4294 18.4337 14.3364 17.8534 14.1217C17.2732 13.907 16.7434 13.5751 16.2968 13.1469C15.3195 12.2657 14.7255 11.0372 14.6418 9.72386C14.5581 8.41056 14.9913 7.1166 15.8489 6.11845C17.6449 4.09775 20.6773 4.16939 22.6986 5.96478C24.7198 7.76017 24.6788 10.7587 22.8829 12.7799Z" fill="#965030"/>
<path d="M19.548 13.8288C21.9455 13.8288 23.8891 11.8853 23.8891 9.48775C23.8891 7.09023 21.9455 5.14665 19.548 5.14665C17.1505 5.14665 15.2069 7.09023 15.2069 9.48775C15.2069 11.8853 17.1505 13.8288 19.548 13.8288Z" fill="#FFB95C"/>
<path d="M19.4589 13.5177C21.629 13.5177 23.3882 11.7585 23.3882 9.58837C23.3882 7.41828 21.629 5.65907 19.4589 5.65907C17.2888 5.65907 15.5296 7.41828 15.5296 9.58837C15.5296 11.7585 17.2888 13.5177 19.4589 13.5177Z" fill="#FFE9CC"/>
<path d="M19.3265 13.242C21.2622 13.242 22.8314 11.6728 22.8314 9.73712C22.8314 7.8014 21.2622 6.23219 19.3265 6.23219C17.3908 6.23219 15.8216 7.8014 15.8216 9.73712C15.8216 11.6728 17.3908 13.242 19.3265 13.242Z" fill="url(#paint2_linear_161_837)"/>
<path opacity="0.47" d="M15.2769 8.8047C15.2769 8.8047 19.6601 6.86111 23.2252 7.40306C23.3912 7.50518 23.5179 7.66019 23.5851 7.84311C23.6523 8.02604 23.6559 8.22625 23.5954 8.4115C23.4615 9.18861 17.0926 8.25619 17.862 9.65017C18.6315 11.0442 23.4948 10.0204 23.1284 11.8579C23.1284 11.8579 22.8774 12.5924 21.2548 12.541C19.6322 12.4895 17.4814 12.927 17.1861 13.1573C16.9067 12.9643 16.6425 12.7502 16.3958 12.5169C18.0375 12.1106 19.7228 11.9068 21.414 11.9099C22.5837 12.0537 22.4262 11.3269 20.8195 11.258C19.2128 11.1891 16.351 10.377 17.2615 9.17986C18.1721 7.98275 21.2499 8.03142 21.8597 8.10689C22.4694 8.18236 22.383 7.83072 21.7295 7.83673C19.4642 7.83248 17.2305 8.36808 15.2135 9.39916C15.2107 9.19918 15.232 8.99959 15.2769 8.8047Z" fill="#FF9100"/>
<path d="M15.2769 8.80469C16.856 8.16104 18.5052 7.7051 20.1906 7.44626C22.3152 7.23352 23.2575 7.30844 23.4636 7.65626C23.4249 7.55046 23.3787 7.44757 23.3253 7.34836C23.2394 7.18977 21.9499 6.94969 19.8187 7.23899C18.2638 7.5048 16.7458 7.95324 15.2961 8.57501L15.2769 8.80469Z" fill="#FFE9CC"/>
<path d="M15.1271 7.18649C15.6167 6.19118 16.449 5.40593 17.4711 4.97495C18.4932 4.54397 19.6365 4.49619 20.691 4.8404C21.8026 5.11474 22.7741 5.78914 23.4198 6.73466C24.0654 7.68018 24.34 8.8305 24.191 9.96571C24.191 9.96571 24.4289 5.87344 20.6319 4.9093C19.5918 4.62095 18.4852 4.68842 17.4878 5.10101C16.4904 5.51359 15.6595 6.24762 15.1271 7.18649Z" fill="#70270F"/>
<path d="M29.2031 18.4559C28.7743 19.3995 27.9927 20.1373 27.0261 20.511C26.0594 20.8848 24.9848 20.8647 24.0328 20.455C23.0808 20.0454 22.3273 19.2789 21.9341 18.32C21.5409 17.3611 21.5393 16.2863 21.9296 15.3262C23.2449 12.3457 25.5937 11.1049 27.6029 11.9695C29.6121 12.8341 30.3625 15.7588 29.2031 18.4559Z" fill="#FFF0DB"/>
<path d="M25.404 20.3459C27.1059 20.3459 28.4856 18.9662 28.4856 17.2643C28.4856 15.5624 27.1059 14.1827 25.404 14.1827C23.702 14.1827 22.3223 15.5624 22.3223 17.2643C22.3223 18.9662 23.702 20.3459 25.404 20.3459Z" fill="#FFBC00"/>
<path d="M22.6587 13.9858C23.5011 13.3549 24.4696 12.9128 25.4982 12.6897C26.5269 12.4666 27.5915 12.4677 28.6196 12.693L28.9171 13.0178C28.9171 13.0178 26.0471 12.3293 22.2999 14.5863L22.6587 13.9858Z" fill="#FFF8F0"/>
<path opacity="0.24" d="M25.3783 19.4485C26.6054 19.4485 27.6002 18.4537 27.6002 17.2266C27.6002 15.9994 26.6054 15.0046 25.3783 15.0046C24.1511 15.0046 23.1563 15.9994 23.1563 17.2266C23.1563 18.4537 24.1511 19.4485 25.3783 19.4485Z" fill="#FFF276"/>
<path d="M25.4351 26.7121C24.4594 27.1008 23.3693 27.086 22.4045 26.671C21.4397 26.2559 20.6794 25.4746 20.2907 24.4989C19.902 23.5232 19.9168 22.4331 20.3318 21.4683C20.7469 20.5036 21.5282 19.7432 22.5039 19.3545C25.5407 18.177 28.082 18.9607 28.8886 20.9951C29.6953 23.0295 28.164 25.6255 25.4351 26.7121Z" fill="#FFF8ED"/>
<path d="M23.5916 26.2659C25.2936 26.2659 26.6733 24.8862 26.6733 23.1842C26.6733 21.4823 25.2936 20.1026 23.5916 20.1026C21.8897 20.1026 20.51 21.4823 20.51 23.1842C20.51 24.8862 21.8897 26.2659 23.5916 26.2659Z" fill="#FFBC00"/>
<path d="M23.9695 18.9219C25.0116 19.0714 26.0093 19.4438 26.8946 20.0136C27.7799 20.5834 28.532 21.3373 29.0997 22.2239L29.0801 22.6614C29.0801 22.6614 27.5373 20.1458 23.2925 19.0914L23.9695 18.9219Z" fill="white"/>
<path d="M20.5997 28.9931C20.5997 28.9931 16.2367 24.8653 17.2741 20.7419C18.3115 16.6184 19.7269 20.6899 18.8294 21.3035C17.932 21.9171 18.2689 23.5791 18.7747 24.5848C19.2806 25.5905 20.2223 26.8767 20.9152 26.95C21.6081 27.0233 23.1678 30.0371 20.5997 28.9931Z" fill="#351207"/>
<path d="M22.1249 28.2144C22.1249 28.2144 17.8494 25.5938 17.9867 22.0467C18.124 18.4997 19.9811 21.5819 19.3539 22.2376C18.7266 22.8933 19.2883 24.1932 19.874 24.9282C20.4597 25.6632 21.4511 26.5508 22.0297 26.4912C22.6083 26.4316 24.4026 28.6251 22.1249 28.2144Z" fill="#4A190A"/>
<path d="M19.3889 28.8564C19.3889 28.8564 16.0716 26.122 17.3595 23.8284C18.6474 21.5349 19.4556 23.9974 18.6309 24.2785C17.8063 24.5596 17.9304 25.5451 18.2624 26.1663C18.5943 26.7876 19.273 27.6057 19.8565 27.7042C20.44 27.8026 21.4763 29.6669 19.3889 28.8564Z" fill="#6B240E"/>
<path d="M22.1736 28.6825C22.1736 28.6825 18.6042 25.1152 19.571 21.6765C20.5379 18.2377 21.6317 21.6891 20.8638 22.1834C20.096 22.6778 20.3405 24.0817 20.7413 24.9386C21.1422 25.7956 21.904 26.8964 22.4848 26.9741C23.0656 27.0517 24.3059 29.6182 22.1736 28.6825Z" fill="#6B240E"/>
<path d="M11.7578 17.1374C11.7578 17.1374 12.1406 16.4845 11.1169 16.689C10.0931 16.8935 10.4781 17.2944 10.4781 17.2944C10.4781 17.2944 10.7187 16.3516 10.0915 16.8935C9.69943 17.2935 9.48075 17.8319 9.4828 18.392C9.4828 18.392 9.16944 17.249 8.34421 18.1486C8.22903 18.244 8.13581 18.3631 8.0709 18.4979C8.006 18.6326 7.97095 18.7798 7.96815 18.9293C7.96534 19.0789 7.99485 19.2272 8.05466 19.3643C8.11446 19.5014 8.20316 19.6239 8.31468 19.7236C8.31468 19.7236 8.06913 20.3361 7.8028 20.3525C7.53648 20.3689 7.80007 21.0766 7.80007 21.0766L7.68413 21.7109C7.68413 21.7109 7.79952 22.4738 8.3814 22.5652C8.96327 22.6565 7.35546 22.7691 7.41179 23.1749C7.46812 23.5807 8.35898 23.7459 8.35898 23.7459C8.35898 23.7459 7.52444 23.9859 8.33273 24.5968C8.60056 24.7772 8.90255 24.9007 9.22002 24.9596C9.53749 25.0186 9.86369 25.0118 10.1784 24.9397L9.76554 25.3898C9.76554 25.3898 10.4344 26.0411 10.6608 25.8852C10.8872 25.7294 11.0239 26.4135 11.3936 26.5486C11.7633 26.6837 12.2139 26.0422 12.2139 26.0422C12.2139 26.0422 13.0501 26.8559 13.5712 26.8866C14.0924 26.9172 14.1903 26.1641 14.1903 26.1641C14.1903 26.1641 14.4769 26.2648 14.9412 25.8907C15.4055 25.5166 15.9841 26.1641 16.141 25.0348C16.298 23.9056 15.5433 24.4223 15.5433 24.4223C15.5433 24.4223 16.578 24.6302 16.5309 24.1199C16.4839 23.6097 15.5794 23.2859 15.5794 23.2859C15.5794 23.2859 16.7683 23.3516 16.4062 22.4935C16.3335 22.2647 16.1993 22.0603 16.0184 21.9025C15.8376 21.7446 15.6168 21.6394 15.3803 21.5983C15.3803 21.5983 15.4689 21.2483 15.5247 20.9634C15.5805 20.6784 14.7519 20.3695 14.7519 20.3695C14.7519 20.3695 14.9472 20.6588 14.5808 19.9161C14.3074 19.4428 13.861 19.0942 13.3355 18.9438C13.3355 18.9438 13.8354 18.3783 13.5248 17.926C13.2141 17.4738 12.2401 17.7527 12.2401 17.7527C12.2401 17.7527 13.4296 16.6573 11.7578 17.1374Z" fill="#009C08"/>
<path d="M10.7773 17.6324C10.7887 17.6755 10.7916 17.7204 10.7856 17.7647C10.7797 17.8089 10.765 17.8515 10.7426 17.8901C10.7201 17.9286 10.6903 17.9624 10.6547 17.9894C10.6192 18.0164 10.5787 18.0361 10.5355 18.0474C10.4924 18.0588 10.4474 18.0616 10.4032 18.0555C10.3589 18.0495 10.3163 18.0348 10.2778 18.0123C10.2392 17.9898 10.2055 17.96 10.1785 17.9244C10.1515 17.8889 10.1318 17.8483 10.1205 17.8052L9.86124 16.8208C9.84987 16.7777 9.84712 16.7327 9.85315 16.6885C9.85917 16.6443 9.87386 16.6018 9.89636 16.5633C9.91887 16.5248 9.94875 16.4911 9.9843 16.4641C10.0198 16.4372 10.0604 16.4175 10.1035 16.4063C10.1466 16.3949 10.1916 16.3921 10.2358 16.3981C10.28 16.4041 10.3226 16.4187 10.3611 16.4411C10.3997 16.4636 10.4334 16.4934 10.4604 16.5289C10.4874 16.5644 10.5072 16.6048 10.5186 16.648L10.7773 17.6324Z" fill="#00C40A"/>
<path d="M11.5899 17.8544C11.539 17.9397 11.3673 17.9309 11.2071 17.8347C11.0463 17.7384 10.9566 17.5913 11.0075 17.5066L11.2842 17.0428C11.335 16.9575 11.5073 16.9663 11.667 17.0625C11.8311 17.1588 11.9175 17.3059 11.8666 17.3906L11.5899 17.8544Z" fill="#00C40A"/>
<path d="M10.5984 17.7516C10.6637 17.794 10.7103 17.8597 10.7286 17.9354C10.7469 18.0111 10.7355 18.0909 10.6969 18.1584C10.6258 18.3323 10.4672 18.4319 10.3419 18.3805L9.66217 18.1016C9.59666 18.0593 9.54991 17.9936 9.53158 17.9178C9.51326 17.8421 9.52477 17.7622 9.56373 17.6947C9.63428 17.5208 9.79342 17.4213 9.91865 17.4727L10.5984 17.7516Z" fill="#1CFF28"/>
<path d="M8.27636 21.3194C8.35644 21.3607 8.41684 21.4321 8.44432 21.5179C8.4718 21.6038 8.4641 21.697 8.42292 21.7771C8.40257 21.8168 8.37459 21.8521 8.34058 21.8809C8.30657 21.9098 8.26721 21.9316 8.22474 21.9453C8.18227 21.9589 8.13753 21.964 8.09309 21.9603C8.04864 21.9566 8.00537 21.9441 7.96574 21.9237L7.05956 21.4583C6.97943 21.4172 6.91891 21.3459 6.89132 21.2602C6.86374 21.1744 6.87134 21.0812 6.91245 21.0011C6.95357 20.921 7.02484 20.8605 7.11058 20.8329C7.19632 20.8053 7.28951 20.8129 7.36964 20.854L8.27636 21.3194Z" fill="#00C40A"/>
<path d="M8.98402 20.8633C9.01355 20.9584 8.89214 21.082 8.71058 21.1367C8.53175 21.1914 8.36277 21.1608 8.33324 21.0656L8.173 20.5505C8.14347 20.4553 8.26488 20.3317 8.44644 20.277C8.62581 20.2223 8.7948 20.2535 8.82433 20.3481L8.98402 20.8633Z" fill="#00C40A"/>
<path d="M8.2452 21.5327C8.36715 21.4736 8.53176 21.5627 8.6138 21.7312C8.657 21.796 8.6736 21.875 8.66016 21.9518C8.64672 22.0285 8.60428 22.0972 8.54161 22.1435L7.88098 22.464C7.75958 22.5231 7.59442 22.4345 7.51294 22.2655C7.46981 22.2006 7.4532 22.1217 7.46652 22.045C7.47985 21.9683 7.52211 21.8996 7.58458 21.8531L8.2452 21.5327Z" fill="#1CFF28"/>
<path d="M10.5142 22.8107C10.5255 22.8539 10.5283 22.8989 10.5223 22.9431C10.5163 22.9873 10.5016 23.0299 10.4791 23.0685C10.4566 23.107 10.4267 23.1408 10.3912 23.1678C10.3556 23.1948 10.3151 23.2145 10.2719 23.2258C10.1847 23.2486 10.0921 23.2359 10.0143 23.1905C9.93644 23.1451 9.87982 23.0707 9.85683 22.9835L9.59816 21.9992C9.58678 21.9561 9.584 21.9111 9.58999 21.867C9.59598 21.8228 9.61062 21.7803 9.63307 21.7418C9.65552 21.7033 9.68534 21.6696 9.72083 21.6426C9.75631 21.6156 9.79677 21.5959 9.83987 21.5846C9.92697 21.5618 10.0196 21.5744 10.0974 21.6197C10.1752 21.665 10.2318 21.7393 10.255 21.8263L10.5142 22.8107Z" fill="#00C40A"/>
<path d="M11.3263 23.0327C11.2755 23.1181 11.1038 23.1093 10.9435 23.0131C10.7827 22.9168 10.6936 22.7697 10.7445 22.6849L11.0212 22.2217C11.072 22.1364 11.2438 22.1452 11.404 22.2409C11.5653 22.3371 11.6545 22.4842 11.6036 22.569L11.3263 23.0327Z" fill="#00C40A"/>
<path d="M10.3359 22.9305C10.4014 22.9727 10.4482 23.0385 10.4665 23.1142C10.4848 23.19 10.4733 23.2699 10.4343 23.3374C10.3632 23.5107 10.2047 23.6108 10.0794 23.5594L9.39965 23.2816C9.33425 23.2393 9.28759 23.1735 9.26927 23.0978C9.25095 23.0221 9.26239 22.9422 9.30122 22.8747C9.37231 22.7013 9.5309 22.6013 9.65614 22.6527L10.3359 22.9305Z" fill="#1CFF28"/>
<path d="M10.0969 19.3917C10.1198 19.4787 10.1071 19.5713 10.0618 19.6492C10.0165 19.727 9.94222 19.7836 9.8552 19.8067C9.81203 19.8181 9.76705 19.8209 9.72282 19.8149C9.67859 19.8088 9.63598 19.7942 9.59743 19.7716C9.55888 19.7491 9.52515 19.7193 9.49815 19.6837C9.47116 19.6482 9.45144 19.6076 9.44012 19.5645L9.1809 18.5801C9.15807 18.4929 9.17076 18.4003 9.21618 18.3224C9.2616 18.2446 9.33604 18.188 9.42317 18.165C9.46629 18.1536 9.51124 18.1509 9.55543 18.1569C9.59962 18.1629 9.64219 18.1776 9.6807 18.2001C9.7192 18.2226 9.75289 18.2525 9.77983 18.2881C9.80677 18.3236 9.82644 18.3641 9.8377 18.4073L10.0969 19.3917Z" fill="#00C40A"/>
<path d="M10.9096 19.6137C10.8587 19.699 10.6865 19.6902 10.5268 19.594C10.3654 19.4977 10.2763 19.3506 10.3272 19.2659L10.6039 18.8021C10.6547 18.7168 10.8265 18.7256 10.9867 18.8218C11.1508 18.9181 11.2372 19.0652 11.1863 19.1499L10.9096 19.6137Z" fill="#00C40A"/>
<path d="M9.91808 19.5109C9.98338 19.5533 10.03 19.619 10.0483 19.6947C10.0666 19.7704 10.0552 19.8502 10.0165 19.9177C9.94543 20.0916 9.78629 20.1912 9.6616 20.1398L8.98129 19.8625C8.91598 19.8201 8.86942 19.7543 8.85121 19.6786C8.833 19.6029 8.84452 19.5231 8.8834 19.4556C8.95394 19.2817 9.11308 19.1822 9.23832 19.2336L9.91808 19.5109Z" fill="#1CFF28"/>
<path d="M14.4331 19.8926C14.377 19.9631 14.2952 20.0084 14.2057 20.0187C14.1162 20.0289 14.0263 20.0032 13.9557 19.9473C13.9207 19.9196 13.8916 19.8853 13.8699 19.8463C13.8483 19.8073 13.8345 19.7645 13.8294 19.7202C13.8243 19.6759 13.828 19.631 13.8403 19.5882C13.8526 19.5453 13.8732 19.5053 13.901 19.4704L14.531 18.6698C14.587 18.5993 14.6687 18.554 14.7581 18.5437C14.8475 18.5335 14.9373 18.5592 15.0079 18.6151C15.0783 18.6711 15.1236 18.7528 15.1339 18.8422C15.1441 18.9316 15.1185 19.0215 15.0625 19.092L14.4331 19.8926Z" fill="#00C40A"/>
<path d="M14.7454 20.6719C14.6464 20.6828 14.5502 20.5406 14.5299 20.3541C14.5091 20.1677 14.5731 20.0074 14.6716 19.997L15.2086 19.9385C15.307 19.9276 15.4038 20.0698 15.4241 20.2563C15.4443 20.4427 15.3809 20.603 15.2824 20.6134L14.7454 20.6719Z" fill="#00C40A"/>
<path d="M14.2297 19.8215C14.2647 19.9522 14.1454 20.0949 13.9644 20.1452C13.8925 20.1751 13.8118 20.1762 13.739 20.1483C13.6662 20.1205 13.607 20.0657 13.5734 19.9954L13.3847 19.2845C13.3503 19.1543 13.469 19.011 13.6505 18.9613C13.7224 18.9313 13.803 18.9301 13.8758 18.9579C13.9485 18.9857 14.0079 19.0403 14.0415 19.1105L14.2297 19.8215Z" fill="#1CFF28"/>
<path d="M13.2502 22.8752C13.226 22.9127 13.1946 22.945 13.1579 22.9704C13.1212 22.9957 13.0798 23.0135 13.0362 23.0229C12.9926 23.0322 12.9475 23.0329 12.9037 23.0248C12.8598 23.0168 12.8179 23.0001 12.7805 22.9759C12.743 22.9516 12.7108 22.9202 12.6855 22.8834C12.6602 22.8467 12.6424 22.8053 12.6331 22.7617C12.6238 22.7181 12.6232 22.6731 12.6313 22.6292C12.6394 22.5854 12.6561 22.5435 12.6804 22.5061L13.2344 21.6508C13.2586 21.6134 13.29 21.5811 13.3268 21.5558C13.3635 21.5305 13.4049 21.5127 13.4485 21.5035C13.4921 21.4942 13.5372 21.4936 13.581 21.5017C13.6249 21.5098 13.6667 21.5264 13.7041 21.5507C13.7416 21.5749 13.7739 21.6062 13.7992 21.6429C13.8245 21.6796 13.8424 21.7209 13.8517 21.7645C13.8611 21.808 13.8617 21.853 13.8537 21.8969C13.8456 21.9407 13.829 21.9825 13.8048 22.0199L13.2502 22.8752Z" fill="#00C40A"/>
<path d="M13.6336 23.625C13.5362 23.6447 13.4268 23.5118 13.3897 23.3281C13.3519 23.1443 13.4006 22.9792 13.499 22.9589L14.0284 22.8495C14.1258 22.8299 14.2351 22.9627 14.2723 23.1465C14.3101 23.3302 14.2614 23.4954 14.1629 23.5151L13.6336 23.625Z" fill="#00C40A"/>
<path d="M13.0413 22.8233C13.0884 22.9502 12.9834 23.1055 12.8073 23.1705C12.7383 23.2068 12.658 23.2153 12.583 23.1942C12.5079 23.1732 12.4438 23.1242 12.4037 23.0573L12.151 22.3683C12.1045 22.2414 12.2095 22.0861 12.3856 22.0216C12.4545 21.9852 12.5346 21.9766 12.6096 21.9975C12.6846 22.0185 12.7487 22.0674 12.7887 22.1342L13.0413 22.8233Z" fill="#1CFF28"/>
<path d="M14.076 25.567C14.0874 25.6101 14.0902 25.655 14.0842 25.6992C14.0782 25.7434 14.0636 25.786 14.0411 25.8246C14.0187 25.8631 13.9889 25.8969 13.9534 25.9239C13.9179 25.9509 13.8774 25.9707 13.8343 25.982C13.7911 25.9934 13.7462 25.9962 13.7019 25.9902C13.6577 25.9841 13.6151 25.9695 13.5765 25.947C13.538 25.9244 13.5043 25.8946 13.4773 25.859C13.4503 25.8235 13.4306 25.7829 13.4192 25.7398L13.16 24.7554C13.1372 24.6683 13.1499 24.5757 13.1953 24.498C13.2408 24.4202 13.3152 24.3637 13.4023 24.3409C13.4894 24.318 13.582 24.3306 13.6598 24.3759C13.7376 24.4212 13.7942 24.4956 13.8174 24.5826L14.076 25.567Z" fill="#00C40A"/>
<path d="M14.8886 25.789C14.8378 25.8743 14.6661 25.8656 14.5058 25.7693C14.3445 25.6731 14.2554 25.5259 14.3062 25.4412L14.5829 24.978C14.6338 24.8927 14.8061 24.9014 14.9658 24.9971C15.1298 25.0934 15.2162 25.2405 15.1654 25.3252L14.8886 25.789Z" fill="#00C40A"/>
<path d="M13.8972 25.6867C13.9626 25.729 14.0093 25.7948 14.0276 25.8705C14.0459 25.9462 14.0345 26.0261 13.9956 26.0936C13.9245 26.267 13.7659 26.367 13.6407 26.3156L12.9609 26.0378C12.8954 25.9956 12.8487 25.9298 12.8304 25.8541C12.812 25.7783 12.8235 25.6984 12.8625 25.6309C12.933 25.4576 13.0922 25.3575 13.2174 25.4089L13.8972 25.6867Z" fill="#1CFF28"/>
<path d="M11.3596 25.2017C11.3333 25.2377 11.3001 25.2681 11.262 25.2912C11.2238 25.3144 11.1815 25.3298 11.1374 25.3365C11.0933 25.3433 11.0483 25.3413 11.005 25.3306C10.9617 25.32 10.9209 25.3008 10.885 25.2744C10.849 25.248 10.8185 25.2148 10.7954 25.1767C10.7722 25.1386 10.7568 25.0962 10.7501 25.0521C10.7433 25.008 10.7453 24.963 10.756 24.9197C10.7667 24.8764 10.7858 24.8356 10.8122 24.7997L11.4138 23.9794C11.4671 23.9068 11.547 23.8584 11.6361 23.8447C11.7251 23.8311 11.8159 23.8534 11.8885 23.9067C11.9611 23.96 12.0095 24.0399 12.0231 24.1289C12.0368 24.218 12.0145 24.3087 11.9612 24.3813L11.3596 25.2017Z" fill="#00C40A"/>
<path d="M11.6987 25.9727C11.6003 25.987 11.4985 25.8475 11.4723 25.6621C11.4455 25.4762 11.5035 25.3143 11.6019 25.3001L12.1362 25.2235C12.2346 25.2093 12.3364 25.3482 12.3626 25.5341C12.3894 25.7195 12.3314 25.882 12.233 25.8956L11.6987 25.9727Z" fill="#00C40A"/>
<path d="M11.1562 25.1377C11.1956 25.2667 11.0818 25.416 10.9019 25.4702C10.831 25.5025 10.7505 25.5064 10.6768 25.4811C10.6031 25.4557 10.542 25.4031 10.506 25.334L10.2938 24.6313C10.255 24.5016 10.3687 24.3529 10.5481 24.2987C10.6189 24.2663 10.6996 24.2623 10.7733 24.2876C10.847 24.313 10.9081 24.3657 10.944 24.4349L11.1562 25.1377Z" fill="#1CFF28"/>
<path d="M8.51756 24.2752C8.56206 24.272 8.60676 24.2775 8.64912 24.2915C8.69148 24.3055 8.73066 24.3277 8.76444 24.3568C8.79821 24.386 8.82591 24.4215 8.84595 24.4614C8.86599 24.5012 8.87798 24.5447 8.88124 24.5891C8.88452 24.6336 8.879 24.6783 8.86499 24.7207C8.85099 24.7631 8.82878 24.8022 8.79963 24.836C8.77048 24.8698 8.73496 24.8975 8.6951 24.9175C8.65524 24.9376 8.61182 24.9496 8.56733 24.9528L7.55124 25.0272C7.50674 25.0305 7.46204 25.025 7.41968 25.011C7.37732 24.997 7.33813 24.9747 7.30436 24.9456C7.27059 24.9164 7.24289 24.8809 7.22285 24.8411C7.20281 24.8012 7.19082 24.7578 7.18756 24.7133C7.18429 24.6688 7.18981 24.6242 7.20382 24.5818C7.21783 24.5395 7.24004 24.5003 7.2692 24.4666C7.29836 24.4329 7.33388 24.4052 7.37374 24.3853C7.41359 24.3653 7.457 24.3534 7.50147 24.3502L8.51756 24.2752Z" fill="#00C40A"/>
<path d="M8.8845 23.5156C8.95888 23.5813 8.91896 23.7486 8.79482 23.8891C8.67068 24.0302 8.5099 24.0909 8.43552 24.0253L8.03029 23.6688C7.95536 23.6031 7.99583 23.4352 8.11943 23.2947C8.24357 23.1541 8.40435 23.0929 8.47927 23.1585L8.8845 23.5156Z" fill="#00C40A"/>
<path d="M8.60231 24.4732C8.65584 24.4167 8.72902 24.3829 8.80675 24.3787C8.88448 24.3745 8.96084 24.4003 9.02012 24.4508C9.09073 24.4837 9.14604 24.5424 9.17463 24.6148C9.20322 24.6873 9.20292 24.7679 9.17379 24.8402L8.77676 25.4581C8.72323 25.5146 8.65006 25.5485 8.57233 25.5526C8.4946 25.5568 8.41823 25.531 8.35895 25.4805C8.28791 25.448 8.23211 25.3893 8.20309 25.3167C8.17408 25.2442 8.17408 25.1632 8.20309 25.0906L8.60231 24.4732Z" fill="#1CFF28"/>
<path d="M15.5219 22.1446C15.46 22.21 15.3747 22.2481 15.2847 22.2507C15.1947 22.2533 15.1073 22.22 15.0418 22.1583C14.9764 22.0964 14.9382 22.011 14.9357 21.921C14.9331 21.831 14.9664 21.7437 15.0281 21.6781L15.7281 20.9377C15.7587 20.9052 15.7954 20.879 15.8361 20.8607C15.8768 20.8425 15.9207 20.8324 15.9653 20.8311C16.0099 20.8299 16.0544 20.8374 16.096 20.8533C16.1377 20.8693 16.1759 20.8933 16.2082 20.924C16.2736 20.9859 16.3118 21.0712 16.3143 21.1612C16.3169 21.2512 16.2837 21.3386 16.2219 21.4041L15.5219 22.1446Z" fill="#00C40A"/>
<path d="M15.7631 22.9513C15.6636 22.9513 15.5805 22.8031 15.5766 22.6155C15.5734 22.4279 15.651 22.2742 15.7505 22.2726L16.2903 22.2622C16.3893 22.2622 16.473 22.4109 16.4762 22.5985C16.4801 22.7861 16.4024 22.9398 16.3029 22.9414L15.7631 22.9513Z" fill="#00C40A"/>
<path d="M15.3262 22.0555C15.3491 22.1889 15.2168 22.3223 15.0325 22.3541C14.8476 22.3858 14.6792 22.3032 14.6568 22.1703L14.5326 21.4463C14.5102 21.3128 14.642 21.1794 14.8263 21.1477C15.0112 21.1165 15.1796 21.1985 15.2026 21.332L15.3262 22.0555Z" fill="#1CFF28"/>
<path d="M15.8867 24.3857C15.8981 24.4289 15.9009 24.4739 15.8948 24.5181C15.8888 24.5623 15.8741 24.6049 15.8516 24.6435C15.8291 24.682 15.7993 24.7158 15.7637 24.7428C15.7282 24.7698 15.6876 24.7895 15.6445 24.8008C15.5573 24.8236 15.4646 24.8109 15.3868 24.7655C15.309 24.7201 15.2524 24.6456 15.2294 24.5585L14.9707 23.5741C14.9593 23.5311 14.9566 23.4861 14.9626 23.442C14.9685 23.3978 14.9832 23.3553 15.0056 23.3168C15.0281 23.2783 15.0579 23.2446 15.0934 23.2176C15.1289 23.1906 15.1693 23.1709 15.2124 23.1596C15.2995 23.1368 15.3921 23.1494 15.4699 23.1947C15.5477 23.24 15.6044 23.3143 15.6275 23.4013L15.8867 24.3857Z" fill="#00C40A"/>
<path d="M16.6988 24.6094C16.6479 24.6947 16.4762 24.6859 16.316 24.5897C16.1552 24.4934 16.0655 24.3463 16.1169 24.2616L16.3936 23.7984C16.4445 23.7131 16.6162 23.7218 16.7764 23.8175C16.9405 23.9138 17.0269 24.0609 16.9761 24.1456L16.6988 24.6094Z" fill="#00C40A"/>
<path d="M15.7073 24.5055C15.7728 24.5477 15.8196 24.6135 15.8379 24.6892C15.8562 24.765 15.8447 24.8449 15.8057 24.9124C15.7347 25.0857 15.5761 25.1858 15.4508 25.1344L14.7711 24.8566C14.7056 24.8144 14.6588 24.7486 14.6405 24.6728C14.6221 24.5971 14.6337 24.5172 14.6726 24.4497C14.7437 24.2763 14.9023 24.1763 15.0275 24.2277L15.7073 24.5055Z" fill="#1CFF28"/>
<path d="M11.4986 21.2434C11.4817 21.2846 11.4569 21.3221 11.4256 21.3537C11.3942 21.3854 11.3569 21.4105 11.3158 21.4277C11.2747 21.445 11.2306 21.4539 11.1861 21.4541C11.1416 21.4543 11.0974 21.4456 11.0562 21.4288C11.0149 21.4119 10.9773 21.387 10.9456 21.3557C10.9139 21.3243 10.8887 21.2869 10.8714 21.2458C10.8542 21.2047 10.8452 21.1605 10.845 21.1159C10.8448 21.0713 10.8534 21.0271 10.8702 20.9858L11.2558 20.043C11.29 19.9597 11.3558 19.8933 11.4388 19.8584C11.5219 19.8236 11.6154 19.8231 11.6988 19.857C11.7401 19.8739 11.7776 19.8987 11.8093 19.9301C11.841 19.9615 11.8662 19.9989 11.8835 20.04C11.9008 20.0811 11.9098 20.1253 11.91 20.1699C11.9102 20.2145 11.9016 20.2587 11.8847 20.3L11.4986 21.2434Z" fill="#00C40A"/>
<path d="M12.0143 21.9089C11.9224 21.9466 11.7906 21.8362 11.7195 21.6628C11.6484 21.4889 11.6648 21.3177 11.7578 21.28L12.2576 21.076C12.3495 21.0388 12.4818 21.1493 12.5524 21.3227C12.6235 21.4966 12.6071 21.6677 12.5141 21.7055L12.0143 21.9089Z" fill="#00C40A"/>
<path d="M11.2842 21.2308C11.3104 21.3035 11.3081 21.3835 11.2776 21.4545C11.2472 21.5256 11.1909 21.5824 11.1201 21.6136C11.0591 21.662 10.9818 21.6852 10.9042 21.6784C10.8266 21.6716 10.7546 21.6353 10.7029 21.577L10.3266 20.9464C10.2572 20.8305 10.3321 20.6588 10.4907 20.5636C10.5517 20.5151 10.6289 20.4918 10.7065 20.4986C10.7841 20.5053 10.8562 20.5415 10.908 20.5997L11.2842 21.2308Z" fill="#1CFF28"/>
<path d="M12.3418 18.9536C12.3087 18.9834 12.2699 19.0064 12.2279 19.0212C12.1858 19.0361 12.1413 19.0425 12.0967 19.0401C12.0522 19.0377 12.0086 19.0266 11.9683 19.0073C11.9281 18.9881 11.892 18.9611 11.8622 18.9279C11.8324 18.8947 11.8095 18.856 11.7946 18.8139C11.7798 18.7719 11.7734 18.7273 11.7758 18.6828C11.7781 18.6382 11.7893 18.5946 11.8085 18.5544C11.8278 18.5141 11.8548 18.4781 11.8879 18.4483L12.6459 17.7669C12.6791 17.7371 12.7178 17.7141 12.7599 17.6993C12.8019 17.6844 12.8465 17.678 12.891 17.6804C12.9356 17.6828 12.9792 17.6939 13.0194 17.7132C13.0597 17.7324 13.0957 17.7594 13.1255 17.7926C13.1553 17.8258 13.1783 17.8645 13.1931 17.9066C13.208 17.9486 13.2144 17.9932 13.212 18.0377C13.2096 18.0823 13.1985 18.1259 13.1792 18.1661C13.16 18.2064 13.133 18.2424 13.0998 18.2722L12.3418 18.9536Z" fill="#00C40A"/>
<path d="M12.5163 19.7772C12.4173 19.7712 12.3462 19.6131 12.3583 19.4272C12.3703 19.2396 12.46 19.0931 12.559 19.0991L13.0982 19.133C13.1972 19.139 13.2683 19.297 13.2562 19.483C13.2442 19.6706 13.1545 19.8171 13.055 19.8111L12.5163 19.7772Z" fill="#00C40A"/>
<path d="M12.1543 18.8486C12.1657 18.9831 12.0241 19.1056 11.8371 19.122C11.65 19.1385 11.4893 19.0427 11.4772 18.9082L11.4132 18.1765C11.4012 18.042 11.5434 17.9195 11.7299 17.9031C11.9169 17.8867 12.0782 17.9824 12.0897 18.1174L12.1543 18.8486Z" fill="#1CFF28"/>
<path d="M14.4096 29.3207C14.4096 29.3207 14.047 29.9064 14.9832 29.7413C15.9195 29.5761 15.5766 29.2037 15.5766 29.2037C15.5766 29.2037 15.3387 30.0557 15.92 29.5761C16.2846 29.2203 16.4944 28.7352 16.5041 28.2259C16.5041 28.2259 16.7655 29.2715 17.5344 28.4698C17.6412 28.3855 17.7284 28.2791 17.7902 28.1579C17.852 28.0367 17.8869 27.9036 17.8925 27.7676C17.898 27.6317 17.8741 27.4962 17.8224 27.3704C17.7707 27.2445 17.6924 27.1314 17.5929 27.0386C17.5929 27.0386 17.8281 26.4863 18.0709 26.477C18.3137 26.4677 18.0879 25.8207 18.0879 25.8207L18.2082 25.2443C18.2082 25.2443 18.119 24.5487 17.5918 24.4541C17.0646 24.3595 18.5281 24.29 18.4854 23.9192C18.4428 23.5484 17.6356 23.3806 17.6356 23.3806C17.6356 23.3806 18.4012 23.1793 17.6766 22.6073C17.4366 22.4381 17.1645 22.3198 16.8771 22.2598C16.5897 22.1998 16.293 22.1993 16.0054 22.2584L16.3882 21.8575C16.3882 21.8575 15.7932 21.2521 15.5843 21.3888C15.3754 21.5256 15.2649 20.901 14.9313 20.7714C14.5977 20.6418 14.1771 21.2155 14.1771 21.2155C14.1771 21.2155 13.4329 20.4586 12.9598 20.4198C12.4868 20.3809 12.3823 21.0645 12.3823 21.0645C12.3823 21.0645 12.1242 20.9667 11.6938 21.2981C11.2634 21.6295 10.751 21.0246 10.5858 22.0517C10.4207 23.0787 11.1168 22.6209 11.1168 22.6209C11.1168 22.6209 10.1806 22.4109 10.2129 22.8758C10.2451 23.3406 11.0611 23.6534 11.0611 23.6534C11.0611 23.6534 9.97988 23.5714 10.2954 24.3584C10.3571 24.5677 10.4751 24.7561 10.6366 24.903C10.798 25.0499 10.9967 25.1496 11.2109 25.1913C11.2109 25.1913 11.1234 25.5084 11.0665 25.766C11.0096 26.0236 11.7578 26.3217 11.7578 26.3217C11.7578 26.3217 11.5866 26.0548 11.9043 26.7373C12.1428 27.1729 12.5413 27.4989 13.0156 27.6462C13.0156 27.6462 12.5491 28.1504 12.8231 28.5682C13.0971 28.986 13.9874 28.7514 13.9874 28.7514C13.9874 28.7514 12.8821 29.7232 14.4096 29.3207Z" fill="#009C08"/>
<path d="M15.3125 28.8903C15.2935 28.8106 15.307 28.7267 15.3498 28.6569C15.3927 28.5871 15.4614 28.5371 15.541 28.5179C15.6207 28.499 15.7047 28.5124 15.7745 28.5553C15.8443 28.5981 15.8943 28.6669 15.9135 28.7465L16.1289 29.6477C16.148 29.7274 16.1347 29.8113 16.092 29.8811C16.0492 29.951 15.9805 30.001 15.9009 30.0202C15.8212 30.0391 15.7373 30.0257 15.6675 29.9828C15.5976 29.94 15.5477 29.8712 15.5285 29.7916L15.3125 28.8903Z" fill="#00C40A"/>
<path d="M14.5791 28.6721C14.6273 28.5956 14.7831 28.607 14.9275 28.6978C15.0724 28.7886 15.1506 28.9242 15.1025 29.0008L14.8416 29.4164C14.7935 29.493 14.6376 29.4815 14.4927 29.3913C14.3484 29.3005 14.2701 29.1649 14.3183 29.0883L14.5791 28.6721Z" fill="#00C40A"/>
<path d="M15.4766 28.7853C15.4173 28.7461 15.3757 28.6853 15.3605 28.6159C15.3453 28.5465 15.3577 28.4739 15.3951 28.4135C15.4629 28.257 15.6094 28.1695 15.7232 28.2188L16.3357 28.4845C16.3944 28.5242 16.4356 28.585 16.4507 28.6542C16.4659 28.7234 16.4539 28.7958 16.4172 28.8564C16.3494 29.0134 16.2028 29.1003 16.0891 29.0511L15.4766 28.7853Z" fill="#1CFF28"/>
<path d="M17.664 25.5883C17.592 25.5492 17.5385 25.4831 17.5152 25.4045C17.492 25.326 17.5008 25.2414 17.5399 25.1694C17.5592 25.1338 17.5854 25.1023 17.6168 25.0767C17.6483 25.0512 17.6845 25.0321 17.7234 25.0206C17.7622 25.0091 17.803 25.0053 17.8433 25.0096C17.8836 25.0138 17.9227 25.0259 17.9583 25.0452L18.7731 25.4866C18.8451 25.5257 18.8986 25.5918 18.9219 25.6703C18.9452 25.7489 18.9363 25.8335 18.8973 25.9055C18.8779 25.9411 18.8518 25.9726 18.8203 25.9981C18.7889 26.0236 18.7527 26.0427 18.7138 26.0543C18.6749 26.0658 18.6342 26.0695 18.5939 26.0653C18.5536 26.0611 18.5145 26.049 18.4789 26.0296L17.664 25.5883Z" fill="#00C40A"/>
<path d="M17.0078 25.9892C16.9832 25.9022 17.0958 25.7934 17.2599 25.7463C17.4239 25.6993 17.5771 25.7321 17.6017 25.8191L17.7373 26.291C17.7619 26.378 17.6493 26.4863 17.4852 26.5333C17.3211 26.5803 17.168 26.5481 17.1434 26.4611L17.0078 25.9892Z" fill="#00C40A"/>
<path d="M17.6941 25.3952C17.5847 25.4467 17.4343 25.3624 17.366 25.2071C17.328 25.1473 17.3145 25.0751 17.3282 25.0056C17.342 24.9361 17.3819 24.8745 17.4398 24.8336L18.0468 24.5558C18.1562 24.5044 18.3066 24.5886 18.3777 24.7439C18.4157 24.8038 18.4292 24.8759 18.4154 24.9454C18.4017 25.015 18.3618 25.0765 18.3039 25.1174L17.6941 25.3952Z" fill="#1CFF28"/>
<path d="M15.6576 24.1872C15.6385 24.1076 15.6518 24.0236 15.6945 23.9538C15.7373 23.884 15.806 23.834 15.8856 23.8148C15.9653 23.7958 16.0492 23.8093 16.119 23.8521C16.1889 23.895 16.2388 23.9637 16.258 24.0434L16.474 24.9446C16.493 25.0243 16.4795 25.1082 16.4367 25.1781C16.3938 25.2479 16.3251 25.2978 16.2455 25.317C16.1658 25.336 16.0818 25.3225 16.012 25.2797C15.9422 25.2368 15.8922 25.1681 15.873 25.0884L15.6576 24.1872Z" fill="#00C40A"/>
<path d="M14.9231 23.969C14.9713 23.8924 15.1271 23.9039 15.2715 23.9947C15.4164 24.0855 15.4946 24.2211 15.4465 24.2977L15.1856 24.7133C15.1375 24.7899 14.9816 24.7784 14.8367 24.6881C14.6923 24.5974 14.6141 24.4617 14.6623 24.3852L14.9231 23.969Z" fill="#00C40A"/>
<path d="M15.8227 24.0822C15.7635 24.0429 15.7219 23.9822 15.7067 23.9128C15.6914 23.8434 15.7039 23.7707 15.7413 23.7103C15.8091 23.5539 15.9556 23.467 16.0694 23.5156L16.6824 23.7814C16.741 23.8214 16.782 23.8822 16.797 23.9515C16.8121 24.0208 16.8 24.0932 16.7634 24.1538C16.6956 24.3102 16.549 24.3972 16.4352 24.3485L15.8227 24.0822Z" fill="#1CFF28"/>
<path d="M15.9687 27.3044C15.9496 27.2248 15.9629 27.1408 16.0057 27.071C16.0484 27.0012 16.1172 26.9512 16.1968 26.932C16.2362 26.9225 16.2772 26.9209 16.3172 26.9273C16.3573 26.9337 16.3957 26.9479 16.4303 26.9691C16.4649 26.9904 16.495 27.0182 16.5188 27.051C16.5426 27.0839 16.5597 27.1211 16.5692 27.1606L16.7852 28.0618C16.8041 28.1415 16.7907 28.2254 16.7479 28.2952C16.705 28.365 16.6362 28.415 16.5566 28.4342C16.4769 28.4532 16.393 28.4397 16.3232 28.3969C16.2534 28.354 16.2034 28.2853 16.1842 28.2056L15.9687 27.3044Z" fill="#00C40A"/>
<path d="M15.2332 27.0867C15.2813 27.0102 15.4372 27.0211 15.5821 27.1119C15.7265 27.2027 15.8047 27.3383 15.7565 27.4149L15.4957 27.8305C15.4476 27.907 15.2917 27.8956 15.1473 27.8053C15.0024 27.7145 14.9242 27.5789 14.9723 27.5024L15.2332 27.0867Z" fill="#00C40A"/>
<path d="M16.1328 27.1994C16.0742 27.1596 16.0331 27.0989 16.0179 27.0297C16.0028 26.9605 16.0147 26.8881 16.0513 26.8275C16.1197 26.6711 16.2657 26.5841 16.3794 26.6328L16.9919 26.8991C17.0504 26.939 17.0914 26.9998 17.1065 27.069C17.1215 27.1381 17.1095 27.2104 17.0729 27.271C17.0051 27.4274 16.8585 27.5144 16.7448 27.4657L16.1328 27.1994Z" fill="#1CFF28"/>
<path d="M12.035 26.7619C12.0609 26.7302 12.0928 26.704 12.1288 26.6848C12.1648 26.6655 12.2043 26.6536 12.245 26.6497C12.2857 26.6458 12.3267 26.65 12.3658 26.662C12.4048 26.674 12.4411 26.6937 12.4725 26.7198C12.5042 26.7456 12.5304 26.7775 12.5496 26.8136C12.5689 26.8496 12.5808 26.8892 12.5847 26.9298C12.5885 26.9705 12.5843 27.0116 12.5722 27.0506C12.5601 27.0897 12.5403 27.1259 12.5141 27.1573L11.9218 27.8698C11.8697 27.9331 11.7947 27.973 11.7132 27.9809C11.6316 27.9888 11.5503 27.964 11.4871 27.912C11.4554 27.8861 11.4291 27.8543 11.4098 27.8182C11.3905 27.7822 11.3786 27.7427 11.3747 27.702C11.3707 27.6613 11.3749 27.6202 11.387 27.5812C11.3991 27.5421 11.4188 27.5058 11.445 27.4745L12.035 26.7619Z" fill="#00C40A"/>
<path d="M11.7671 26.0444C11.8568 26.0367 11.9421 26.168 11.9569 26.3381C11.9716 26.5081 11.9104 26.652 11.8202 26.6602L11.3312 26.7023C11.241 26.7099 11.1562 26.5787 11.1415 26.4086C11.1267 26.2391 11.188 26.0947 11.2777 26.087L11.7671 26.0444Z" fill="#00C40A"/>
<path d="M12.2188 26.8302C12.1898 26.711 12.3009 26.5814 12.4666 26.5415C12.5326 26.5159 12.606 26.5165 12.6715 26.5432C12.7371 26.57 12.79 26.6208 12.8193 26.6853L12.9757 27.3345C13.0047 27.4537 12.8937 27.5833 12.728 27.6232C12.662 27.6491 12.5885 27.6486 12.5228 27.6218C12.4572 27.5951 12.4043 27.5441 12.3752 27.4794L12.2188 26.8302Z" fill="#1CFF28"/>
<path d="M13.1704 24.0735C13.2165 24.0057 13.2876 23.9591 13.3681 23.9437C13.4486 23.9283 13.5318 23.9455 13.5997 23.9914C13.6674 24.0376 13.714 24.1086 13.7294 24.1891C13.7448 24.2696 13.7276 24.3529 13.6817 24.4207L13.1611 25.1863C13.115 25.254 13.0439 25.3007 12.9634 25.3161C12.8829 25.3314 12.7996 25.3143 12.7318 25.2684C12.6641 25.2222 12.6174 25.1511 12.6021 25.0707C12.5867 24.9902 12.6038 24.9069 12.6498 24.8391L13.1704 24.0735Z" fill="#00C40A"/>
<path d="M12.8373 23.3838C12.9259 23.368 13.0227 23.4932 13.0533 23.6573C13.0834 23.8252 13.0358 23.9739 12.9472 23.9903L12.4638 24.0773C12.3752 24.0937 12.2784 23.9679 12.2478 23.8038C12.2177 23.6359 12.2653 23.4866 12.3539 23.4708L12.8373 23.3838Z" fill="#00C40A"/>
<path d="M13.3596 24.1248C13.3197 24.0084 13.4181 23.8695 13.5783 23.8142C13.6416 23.7824 13.7146 23.776 13.7825 23.7964C13.8503 23.8167 13.9078 23.8622 13.9431 23.9236L14.1591 24.5558C14.1985 24.6717 14.1001 24.8112 13.9404 24.8664C13.8772 24.8982 13.8042 24.9045 13.7365 24.8842C13.6688 24.8639 13.6114 24.8184 13.5762 24.757L13.3596 24.1248Z" fill="#1CFF28"/>
<path d="M12.4742 21.6092C12.4647 21.5698 12.4632 21.5288 12.4695 21.4888C12.4759 21.4487 12.4901 21.4103 12.5113 21.3757C12.5326 21.3411 12.5604 21.311 12.5933 21.2872C12.6261 21.2634 12.6633 21.2462 12.7028 21.2368C12.7824 21.2179 12.8663 21.2313 12.936 21.2742C13.0057 21.3171 13.0556 21.3858 13.0747 21.4654L13.289 22.3672C13.308 22.4469 13.2945 22.5308 13.2517 22.6006C13.2088 22.6704 13.1401 22.7204 13.0604 22.7396C12.9807 22.7585 12.8968 22.7451 12.827 22.7023C12.7572 22.6594 12.7072 22.5906 12.688 22.511L12.4742 21.6092Z" fill="#00C40A"/>
<path d="M11.7398 21.3916C11.7879 21.315 11.9438 21.3259 12.0887 21.4167C12.2331 21.5075 12.3113 21.6431 12.2631 21.7197L12.0023 22.1353C11.9541 22.2119 11.7983 22.2009 11.6539 22.1102C11.509 22.0194 11.4308 21.8838 11.4789 21.8072L11.7398 21.3916Z" fill="#00C40A"/>
<path d="M12.6393 21.5042C12.5807 21.4644 12.5396 21.4037 12.5245 21.3345C12.5093 21.2653 12.5213 21.193 12.5578 21.1323C12.6262 20.9759 12.7722 20.889 12.886 20.9377L13.4985 21.204C13.557 21.2439 13.598 21.3046 13.613 21.3738C13.6281 21.443 13.616 21.5153 13.5794 21.5759C13.5116 21.7323 13.365 21.8192 13.2513 21.7705L12.6393 21.5042Z" fill="#1CFF28"/>
<path d="M14.9368 21.9964C14.987 21.9318 15.0608 21.8897 15.142 21.8795C15.2232 21.8692 15.3052 21.8916 15.3699 21.9417C15.4345 21.992 15.4766 22.0658 15.4868 22.147C15.4971 22.2282 15.4747 22.3101 15.4246 22.3748L14.8602 23.1098C14.81 23.1745 14.7362 23.2165 14.655 23.2268C14.5738 23.237 14.4918 23.2146 14.4271 23.1645C14.3625 23.1143 14.3204 23.0405 14.3102 22.9593C14.2999 22.8781 14.3223 22.7961 14.3724 22.7314L14.9368 21.9964Z" fill="#00C40A"/>
<path d="M14.6442 21.2888C14.7339 21.2778 14.8231 21.4063 14.8438 21.5759C14.8641 21.7449 14.8077 21.8909 14.7181 21.904L14.2308 21.9631C14.1411 21.974 14.052 21.8455 14.0312 21.676C14.0109 21.507 14.0667 21.361 14.1564 21.3478L14.6442 21.2888Z" fill="#00C40A"/>
<path d="M15.1221 22.0588C15.0893 21.9406 15.196 21.8072 15.36 21.7618C15.425 21.7331 15.4986 21.7308 15.5653 21.7554C15.6319 21.78 15.6864 21.8295 15.7171 21.8936L15.896 22.5367C15.9288 22.6554 15.8227 22.7883 15.6581 22.8342C15.593 22.8621 15.5197 22.864 15.4533 22.8395C15.3868 22.815 15.3323 22.7659 15.301 22.7024L15.1221 22.0588Z" fill="#1CFF28"/>
<path d="M17.5 22.896C17.4182 22.9002 17.3381 22.8717 17.2773 22.8169C17.2164 22.762 17.1799 22.6852 17.1757 22.6034C17.1735 22.5629 17.1794 22.5224 17.193 22.4841C17.2065 22.4459 17.2275 22.4107 17.2547 22.3806C17.2818 22.3505 17.3147 22.326 17.3513 22.3086C17.388 22.2912 17.4277 22.2812 17.4682 22.2791L18.3936 22.2316C18.4341 22.2295 18.4746 22.2355 18.5129 22.2491C18.5511 22.2627 18.5863 22.2837 18.6164 22.3109C18.6466 22.3382 18.671 22.371 18.6884 22.4077C18.7058 22.4444 18.7158 22.4841 18.7178 22.5247C18.7199 22.5652 18.714 22.6056 18.7004 22.6438C18.6868 22.682 18.6658 22.7171 18.6386 22.7472C18.6115 22.7773 18.5786 22.8017 18.542 22.8191C18.5054 22.8364 18.4657 22.8464 18.4253 22.8484L17.5 22.896Z" fill="#00C40A"/>
<path d="M17.1533 23.578C17.0871 23.5167 17.1265 23.3652 17.2424 23.24C17.3578 23.1142 17.5055 23.0623 17.5706 23.1235L17.932 23.456C17.9982 23.5173 17.9588 23.6688 17.8429 23.794C17.7275 23.9198 17.5798 23.9717 17.5148 23.9105L17.1533 23.578Z" fill="#00C40A"/>
<path d="M17.4289 22.7145C17.3789 22.7653 17.3112 22.795 17.2399 22.7972C17.1686 22.7994 17.0992 22.7741 17.0461 22.7265C16.9827 22.6949 16.9337 22.6403 16.9093 22.5738C16.8849 22.5073 16.8869 22.4339 16.9148 22.3688L17.2884 21.8154C17.3381 21.7651 17.4053 21.7358 17.476 21.7336C17.5467 21.7313 17.6156 21.7563 17.6684 21.8034C17.7321 21.8347 17.7812 21.8893 17.8057 21.9559C17.8303 22.0224 17.8283 22.0959 17.8002 22.161L17.4289 22.7145Z" fill="#1CFF28"/>
<path d="M11.0906 24.692C11.1191 24.6629 11.153 24.6398 11.1904 24.624C11.2279 24.6081 11.2681 24.5999 11.3088 24.5996C11.3494 24.5993 11.3897 24.6071 11.4274 24.6225C11.465 24.6379 11.4992 24.6606 11.5281 24.6892C11.5569 24.7179 11.5798 24.752 11.5954 24.7895C11.611 24.8271 11.6191 24.8673 11.6191 24.908C11.6191 24.9486 11.611 24.9889 11.5954 25.0264C11.5798 25.064 11.5569 25.0981 11.5281 25.1267L10.8773 25.7863C10.8193 25.8442 10.7406 25.8768 10.6585 25.8768C10.5765 25.8768 10.4978 25.8442 10.4398 25.7863C10.4108 25.7577 10.3878 25.7238 10.372 25.6863C10.3562 25.6489 10.3479 25.6087 10.3477 25.5681C10.3474 25.5274 10.3552 25.4871 10.3705 25.4495C10.3859 25.4119 10.4085 25.3776 10.4371 25.3488L11.0906 24.692Z" fill="#00C40A"/>
<path d="M10.8877 23.9531C10.9779 23.9531 11.0518 24.092 11.0518 24.2627C11.0518 24.4327 10.9774 24.5711 10.8877 24.5705H10.3955C10.3053 24.5705 10.2314 24.4316 10.2314 24.261C10.2314 24.0904 10.3058 23.9526 10.3955 23.9531H10.8877Z" fill="#00C40A"/>
<path d="M11.2656 24.7767C11.2476 24.6553 11.3701 24.5366 11.5391 24.5115C11.708 24.4863 11.8595 24.5662 11.8776 24.6865L11.9755 25.3471C11.9935 25.4685 11.871 25.5872 11.702 25.6123C11.533 25.6375 11.3816 25.5577 11.3635 25.4373L11.2656 24.7767Z" fill="#1CFF28"/>
<path d="M10.804 22.6466C10.7851 22.567 10.7986 22.4832 10.8414 22.4134C10.8843 22.3437 10.953 22.2938 11.0326 22.2748C11.072 22.2652 11.113 22.2636 11.153 22.2699C11.1931 22.2762 11.2315 22.2904 11.2661 22.3115C11.3007 22.3327 11.3308 22.3605 11.3546 22.3933C11.3785 22.4262 11.3956 22.4634 11.405 22.5028L11.6205 23.4041C11.63 23.4435 11.6317 23.4844 11.6254 23.5245C11.6191 23.5646 11.6049 23.603 11.5837 23.6376C11.5626 23.6722 11.5348 23.7023 11.5019 23.7261C11.4691 23.7499 11.4319 23.7671 11.3925 23.7765C11.353 23.786 11.312 23.7876 11.2719 23.7813C11.2318 23.775 11.1934 23.7608 11.1588 23.7395C11.1242 23.7183 11.0941 23.6904 11.0703 23.6575C11.0465 23.6247 11.0294 23.5874 11.02 23.5479L10.804 22.6466Z" fill="#00C40A"/>
<path d="M10.0702 22.429C10.1183 22.3524 10.2741 22.3639 10.4185 22.4541C10.5634 22.5449 10.6416 22.6806 10.5935 22.7571L10.3327 23.1727C10.2845 23.2493 10.1281 23.2384 9.98376 23.1476C9.83938 23.0568 9.76118 22.9212 9.8093 22.8446L10.0702 22.429Z" fill="#00C40A"/>
<path d="M10.9692 22.5422C10.9107 22.5022 10.8696 22.4414 10.8546 22.3721C10.8395 22.3028 10.8516 22.2304 10.8883 22.1698C10.9561 22.0134 11.1026 21.9264 11.2164 21.9751L11.8289 22.2414C11.8881 22.2807 11.9298 22.3414 11.945 22.4108C11.9602 22.4803 11.9478 22.5529 11.9104 22.6133C11.8425 22.7697 11.696 22.8567 11.5822 22.808L10.9692 22.5422Z" fill="#1CFF28"/>
<path d="M14.7301 25.5938C14.7463 25.5565 14.7697 25.5229 14.7989 25.4947C14.8281 25.4666 14.8626 25.4444 14.9004 25.4296C14.9382 25.4148 14.9785 25.4075 15.0191 25.4083C15.0597 25.4091 15.0997 25.4178 15.1369 25.4341C15.1741 25.4502 15.2078 25.4736 15.2359 25.5027C15.2641 25.5319 15.2862 25.5664 15.301 25.6041C15.3159 25.6419 15.3231 25.6821 15.3224 25.7227C15.3216 25.7632 15.3129 25.8032 15.2966 25.8404L14.9297 26.6875C14.9135 26.7247 14.8902 26.7583 14.861 26.7865C14.8318 26.8146 14.7974 26.8368 14.7596 26.8516C14.7219 26.8664 14.6816 26.8737 14.641 26.8729C14.6005 26.8722 14.5605 26.8634 14.5233 26.8472C14.4482 26.8145 14.3892 26.7534 14.3591 26.6772C14.3291 26.601 14.3305 26.516 14.3631 26.4409L14.7301 25.5938Z" fill="#00C40A"/>
<path d="M14.2734 24.9769C14.3576 24.9446 14.4757 25.0474 14.5365 25.2071C14.5972 25.3663 14.578 25.5216 14.4938 25.5538L14.035 25.7294C13.9507 25.7616 13.8332 25.6583 13.7719 25.4991C13.7112 25.34 13.7304 25.1847 13.8146 25.1524L14.2734 24.9769Z" fill="#00C40A"/>
<path d="M14.9253 25.6085C14.8646 25.4992 14.9357 25.3466 15.0844 25.2624C15.1408 25.2194 15.2115 25.1998 15.282 25.2075C15.3524 25.2152 15.4172 25.2498 15.4629 25.3039L15.791 25.8847C15.8517 25.9941 15.7806 26.1467 15.6319 26.2303C15.5756 26.2733 15.5049 26.2931 15.4345 26.2854C15.364 26.2778 15.2992 26.2434 15.2534 26.1893L14.9253 25.6085Z" fill="#1CFF28"/>
<path d="M13.9174 27.6577C13.9482 27.6309 13.984 27.6106 14.0227 27.5977C14.0614 27.5849 14.1023 27.5799 14.143 27.5829C14.1836 27.586 14.2233 27.5971 14.2597 27.6155C14.296 27.634 14.3284 27.6595 14.3549 27.6905C14.3817 27.7213 14.4021 27.757 14.415 27.7958C14.4278 27.8345 14.4329 27.8754 14.4298 27.9161C14.4268 27.9568 14.4157 27.9965 14.3972 28.0328C14.3787 28.0692 14.3532 28.1015 14.3221 28.128L13.6193 28.7295C13.5886 28.7564 13.5528 28.7769 13.5141 28.7898C13.4753 28.8027 13.4344 28.8078 13.3937 28.8047C13.353 28.8017 13.3133 28.7905 13.2769 28.772C13.2405 28.7535 13.2082 28.7279 13.1818 28.6967C13.155 28.6659 13.1346 28.6302 13.1217 28.5914C13.1089 28.5527 13.1038 28.5118 13.1069 28.4711C13.1099 28.4304 13.121 28.3907 13.1395 28.3544C13.158 28.318 13.1836 28.2857 13.2146 28.2592L13.9174 27.6577Z" fill="#00C40A"/>
<path d="M13.7752 26.9063C13.8655 26.9139 13.9267 27.0577 13.9125 27.2278C13.8977 27.3979 13.813 27.5291 13.7227 27.5215L13.2338 27.4799C13.1436 27.4723 13.0823 27.3284 13.0971 27.1584C13.1113 26.9883 13.1961 26.8565 13.2863 26.8641L13.7752 26.9063Z" fill="#00C40A"/>
<path d="M14.0864 27.7567C14.0782 27.6342 14.2094 27.5253 14.38 27.5144C14.5501 27.5034 14.6945 27.5937 14.7027 27.7162L14.7464 28.3828C14.7541 28.5053 14.6228 28.6136 14.4528 28.6251C14.2821 28.636 14.1378 28.5458 14.1296 28.4233L14.0864 27.7567Z" fill="#1CFF28"/>
<path d="M17.0975 15.5493L16.6053 15.8774C16.5409 15.9208 16.4889 15.9802 16.4547 16.0499C16.4204 16.1195 16.405 16.1969 16.41 16.2744C16.415 16.3518 16.4402 16.4266 16.4831 16.4913C16.526 16.556 16.5851 16.6083 16.6545 16.6431L16.6682 16.6502C16.7379 16.6849 16.8156 16.7007 16.8933 16.6959C16.9711 16.6912 17.0463 16.6661 17.1113 16.6232C17.1763 16.5803 17.2289 16.521 17.2638 16.4514C17.2987 16.3817 17.3147 16.3041 17.3102 16.2263L17.2763 15.6357C17.2746 15.6157 17.2677 15.5965 17.2564 15.58C17.245 15.5635 17.2296 15.5502 17.2115 15.5415C17.1935 15.5328 17.1735 15.5289 17.1535 15.5303C17.1335 15.5317 17.1142 15.5382 17.0975 15.5493Z" fill="white"/>
<path d="M16.7891 17.5716L16.2969 17.8998C16.2326 17.9432 16.1808 18.0027 16.1467 18.0723C16.1125 18.1419 16.0971 18.2193 16.1021 18.2967C16.1071 18.3741 16.1322 18.4488 16.175 18.5135C16.2178 18.5782 16.2768 18.6306 16.3461 18.6654L16.3603 18.6725C16.43 18.7072 16.5076 18.7231 16.5853 18.7184C16.663 18.7137 16.7381 18.6886 16.8031 18.6458C16.868 18.6029 16.9206 18.5437 16.9555 18.4741C16.9904 18.4045 17.0063 18.3269 17.0018 18.2492L16.9679 17.658C16.9664 17.638 16.9596 17.6187 16.9483 17.6021C16.9369 17.5855 16.9215 17.5721 16.9033 17.5634C16.8852 17.5546 16.8652 17.5508 16.8451 17.5522C16.825 17.5537 16.8057 17.5604 16.7891 17.5716Z" fill="white"/>
<path d="M19.4654 17.0253L19.3085 17.5957C19.2882 17.6706 19.288 17.7496 19.3077 17.8247C19.3274 17.8997 19.3665 17.9683 19.4209 18.0237C19.4754 18.079 19.5434 18.119 19.6182 18.1399C19.693 18.1608 19.7719 18.1617 19.8471 18.1426L19.8625 18.1387C19.9379 18.1195 20.007 18.0807 20.0627 18.0263C20.1184 17.9719 20.1589 17.9038 20.18 17.8289C20.2011 17.7539 20.2021 17.6747 20.183 17.5992C20.1638 17.5238 20.1251 17.4546 20.0708 17.3988L19.659 16.9739C19.6448 16.9593 19.627 16.9487 19.6073 16.9433C19.5876 16.9378 19.5669 16.9377 19.5472 16.9429C19.5275 16.9482 19.5095 16.9586 19.4951 16.973C19.4808 16.9875 19.4705 17.0056 19.4654 17.0253Z" fill="white"/>
<path d="M15.9255 15.9141L15.6625 16.4445C15.628 16.5143 15.6124 16.5919 15.6173 16.6695C15.6222 16.7472 15.6473 16.8222 15.6903 16.8871C15.7332 16.952 15.7925 17.0044 15.8621 17.0392C15.9317 17.0741 16.0092 17.09 16.0868 17.0855H16.1021C16.1799 17.081 16.2551 17.0562 16.3202 17.0135C16.3853 16.9707 16.4381 16.9117 16.4731 16.8421C16.5082 16.7726 16.5244 16.6951 16.52 16.6173C16.5157 16.5396 16.4909 16.4643 16.4483 16.3992L16.1251 15.9031C16.114 15.8862 16.0987 15.8724 16.0806 15.8632C16.0626 15.8541 16.0424 15.8498 16.0222 15.851C16.0019 15.8521 15.9823 15.8585 15.9654 15.8696C15.9484 15.8806 15.9347 15.896 15.9255 15.9141Z" fill="white"/>
<path d="M17.7926 15.2999L17.383 14.8728C17.3292 14.8165 17.2615 14.7753 17.1868 14.7534C17.1121 14.7315 17.0329 14.7296 16.9573 14.7479C16.8816 14.7663 16.8121 14.8042 16.7557 14.8579C16.6993 14.9116 16.658 14.9791 16.6359 15.0538L16.6316 15.0686C16.6095 15.1433 16.6074 15.2224 16.6255 15.2982C16.6436 15.3739 16.6813 15.4436 16.7348 15.5001C16.7883 15.5567 16.8557 15.5983 16.9303 15.6206C17.0049 15.643 17.084 15.6454 17.1598 15.6275L17.7357 15.4919C17.7555 15.4872 17.7736 15.4774 17.7884 15.4634C17.8031 15.4495 17.814 15.4319 17.8197 15.4124C17.8255 15.3929 17.826 15.3722 17.8213 15.3525C17.8165 15.3328 17.8066 15.3146 17.7926 15.2999Z" fill="white"/>
<path d="M18.1611 18.7031L18.7452 18.6058C18.8221 18.5932 18.8944 18.5607 18.9547 18.5114C19.0151 18.4621 19.0614 18.3978 19.0891 18.325C19.1168 18.2522 19.1249 18.1733 19.1125 18.0964C19.1002 18.0195 19.0678 17.9471 19.0187 17.8867L19.0088 17.8746C18.9596 17.8144 18.8954 17.7681 18.8227 17.7404C18.75 17.7127 18.6713 17.7045 18.5945 17.7168C18.5177 17.729 18.4454 17.7612 18.3849 17.8101C18.3244 17.859 18.2778 17.9229 18.2497 17.9955L18.0365 18.5478C18.0293 18.5666 18.0271 18.587 18.0303 18.6069C18.0334 18.6268 18.0417 18.6455 18.0543 18.6612C18.0669 18.6769 18.0834 18.6891 18.1021 18.6964C18.1209 18.7038 18.1412 18.7061 18.1611 18.7031Z" fill="white"/>
<path d="M18.7578 15.7134L19.0203 16.2438C19.0547 16.3134 19.1068 16.3728 19.1714 16.4159C19.2359 16.4591 19.3107 16.4846 19.3882 16.4898C19.4656 16.4951 19.5431 16.4799 19.6129 16.4459C19.6827 16.4118 19.7423 16.3601 19.7859 16.2958L19.7946 16.2832C19.8381 16.2186 19.8639 16.1438 19.8694 16.0661C19.8749 15.9884 19.8599 15.9107 19.8259 15.8407C19.7919 15.7706 19.7401 15.7107 19.6757 15.667C19.6113 15.6232 19.5365 15.5972 19.4589 15.5914L18.8671 15.5477C18.8471 15.5467 18.8272 15.5509 18.8093 15.56C18.7915 15.5691 18.7763 15.5826 18.7652 15.5994C18.7542 15.6161 18.7477 15.6354 18.7464 15.6554C18.7451 15.6754 18.749 15.6954 18.7578 15.7134Z" fill="white"/>
<path d="M17.9325 16.4063L17.4404 16.7344C17.376 16.7777 17.324 16.8372 17.2898 16.9068C17.2555 16.9764 17.2401 17.0539 17.2451 17.1313C17.25 17.2088 17.2752 17.2836 17.3181 17.3483C17.361 17.413 17.4202 17.4653 17.4896 17.5L17.5032 17.5071C17.573 17.5418 17.6506 17.5576 17.7284 17.5529C17.8062 17.5482 17.8813 17.5231 17.9464 17.4802C18.0114 17.4372 18.064 17.378 18.0989 17.3083C18.1338 17.2387 18.1498 17.1611 18.1453 17.0833L18.1114 16.4927C18.1097 16.4727 18.1028 16.4535 18.0915 16.437C18.0801 16.4205 18.0646 16.4072 18.0466 16.3985C18.0285 16.3898 18.0085 16.3859 17.9885 16.3872C17.9685 16.3886 17.9492 16.3952 17.9325 16.4063Z" fill="white"/>
<path d="M18.4001 14.6114L17.9079 14.9395C17.8435 14.9829 17.7916 15.0423 17.7573 15.112C17.7231 15.1816 17.7077 15.259 17.7126 15.3365C17.7176 15.414 17.7428 15.4888 17.7857 15.5535C17.8286 15.6181 17.8877 15.6705 17.9572 15.7052L17.9708 15.7117C18.0405 15.7464 18.1181 15.7622 18.1959 15.7575C18.2736 15.7528 18.3487 15.7278 18.4137 15.6849C18.4787 15.6421 18.5313 15.5829 18.5663 15.5133C18.6012 15.4437 18.6173 15.3662 18.6129 15.2885L18.579 14.6973C18.577 14.6774 18.57 14.6584 18.5586 14.6421C18.5472 14.6257 18.5317 14.6126 18.5137 14.604C18.4958 14.5953 18.4759 14.5915 18.456 14.5928C18.4361 14.5941 18.4168 14.6005 18.4001 14.6114Z" fill="white"/>
<path opacity="0.24" d="M23.5156 25.4986C24.7427 25.4986 25.7375 24.5038 25.7375 23.2766C25.7375 22.0495 24.7427 21.0547 23.5156 21.0547C22.2884 21.0547 21.2936 22.0495 21.2936 23.2766C21.2936 24.5038 22.2884 25.4986 23.5156 25.4986Z" fill="#FFF276"/>
<defs>
<linearGradient id="paint0_linear_161_837" x1="8.54271" y1="11.4729" x2="12.3604" y2="17.138" gradientUnits="userSpaceOnUse">
<stop offset="0.102" stop-color="#FFD59E"/>
<stop offset="0.301" stop-color="#FFB76C"/>
</linearGradient>
<linearGradient id="paint1_linear_161_837" x1="12.8984" y1="13.0049" x2="15.8727" y2="6.85683" gradientUnits="userSpaceOnUse">
<stop offset="0.102" stop-color="#FFD59E"/>
<stop offset="0.301" stop-color="#FFB76C"/>
</linearGradient>
<linearGradient id="paint2_linear_161_837" x1="19.7985" y1="6.21722" x2="18.8898" y2="12.9879" gradientUnits="userSpaceOnUse">
<stop offset="0.102" stop-color="#FFD59E"/>
<stop offset="0.301" stop-color="#FFB76C"/>
</linearGradient>
</defs>
</svg>
