<svg width="35" height="35" viewBox="0 0 35 35" fill="none" xmlns="http://www.w3.org/2000/svg">
<path d="M3.47541 15.4793C3.47541 15.4793 3.28127 22.4465 3.28127 23.409C3.28127 24.3715 3.1965 25.3613 3.95939 25.9547C4.4215 26.3156 6.55158 27.918 9.39259 29.5203C12.2336 31.1227 16.0289 33.0285 16.8082 33.3484C17.5875 33.6684 18.4789 33.4906 19.4797 33.1188C20.3957 32.7797 22.4438 31.7434 25.4215 30.2313C28.3992 28.7191 29.7692 27.9563 30.6004 27.2973C31.2293 26.7996 31.8363 26.1516 31.7461 25.0059C31.6531 23.8602 31.6805 21.257 31.5902 20.1578C31.4973 19.0586 31.4262 15.0363 31.4262 15.0363L33.8762 10.5383C33.8762 10.5383 33.816 9.60039 33.6027 9.02071C33.2856 8.15664 32.6977 7.6918 32.6977 7.6918L13.3738 4.30391C13.3738 4.30391 3.51095 6.6336 2.96408 6.95078C2.4172 7.26797 0.998062 8.44649 1.03634 10.5465C1.09376 13.5625 3.47541 15.4793 3.47541 15.4793Z" fill="#E07F14"/>
<path d="M4.75508 15.0637C4.75508 15.0637 4.39141 23.0891 4.58555 24.2457C4.74688 25.2137 7.70274 26.9391 9.85742 28.1695C11.7988 29.2797 15.9141 31.0215 16.4773 31.2895C17.0406 31.5574 17.3086 31.0516 17.3086 30.6059C17.3086 30.1602 17.3387 20.5188 17.3387 20.5188C17.3387 20.5188 19.8434 20.0731 20.3164 17.8473C20.7895 15.6215 18.2465 12.0996 11.4324 9.45275C4.39961 6.72657 2.33789 8.30978 2.25586 10.2731C2.13828 13.1824 4.75508 15.0637 4.75508 15.0637Z" fill="#FFEBCA"/>
<path d="M22.2743 15.6215C22.2743 15.6215 23.0672 18.4133 21.6043 19.9582C20.1223 21.5223 18.8754 21.7984 18.8754 21.7984C18.8754 21.7984 18.7743 23.059 18.8344 23.2067C18.9739 23.5539 23.3543 21.7684 26.1133 20.6117L31.4836 18.3586C31.4836 18.3586 31.3934 16.9941 31.4836 17.0242C31.5739 17.0543 32.9957 15.6598 33.5016 13.8496C34.0047 12.0395 33.8789 10.5465 33.8789 10.5465C33.8789 10.5465 29.3317 12.4442 27.7485 13.166C26.2336 13.8551 22.9633 15.2442 22.2743 15.6215Z" fill="#AC5811"/>
<path d="M21.0383 13.3356C21.2188 13.5324 33.2364 8.29884 33.2364 8.29884C33.2364 8.29884 29.143 1.85938 18.8481 1.68438C8.31799 1.50391 2.35705 7.18868 2.23127 7.53321C2.13283 7.80118 4.1344 5.18438 10.8391 7.35001C17.5438 9.51563 20.0485 12.2637 21.0383 13.3356Z" fill="#F5B03E"/>
</svg>
