<svg width="35" height="35" viewBox="0 0 35 35" fill="none" xmlns="http://www.w3.org/2000/svg">
<path d="M33.334 17.2287C33.334 17.2287 33.943 14.9805 33.7556 14.6063C33.5679 14.2318 33.1466 13.7633 33.1466 13.7633L32.8655 18.1189L33.334 17.2287Z" fill="black"/>
<path d="M0.149292 2.82625C0.149292 2.82625 3.83508 8.94282 7.36851 11.9458C10.9013 14.9497 10.8886 15.7283 10.8886 15.7283L19.4602 13.0028C19.4602 13.0028 11.6942 6.35063 7.45223 4.63952C3.2103 2.92812 0.843586 2.55905 0.843586 2.55905L0.149292 2.82625Z" fill="#DAEC5F"/>
<path d="M1.30122 2.72227C1.30122 2.72227 3.28737 6.24332 4.46831 7.85256C5.64864 9.4621 10.3824 13.9634 10.3824 13.9634L8.79156 13.792C8.79156 13.792 4.0388 9.40286 2.23581 6.70034C0.433422 3.99722 0.149292 2.82625 0.149292 2.82625L1.30122 2.72227Z" fill="#56C51D"/>
<path d="M1.07875 4.09785C1.07875 4.09785 0.140526 3.03299 0.149292 2.82624C0.157755 2.6201 0.781635 2.41124 0.781635 2.41124C0.781635 2.41124 6.10021 3.76568 8.13262 4.85835C10.165 5.95012 12.2071 7.3656 12.2071 7.3656C12.2071 7.3656 9.01644 5.413 7.86845 4.87528C6.71956 4.33816 5.29168 3.90865 4.86609 3.72487C4.44021 3.54079 1.43995 2.75824 1.43995 2.75824L1.07875 4.09785Z" fill="#56C51D"/>
<path d="M5.06195 2.53094C5.06195 2.53094 6.66697 7.93175 9.40395 10.8392C12.1406 13.7467 12.8561 14.7136 12.8561 14.7136L20.8856 12.8922C20.8856 12.8922 14.8779 6.45581 11.3284 4.64435C7.77958 2.8335 5.71846 2.34233 5.71846 2.34233L5.06195 2.53094Z" fill="#DAEC5F"/>
<path d="M6.10476 2.51854C6.10476 2.51854 7.38878 5.77783 8.21848 7.28611C9.0494 8.7953 12.649 13.1137 12.649 13.1137L11.2529 12.8514C11.2529 12.8514 7.62029 8.63057 6.38676 6.10941C5.15293 3.58824 5.06195 2.53094 5.06195 2.53094L6.10476 2.51854Z" fill="#56C51D"/>
<path d="M5.71485 3.72246C5.71485 3.72246 5.02538 2.71351 5.06195 2.53095C5.09822 2.34777 5.68402 2.20662 5.68402 2.20662C5.68402 2.20662 10.2433 3.77687 11.9058 4.88556C13.5682 5.99577 15.1944 7.3913 15.1944 7.3913C15.1944 7.3913 12.6179 5.439 11.6673 4.88284C10.7173 4.32668 9.50158 3.84669 9.14763 3.65415C8.79338 3.46221 6.22355 2.55936 6.22355 2.55936L5.71485 3.72246Z" fill="#56C51D"/>
<path d="M4.16358 9.57755C3.62979 10.8564 3.46114 12.2465 3.34447 13.6167C3.16251 15.7534 3.11535 17.9614 3.08421 20.1065C3.06215 21.6372 2.56463 24.0498 4.1781 24.9494C6.67448 26.341 9.77507 26.7478 12.4253 27.8048C15.0547 28.8537 17.5154 30.2933 20.1729 31.308C22.7067 32.2756 25.6151 33.2951 28.3675 32.8731C30.0653 32.6132 32.6738 31.4054 33.3763 29.6692C33.726 28.8044 33.4884 27.3161 33.5244 26.4014C33.619 23.9924 33.7139 21.5831 33.8085 19.1735C33.8786 17.3916 34.4064 15.3374 33.4893 13.7599C33.3787 13.8246 33.2674 13.8896 33.1568 13.9543C34.9538 16.3591 30.7937 17.1293 29.2718 17.6201C28.1647 17.9774 27.107 18.3586 25.9294 18.38C24.1857 18.4124 22.4453 17.6582 20.836 17.0845C17.5976 15.9302 14.264 14.8955 11.164 13.3933C10.0782 12.8671 9.05115 12.4968 7.87022 12.2157C6.52364 11.895 4.2999 11.6737 4.66262 9.81211C4.70796 9.57846 4.35007 9.47902 4.30473 9.71327C3.74132 12.6355 8.34236 12.5143 10.1683 13.2887C14.1929 14.9956 18.2278 16.5634 22.3621 18.0152C23.7601 18.5061 25.3382 18.9452 26.8338 18.7013C28.4923 18.4308 30.1158 17.7625 31.732 17.3079C33.3475 16.8536 34.6729 15.3435 33.4893 13.7599C33.3445 13.5662 33.0287 13.734 33.1568 13.9543C33.8182 15.0914 33.541 16.2467 33.4872 17.5893C33.3911 19.9877 33.2928 22.3859 33.1955 24.7843C33.1314 26.3555 33.0676 27.9263 33.0017 29.4975C32.9872 29.8487 32.3129 30.4514 31.9904 30.7313C30.6018 31.9355 28.6447 32.5972 26.825 32.5573C20.6299 32.4198 15.2569 28.1733 9.53297 26.3316C8.11657 25.8758 6.68264 25.4735 5.28498 24.9618C4.76207 24.7704 4.12641 24.5628 3.80843 24.0743C3.34446 23.3616 3.43514 22.203 3.44058 21.3863C3.44814 20.1643 3.54244 18.928 3.61468 17.709C3.74586 15.5067 3.6567 13.3171 4.10798 11.1433C4.21135 10.6433 4.36851 10.1585 4.56438 9.68789C4.66745 9.44064 4.26545 9.33393 4.16358 9.57755Z" fill="black"/>
<path d="M3.401 8.01125C3.401 8.01125 4.21561 9.3557 4.38125 9.53948C4.54689 9.72356 5.23241 10.0364 5.23241 10.0364L4.8171 9.02291L3.401 8.01125Z" fill="#56C51D"/>
<path d="M4.65451 9.37594C3.26078 7.9801 2.08317 6.37389 1.18243 4.61473C0.923695 4.10935 0.680071 3.5961 0.440982 3.08135C0.388691 2.9686 0.336993 2.85526 0.285609 2.74222C0.135989 2.41154 1.20932 2.69416 1.24196 2.70202C2.60305 3.04146 3.93512 3.47006 5.27717 3.8769C5.46427 3.93343 5.54346 3.64144 5.35727 3.58522C3.88495 3.13878 2.4226 2.67904 0.927619 2.313C0.543747 2.219 0.208549 2.38373 0.0196354 2.73133C-0.0885742 2.93022 0.282295 3.45373 0.357558 3.61423C1.39885 5.82588 2.71186 7.85829 4.4408 9.58964C4.57863 9.72778 4.79234 9.51408 4.65451 9.37594Z" fill="black"/>
<path d="M5.66431 2.03977C5.4092 2.08632 5.10149 2.19603 5.00084 2.36349C4.98542 2.40369 4.84669 2.89094 5.07308 3.34493C5.28346 3.76659 5.99045 5.65754 5.998 5.67718L6.97853 7.32542L7.30678 7.34899L6.28243 5.61492C6.26006 5.55054 5.57182 3.70946 5.35721 3.27964C5.21364 2.99159 5.24114 2.67724 5.26744 2.5252C5.27711 2.46807 5.28677 2.43362 5.28707 2.43241C5.32999 2.36652 5.52194 2.29881 5.69725 2.26012C6.00012 2.38072 7.8705 3.1264 9.14635 3.67168C10.4878 4.24537 12.4111 5.30873 12.8681 5.68383C13.3233 6.05803 14.1255 6.61993 14.16 6.64351L14.5094 6.60573C14.5009 6.59998 13.5412 5.91507 13.0942 5.54752C12.613 5.15246 10.6849 4.08366 9.29628 3.49002C7.90859 2.89698 5.79791 2.05882 5.77675 2.05065L5.72264 2.02888L5.66431 2.03977Z" fill="black"/>
<path d="M4.4849 10.7494C4.4849 10.7494 4.2292 10.0781 4.06961 10.5575C3.90941 11.0366 3.4941 13.049 3.4941 13.7838C3.4941 14.5186 3.43033 17.6174 3.43033 17.6174L3.23868 20.7476C3.23868 20.7476 3.11536 23.8606 3.75192 24.3805C4.38879 24.9004 6.97614 25.6675 6.97614 25.6675C6.97614 25.6675 11.2574 27.0093 12.3114 27.5201C13.3659 28.0312 17.3906 29.9479 17.3906 29.9479L21.9272 31.769C21.9272 31.769 26.1441 33.1107 27.9332 32.6954C29.7219 32.2801 31.3832 31.7366 32.0221 31.0018C32.6611 30.267 33.2357 29.1813 33.2357 29.1813V26.9772L33.4594 22.7918L33.6193 18.8307L33.7154 16.882L33.7789 15.125L33.3636 15.9876C33.3636 15.9876 32.7884 16.4667 32.2455 16.7542C31.7026 17.0419 30.3609 17.553 30.3609 17.553L29.1153 17.8405L27.4217 18.3193L26.0162 18.5115C26.0162 18.5115 24.8661 18.5753 24.1636 18.4792C23.4609 18.3833 21.161 17.4572 21.161 17.4572L17.0717 15.9556L13.5258 14.6459L10.4268 13.2398L8.82991 12.6649C8.82991 12.6649 6.88093 12.2495 6.11439 11.9621C5.34786 11.6749 4.4849 10.7494 4.4849 10.7494Z" fill="black"/>
<path d="M4.13824 11.5281C4.13824 11.5281 4.00282 13.2848 4.13824 13.6904C4.27365 14.0955 4.27335 14.6362 4.13824 15.3121C4.00313 15.9876 3.86832 16.6635 3.86832 17.3393C3.86832 18.0146 3.7329 19.2309 3.7329 19.5011C3.7329 19.7716 3.46238 20.0416 3.7329 20.4469C4.00313 20.8525 4.27364 21.3936 4.00312 21.5284C3.7329 21.6635 3.86832 22.6096 3.86832 22.6096L4.13824 23.8256L5.08432 24.2312C5.08432 24.2312 4.40876 23.2851 4.54357 22.7447C4.67868 22.2042 5.21942 22.0688 5.21942 22.0688C5.21942 22.0688 4.27366 20.582 4.40877 20.0416C4.54358 19.5011 5.21942 19.6365 5.21942 19.6365C5.21942 19.6365 4.13824 18.6907 4.40877 17.8795C4.67869 17.0685 5.89528 17.0685 5.89528 17.0685C5.89528 17.0685 4.67898 16.2579 4.8144 15.582C4.9492 14.9064 6.30091 15.0415 6.30091 15.0415C6.30091 15.0415 4.67898 14.366 4.9492 13.6904C5.21942 13.0146 6.30091 13.1497 6.30091 13.1497L5.62475 12.2039L4.8144 11.7986L4.27365 10.8522V11.5281" fill="white"/>
<path d="M23.8327 18.7917C23.8327 18.7917 25.5809 19.3745 26.6011 19.2288C27.6215 19.0828 29.3701 18.7917 29.3701 18.7917C29.3701 18.7917 28.2043 19.3742 28.2043 19.6658C28.2043 19.9575 27.4755 20.3946 28.0586 20.3946C28.6416 20.3946 30.0985 20.5406 29.3701 20.832C28.6416 21.123 27.0385 21.8521 27.7672 21.8521C28.4957 21.8521 29.3701 22.4346 28.933 22.5806C28.4957 22.7262 27.4755 23.309 27.4755 23.309C27.4755 23.309 28.2043 23.8924 27.7672 24.3294C27.3301 24.7665 27.3298 26.2234 27.0382 26.2234C26.7468 26.2234 26.6011 24.9122 26.6011 24.9122C26.6011 24.9122 26.3097 24.4751 25.7269 24.0377C25.1439 23.6007 23.9784 23.0176 24.5611 23.0176C25.1439 23.0176 26.7468 23.4547 26.0183 23.0176C25.2899 22.5805 24.1238 22.2892 24.4154 21.8521C24.7068 21.4147 26.3097 22.5806 25.8726 22.1432C25.4353 21.7061 24.1238 21.269 24.4154 20.9777C24.7068 20.6863 26.164 21.269 25.8726 20.9777C25.5813 20.6863 25.1439 20.3946 24.8528 20.3946C24.5611 20.3946 26.0183 20.1032 25.4353 19.9575C24.8528 19.8121 23.9784 19.3745 23.9784 19.3745C23.9784 19.3745 23.1039 18.5003 23.8327 18.7917Z" fill="white"/>
<path d="M8.66547 7.02284C8.66547 7.02284 10.1919 5.49612 12.905 5.66599C15.6184 5.83556 20.5365 6.85297 21.893 7.53155C23.2499 8.20983 27.15 9.73624 28.6764 10.4145C30.2028 11.0928 32.7469 11.9406 33.5945 12.9583C34.4423 13.9758 35.2905 17.1982 34.1032 18.046C32.9159 18.8936 31.3898 18.046 31.3898 18.046L28.1677 16.3497L18.1622 10.2449L8.66547 7.02284Z" fill="url(#paint0_linear_161_10166)"/>
<path d="M8.87919 7.23654C11.2039 5.00313 15.2778 6.17137 18.0353 6.74295C20.8841 7.33357 23.4143 8.5544 26.09 9.65524C27.4269 10.2051 28.7526 10.7815 30.0904 11.3289C32.0442 12.1289 33.5537 12.8175 34.1724 14.9566C34.4067 15.7661 34.5324 16.7427 34.1655 17.5291C33.7199 18.4834 32.1974 18.1297 31.5165 17.7716C30.6351 17.3073 29.7537 16.8433 28.8723 16.3793C25.7351 14.7281 22.7627 12.6978 19.7376 10.8522C17.0109 9.18855 13.8112 8.45012 10.7973 7.42727C10.1133 7.19513 9.4296 6.9636 8.74558 6.73146C8.37561 6.60572 8.21783 7.19 8.58508 7.31423C10.1677 7.85135 11.7507 8.38846 13.3333 8.92528C14.7192 9.39559 16.9317 9.84839 18.0181 10.5112C21.1833 12.4424 24.3483 14.3732 27.5133 16.3047C29.3574 17.4297 34.685 20.8289 34.9897 16.5761C35.071 15.4378 34.6566 14.2136 34.1352 13.2204C33.4941 11.9984 31.9121 11.4486 30.7303 10.9453C27.9132 9.74562 25.0311 8.66775 22.2564 7.37287C19.9556 6.29923 17.2488 5.88604 14.7515 5.55748C12.5931 5.27396 10.1481 5.17935 8.45179 6.80914C8.17008 7.07936 8.59808 7.50676 8.87919 7.23654Z" fill="black"/>
<path d="M5.95178 7.87068C5.52801 7.95531 5.27349 8.04025 4.93436 8.20982C4.84972 8.46432 4.7648 8.54896 4.7648 8.8881C4.34072 9.05767 4.17146 9.31217 3.91696 9.56637C3.49288 11.5166 6.20628 12.4493 7.47819 12.7885C7.47819 12.7885 9.00462 12.7882 9.68289 13.4667C10.3612 14.1453 12.2267 15.5019 13.5833 15.6714C14.9401 15.8413 15.788 16.0106 15.788 16.0106C15.788 16.0106 17.8234 16.8584 18.6709 17.3674C19.5188 17.8761 21.7238 19.2327 22.9108 19.2327C24.0974 19.2327 26.6413 18.8936 26.6413 18.8936C26.6413 18.8936 29.5249 19.7414 30.0333 18.8936C30.542 18.046 31.2202 16.859 29.8637 15.163C28.5068 13.4667 24.6064 10.9229 22.4017 9.90551C20.197 8.8881 17.8228 8.37908 16.6358 8.20982C15.4488 8.04025 13.0746 7.36197 12.0569 7.02284C11.0394 6.6837 8.83506 6.00542 8.32635 6.17469C7.81734 6.34426 6.63006 6.85297 6.63006 6.85297L5.95178 7.87068Z" fill="url(#paint1_linear_161_10166)"/>
<path d="M5.8892 7.64399C4.67894 7.92539 4.56772 8.53929 3.7492 9.39862C3.15284 10.0255 4.07623 11.2539 4.50061 11.6562C5.26866 12.3841 6.41756 12.7477 7.41261 13.0264C7.83335 13.1442 8.30941 13.1158 8.74376 13.2295C9.50425 13.429 10.2505 14.301 10.8983 14.7526C12.2971 15.7289 13.6313 15.9066 15.278 16.1826C16.4091 16.3724 17.5508 17.0371 18.5367 17.5969C19.737 18.2791 20.8904 19.0175 22.2255 19.4122C23.4554 19.7759 25.0396 19.3714 26.2831 19.22C28.0628 19.003 29.6823 20.4206 30.6876 18.2642C31.8943 15.6763 28.7121 13.5393 26.9493 12.2752C24.0325 10.1839 20.8759 8.71369 17.3392 8.03572C15.8783 7.75583 14.4529 7.44692 13.0226 7.02707C11.6935 6.63685 10.3648 6.0683 8.98074 5.90629C7.47215 5.72977 6.46682 6.60028 5.74593 7.75008C5.57998 8.01456 5.98321 8.23793 6.15792 7.99098C6.6896 7.23986 6.72465 7.10052 7.51839 6.77831C8.86889 6.23031 10.0399 6.68673 11.3873 7.10415C13.8529 7.86797 16.3335 8.33073 18.8281 8.95581C21.968 9.7429 24.7558 11.3675 27.3422 13.2718C28.7317 14.295 30.7436 15.7945 30.2754 17.7504C29.8676 19.4549 28.1211 18.9891 26.8574 18.662C26.3003 18.5178 25.5985 18.7421 25.0378 18.8035C23.343 18.9876 22.1826 18.9132 20.6145 18.1648C18.7855 17.2922 17.1309 15.9613 15.09 15.6249C13.4708 15.3577 12.1944 15.0334 10.8221 14.0834C9.88479 13.4347 9.36792 12.7468 8.17429 12.5999C6.96404 12.4512 5.82029 12.0827 4.83794 11.3189C3.95715 10.6334 3.87827 9.6498 4.88419 9.09212C4.93135 9.06583 4.98483 9.00658 4.99269 8.95096C5.07672 8.35974 5.46996 8.22463 6.01433 8.09738C6.30934 8.02816 6.1842 7.57537 5.8892 7.64399Z" fill="black"/>
<path d="M7.33856 7.82897C7.33856 7.82897 8.64101 7.2704 9.38517 8.20076C10.1293 9.13142 10.6873 9.31731 10.6873 9.31731C10.6873 9.31731 11.9898 8.01457 13.106 8.94493C14.2226 9.87529 15.1526 10.0615 15.1526 10.0615C15.1526 10.0615 16.4545 9.31701 17.3848 10.2474C18.3155 11.1777 19.4314 11.9222 19.8035 11.5501C20.1759 11.1777 21.2922 10.9915 22.0363 11.9219C22.7805 12.8523 23.1526 13.9685 23.8967 13.5964C24.6409 13.2243 26.1292 13.9685 26.6875 14.8989C27.2455 15.8289 27.8041 16.2007 27.0596 16.5731C26.3151 16.9452 23.8967 17.3176 24.8271 17.5035C25.7572 17.6894 26.6878 17.6893 27.8038 17.6893C28.92 17.6893 29.6642 17.6897 29.2921 16.7593C28.92 15.8289 28.362 14.8986 27.8038 14.5265C27.2455 14.1547 25.3848 12.8523 25.013 12.8523C24.6409 12.8523 23.7105 12.1078 23.7105 12.1078C23.7105 12.1078 22.4087 10.6198 21.478 10.4336C20.5477 10.2474 19.6176 10.8053 19.0593 10.2474C18.5014 9.68939 16.8268 9.13142 16.0827 9.31731C15.3385 9.5032 14.4084 9.13142 14.4084 9.13142C14.4084 9.13142 13.4784 8.20076 12.548 8.20076C11.6174 8.20076 10.5014 8.20076 10.5014 8.20076C10.5014 8.20076 10.3152 6.89862 9.38517 6.89862C8.45511 6.89862 7.33856 7.82897 7.33856 7.82897Z" fill="#FF6100"/>
<path d="M28.5479 11.3636C28.5479 11.3636 30.9666 12.2937 31.8967 12.6661C32.8267 13.0382 33.5709 13.4105 33.385 14.3406C33.1991 15.2707 34.5013 15.8292 33.7571 16.201C33.0132 16.5731 31.7108 16.0148 31.7108 16.0148C31.7108 16.0148 33.0129 16.5734 32.6408 15.4569C32.2691 14.3406 32.2691 13.5964 32.2691 13.5964L30.2222 12.6661L28.362 11.9219L26.3151 10.4336L28.5479 11.3636Z" fill="#FF6100"/>
<path d="M13.2919 6.71272C13.2919 6.71272 15.1529 5.78236 16.2688 6.71272C17.3848 7.64278 18.1293 7.45689 18.1293 7.45689C18.1293 7.45689 17.1992 8.01486 16.2688 7.45689C15.3385 6.89861 14.7802 6.89862 14.7802 6.89862L13.2919 6.71272Z" fill="#FF6100"/>
<path d="M23.622 15.7488C23.8321 16.2334 23.946 16.3041 24.4707 16.444C24.9256 16.5649 25.4721 16.5936 25.934 16.509C26.7936 16.3512 27.9319 16.0399 28.2753 15.138C28.336 14.9778 28.1205 14.8136 27.9821 14.9125C27.3555 15.3589 26.8728 15.7715 26.0658 15.8389C25.5341 15.8833 24.2861 16.0614 23.985 15.5369C23.8466 15.2957 23.5174 15.507 23.622 15.7488Z" fill="white"/>
<path d="M30.7154 14.4984C31.2081 14.8958 31.7782 15.105 32.4006 14.8822C32.6106 14.807 32.9664 14.6625 33.0359 14.4237C33.1351 14.0825 33.2674 13.7669 33.2998 13.4102C33.3182 13.202 33.038 13.1687 32.9389 13.3126C32.7327 13.6121 32.6155 14.0553 32.2945 14.2366C31.8507 14.4872 31.3895 14.4403 30.986 14.1478C30.7813 13.9996 30.519 14.3397 30.7154 14.4984Z" fill="white"/>
<path d="M19.1851 15.0848C19.1639 15.2963 19.0548 15.7899 19.205 15.9622C19.4224 16.2116 19.6696 16.4241 19.9392 16.6148C20.5531 17.0498 21.4025 17.1967 22.0614 16.775C22.2818 16.6338 22.143 16.2751 21.881 16.3476C21.2335 16.5268 20.778 16.5423 20.1677 16.224C19.948 16.1094 19.7512 15.9335 19.565 15.7736C19.4441 15.6696 19.5067 15.2332 19.4919 15.0848C19.4726 14.8874 19.2044 14.8874 19.1851 15.0848Z" fill="white"/>
<defs>
<linearGradient id="paint0_linear_161_10166" x1="8.66546" y1="12.0377" x2="34.6893" y2="12.0377" gradientUnits="userSpaceOnUse">
<stop stop-color="#FFAE68"/>
<stop offset="1" stop-color="#FF8100"/>
</linearGradient>
<linearGradient id="paint1_linear_161_10166" x1="19.4236" y1="7.31059" x2="17.1908" y2="13.8222" gradientUnits="userSpaceOnUse">
<stop stop-color="#FFAE68"/>
<stop offset="1" stop-color="#FF8100"/>
</linearGradient>
</defs>
</svg>
