<svg width="16" height="16" viewBox="0 0 16 16" fill="none" xmlns="http://www.w3.org/2000/svg">
<path d="M8.00016 7.66668C7.55814 7.66668 7.13421 7.49108 6.82165 7.17852C6.50909 6.86596 6.3335 6.44204 6.3335 6.00001C6.3335 5.55798 6.50909 5.13406 6.82165 4.8215C7.13421 4.50894 7.55814 4.33334 8.00016 4.33334C8.44219 4.33334 8.86611 4.50894 9.17867 4.8215C9.49123 5.13406 9.66683 5.55798 9.66683 6.00001C9.66683 6.21888 9.62372 6.43561 9.53996 6.63782C9.4562 6.84002 9.33344 7.02376 9.17867 7.17852C9.02391 7.33329 8.84018 7.45605 8.63797 7.53981C8.43576 7.62357 8.21903 7.66668 8.00016 7.66668ZM8.00016 1.33334C6.76249 1.33334 5.5755 1.82501 4.70033 2.70018C3.82516 3.57535 3.3335 4.76233 3.3335 6.00001C3.3335 9.50001 8.00016 14.6667 8.00016 14.6667C8.00016 14.6667 12.6668 9.50001 12.6668 6.00001C12.6668 4.76233 12.1752 3.57535 11.3 2.70018C10.4248 1.82501 9.23784 1.33334 8.00016 1.33334Z" fill="#2C2727"/>
</svg>
