<svg width="35" height="35" viewBox="0 0 35 35" fill="none" xmlns="http://www.w3.org/2000/svg">
<path d="M26.089 2.45264L19.6813 14.4119C19.58 14.6 19.6451 14.8412 19.8284 14.9473C20.0093 15.0534 20.2408 14.9835 20.3421 14.7954L26.7522 2.83609C26.8535 2.64798 26.7884 2.40682 26.6051 2.30071C26.4218 2.19459 26.1903 2.26453 26.089 2.45264ZM30.688 4.25654L24.2779 16.2158C24.1766 16.4039 24.2417 16.6451 24.425 16.7512C24.6059 16.8573 24.8374 16.7874 24.9387 16.5993L31.3488 4.63999C31.4501 4.45188 31.385 4.21072 31.2017 4.10461C31.0208 3.99849 30.7893 4.06602 30.688 4.25654Z" fill="#6C4820"/>
<path d="M3.22915 18.4032C3.22915 18.4032 2.20903 16.2448 4.44461 15.5767C4.91488 14.7134 6.52343 10.7896 10.3314 13.4979C10.7245 12.5164 14.2165 8.23814 19.0036 12.7527C20.3783 11.9279 23.9089 11.0742 24.4587 14.5638C25.4789 13.7342 27.1284 13.7728 27.0488 16.0494C27.7554 16.3243 29.2458 16.5607 29.4822 18.4032C23.0865 21.818 8.37074 22.6428 8.37074 22.6428L4.52419 20.2891L3.22915 18.4032Z" fill="#F5ECDA"/>
<path d="M1.72913 18.4032C1.91964 27.0199 8.34182 33.9437 16.2399 33.9437C24.138 33.9437 30.5602 27.0199 30.7507 18.4032H1.72913Z" fill="#DB9145"/>
<path d="M16.2399 31.8359C11.1659 31.8359 6.61028 29.4171 3.46552 25.5778C5.91814 30.5602 10.7173 33.9461 16.2399 33.9461C21.7626 33.9461 26.5593 30.5602 29.0143 25.5778C25.8696 29.4171 21.314 31.8359 16.2399 31.8359Z" fill="#5B2B20"/>
<path d="M11.9568 13.4376C11.9568 13.4376 11.9593 13.4328 11.9641 13.4207C11.9689 13.4087 11.9761 13.3942 11.9858 13.3725C11.9954 13.3532 12.0075 13.3267 12.0244 13.3001C12.0388 13.2712 12.0581 13.2399 12.0798 13.2061C12.1233 13.1362 12.1811 13.059 12.2511 12.9722C12.2679 12.9505 12.2872 12.9288 12.3065 12.9071C12.3258 12.8853 12.3475 12.8636 12.3668 12.8395C12.4102 12.7937 12.4561 12.7503 12.5067 12.7045C12.5573 12.6587 12.6104 12.6128 12.6683 12.567C12.6972 12.5429 12.7262 12.5236 12.7575 12.4995L12.8516 12.4344C12.9167 12.391 12.9842 12.3476 13.0541 12.309C13.0903 12.2897 13.1265 12.268 13.1627 12.2511C13.1988 12.2318 13.2374 12.2125 13.276 12.1956C13.3146 12.1763 13.3532 12.1594 13.3942 12.145C13.4352 12.1281 13.4738 12.1112 13.5148 12.0967C13.5968 12.0678 13.6812 12.0365 13.768 12.0147C13.8114 12.0027 13.8548 11.9906 13.8982 11.981C13.9416 11.9713 13.9874 11.9617 14.0333 11.952C14.1225 11.9328 14.2141 11.9231 14.3058 11.911C14.3974 11.9014 14.4891 11.8966 14.5831 11.8918H14.7206L14.7905 11.8942H14.8243L14.858 11.8966C15.0413 11.9086 15.2198 11.9352 15.3886 11.9786C15.5574 12.0196 15.7166 12.075 15.8637 12.1402C15.8999 12.157 15.936 12.1739 15.9698 12.1908L16.0711 12.2414C16.1362 12.28 16.1965 12.3162 16.2544 12.3548C16.2833 12.3741 16.3098 12.3934 16.3364 12.4127C16.3629 12.432 16.3894 12.4513 16.4135 12.4705C16.4377 12.4898 16.4618 12.5091 16.4835 12.5284C16.4955 12.5381 16.5052 12.5477 16.5172 12.5574C16.5269 12.567 16.5389 12.5767 16.5486 12.5863C16.5896 12.6273 16.6258 12.6611 16.6595 12.6972C16.6764 12.7141 16.6909 12.731 16.7078 12.7479C16.7222 12.7624 16.7367 12.7816 16.7488 12.7985C16.7753 12.8299 16.797 12.8588 16.8139 12.8853C16.8332 12.9119 16.8476 12.9336 16.8597 12.9529C16.8718 12.9698 16.8814 12.9866 16.8862 12.9963C16.891 13.0059 16.8959 13.0108 16.8959 13.0108L16.8621 13.0735C16.8621 13.0735 16.8428 13.0662 16.809 13.0493C16.7753 13.0325 16.7246 13.0108 16.6619 12.9818C16.6306 12.9649 16.5944 12.9529 16.5558 12.936C16.5172 12.9215 16.4738 12.9022 16.428 12.8853C16.3822 12.8661 16.334 12.8516 16.2809 12.8347C16.2544 12.8251 16.2278 12.8178 16.2013 12.8082C16.1748 12.7985 16.1459 12.7889 16.1169 12.7816C16.059 12.7648 15.9987 12.7479 15.936 12.731C15.8733 12.7165 15.8082 12.7021 15.7407 12.6876C15.6056 12.6611 15.4634 12.6394 15.3162 12.6225C15.1667 12.6056 15.0148 12.6008 14.858 12.5984C14.8195 12.5959 14.7785 12.6008 14.7399 12.6008C14.7013 12.6032 14.6603 12.6032 14.6217 12.6056C14.5831 12.608 14.5421 12.6128 14.5035 12.6152C14.4649 12.6177 14.4239 12.6201 14.3854 12.6273C14.3058 12.6369 14.2262 12.6442 14.149 12.6587C14.1104 12.6659 14.0718 12.6707 14.0309 12.6779C13.9923 12.6852 13.9537 12.6924 13.9151 12.7021C13.8379 12.7165 13.7632 12.7358 13.6884 12.7551C13.6498 12.7648 13.6136 12.7744 13.5775 12.7865C13.5413 12.7961 13.5051 12.8058 13.4689 12.8178C13.3966 12.8395 13.3267 12.8612 13.2591 12.8853C13.1916 12.9071 13.1241 12.9336 13.059 12.9577C12.9938 12.9818 12.9336 13.0083 12.8733 13.0325C12.813 13.059 12.7551 13.0831 12.702 13.1096C12.5935 13.1603 12.4946 13.2109 12.4078 13.2543C12.321 13.3001 12.2462 13.3411 12.186 13.3773C12.1257 13.4135 12.0798 13.4424 12.0485 13.4617C12.034 13.4714 12.022 13.4786 12.0123 13.4858C12.0051 13.4907 12.0003 13.4931 12.0003 13.4931L11.9568 13.4376ZM5.51538 16.4642V16.4473C5.51538 16.4353 5.51779 16.4184 5.5202 16.3967C5.52262 16.375 5.52744 16.3484 5.53226 16.3147C5.53709 16.2833 5.54673 16.2472 5.55638 16.2086C5.57567 16.129 5.60461 16.0373 5.64561 15.9336C5.65526 15.9071 5.66731 15.8806 5.67937 15.8541C5.69143 15.8275 5.70349 15.7986 5.71555 15.7721C5.74207 15.7166 5.77343 15.6587 5.80478 15.5984C5.83613 15.5381 5.87471 15.4803 5.91571 15.4176C5.935 15.3862 5.95671 15.3573 5.97841 15.3259C6.00012 15.2946 6.02182 15.2632 6.04594 15.2343C6.09417 15.174 6.14482 15.1113 6.20028 15.0534C6.22681 15.0245 6.25575 14.9931 6.28469 14.9642L6.37392 14.8749C6.40527 14.846 6.43662 14.8171 6.47039 14.7881C6.50415 14.7616 6.5355 14.7302 6.57168 14.7037C6.64161 14.6507 6.71155 14.5952 6.78631 14.547C6.82249 14.5204 6.86107 14.4987 6.89966 14.4722C6.93824 14.4481 6.97924 14.4264 7.01783 14.4047C7.09741 14.3589 7.18182 14.3203 7.26381 14.2793C7.34822 14.2407 7.43504 14.2069 7.51945 14.1756C7.56286 14.1611 7.60627 14.1466 7.65209 14.1322L7.7172 14.1129L7.75096 14.1032L7.78473 14.096C7.96077 14.0502 8.13924 14.0188 8.31287 14.0068C8.48651 13.9923 8.65532 13.9971 8.81449 14.0116C8.85308 14.0164 8.89408 14.0212 8.93025 14.026C8.96884 14.0309 9.00501 14.0357 9.0436 14.0429C9.11595 14.0574 9.18588 14.0743 9.25341 14.0936C9.28717 14.1008 9.31852 14.1129 9.34987 14.1225C9.38123 14.1322 9.41258 14.1418 9.44152 14.1539C9.47046 14.1659 9.4994 14.1756 9.52592 14.1852C9.54039 14.19 9.55245 14.1949 9.56692 14.2021C9.57898 14.2093 9.59345 14.2142 9.60551 14.2214C9.65615 14.2455 9.70438 14.2672 9.74538 14.2913C9.76709 14.3034 9.78638 14.313 9.80567 14.3251C9.82497 14.3347 9.84185 14.3492 9.86114 14.3589C9.8949 14.3806 9.92625 14.4023 9.95037 14.4216C9.9769 14.4408 9.9986 14.4577 10.0155 14.4698C10.0324 14.4818 10.0468 14.4939 10.0541 14.5011C10.0637 14.5084 10.0661 14.5132 10.0661 14.5132L10.0541 14.5855L9.99619 14.5783C9.9576 14.5735 9.90455 14.5687 9.83461 14.559C9.80085 14.5542 9.76226 14.5518 9.71885 14.5494C9.67786 14.547 9.63204 14.5445 9.58139 14.5421C9.53316 14.5373 9.4801 14.5397 9.42705 14.5397H9.25582C9.19553 14.5421 9.13283 14.5445 9.07012 14.5494C9.00501 14.5542 8.9399 14.5614 8.87237 14.5687C8.73732 14.5855 8.59503 14.6097 8.44792 14.641C8.30082 14.6724 8.15371 14.7134 8.00418 14.764C7.9656 14.7761 7.92942 14.7905 7.89325 14.8026C7.85707 14.8171 7.81849 14.8291 7.78231 14.8436C7.74614 14.8581 7.70997 14.8749 7.67379 14.8894C7.63762 14.9063 7.59903 14.9208 7.56527 14.9376C7.49292 14.9714 7.42057 15.0028 7.35063 15.0413C7.31446 15.0606 7.2807 15.0775 7.24452 15.0968C7.21076 15.1161 7.17699 15.1354 7.14082 15.1547C7.07088 15.1933 7.00577 15.2367 6.94065 15.2753C6.90689 15.2946 6.87554 15.3187 6.84419 15.338C6.81284 15.3597 6.78149 15.379 6.75014 15.4031C6.68985 15.4465 6.62955 15.4899 6.57168 15.5333C6.5138 15.5767 6.45833 15.6201 6.40527 15.6635C6.35222 15.707 6.30157 15.7504 6.25093 15.7938C6.2027 15.8372 6.15446 15.8782 6.11347 15.9192C6.02665 16.0012 5.94706 16.0783 5.87954 16.1483C5.81201 16.2182 5.75413 16.2809 5.70831 16.334C5.66249 16.387 5.62632 16.428 5.60461 16.4594C5.59255 16.4739 5.58532 16.4859 5.57808 16.4931C5.57326 16.5004 5.56844 16.5052 5.56844 16.5052L5.51538 16.4642ZM20.2167 13.4304C20.2167 13.4304 20.2215 13.428 20.2287 13.4207C20.236 13.4159 20.248 13.4063 20.2649 13.3966C20.2794 13.387 20.2987 13.3725 20.3228 13.3604C20.3445 13.346 20.371 13.3315 20.4024 13.317C20.4627 13.2857 20.535 13.2567 20.6218 13.2278C20.6435 13.2206 20.6652 13.2133 20.6894 13.2085C20.7111 13.2013 20.7352 13.1964 20.7593 13.1892C20.8075 13.1772 20.8582 13.1675 20.9136 13.1579C21.0222 13.1386 21.1379 13.1289 21.2609 13.1313C21.3236 13.1313 21.3863 13.1337 21.4514 13.141C21.4828 13.1434 21.5166 13.1458 21.5503 13.153C21.5841 13.1579 21.6154 13.1627 21.6492 13.1675C21.7167 13.1796 21.7818 13.1964 21.8518 13.2133C21.8855 13.223 21.9193 13.2326 21.9531 13.2447C21.9868 13.2543 22.0206 13.2688 22.0543 13.2809C22.0881 13.2929 22.1219 13.3074 22.1556 13.3194C22.1894 13.3339 22.2207 13.3484 22.2545 13.3653C22.322 13.3942 22.3847 13.4328 22.4474 13.469C22.5101 13.5075 22.5728 13.5485 22.6307 13.592C22.6597 13.6137 22.6886 13.6378 22.7175 13.6595C22.7465 13.6836 22.7754 13.7053 22.802 13.7294C22.9105 13.8259 23.0094 13.932 23.0938 14.0453C23.1782 14.1563 23.2481 14.272 23.306 14.3878C23.3205 14.4167 23.3325 14.4457 23.3446 14.4746C23.3566 14.5035 23.3687 14.5301 23.3783 14.559C23.3976 14.6169 23.4169 14.6724 23.4314 14.7254C23.4386 14.7519 23.4459 14.7785 23.4507 14.805C23.4555 14.8315 23.4627 14.8556 23.4651 14.8822C23.47 14.9063 23.4724 14.9328 23.4772 14.9545C23.4796 14.9666 23.482 14.9786 23.482 14.9883C23.482 15.0003 23.4844 15.0124 23.4844 15.0245C23.4869 15.0703 23.4917 15.1113 23.4893 15.1523C23.4893 15.1909 23.4893 15.227 23.4869 15.2608C23.4844 15.2946 23.482 15.3235 23.4772 15.35C23.4748 15.3766 23.47 15.3983 23.4676 15.4176C23.4651 15.4344 23.4603 15.4489 23.4579 15.4586C23.4555 15.4682 23.4555 15.473 23.4555 15.473L23.3904 15.5044C23.3904 15.5044 23.3832 15.4899 23.3687 15.4658C23.3542 15.4393 23.3349 15.4031 23.3084 15.3549C23.2963 15.3307 23.2795 15.3066 23.2626 15.2777C23.2457 15.2512 23.2264 15.2198 23.2071 15.1885C23.1878 15.1571 23.1637 15.1233 23.1396 15.0896C23.1155 15.0558 23.0938 15.0172 23.0648 14.9811C23.0359 14.9449 23.0069 14.9063 22.978 14.8677C22.9466 14.8291 22.9129 14.7905 22.8791 14.7519C22.8092 14.6748 22.732 14.5952 22.6476 14.518C22.5632 14.4408 22.474 14.3637 22.3775 14.2913C22.3293 14.2552 22.2786 14.2214 22.2304 14.1876C22.1798 14.1563 22.1291 14.1225 22.0761 14.0912C22.023 14.0598 21.9724 14.0285 21.9169 13.9995L21.8373 13.9561C21.8108 13.9441 21.7818 13.9296 21.7553 13.9175C21.7022 13.891 21.6468 13.8693 21.5913 13.8452C21.5358 13.8235 21.4828 13.8018 21.4297 13.7801C21.3767 13.7608 21.3236 13.7415 21.2706 13.7246C21.2175 13.7053 21.1669 13.6908 21.1162 13.6764C21.0149 13.6474 20.9185 13.6209 20.8292 13.6016C20.74 13.5823 20.6556 13.5654 20.5833 13.5534C20.5085 13.5413 20.4434 13.5317 20.3903 13.5244C20.3373 13.5172 20.2939 13.5124 20.2673 13.5124C20.2529 13.5124 20.2432 13.51 20.236 13.51H20.2239L20.2167 13.4304ZM24.3502 15.4682C24.3502 15.4682 24.3526 15.4658 24.3575 15.4586C24.3623 15.4537 24.3695 15.4441 24.3792 15.432C24.3888 15.42 24.4009 15.4079 24.4153 15.3934C24.4298 15.379 24.4467 15.3645 24.466 15.3476C24.5046 15.3139 24.5528 15.2801 24.6083 15.2487C24.6637 15.2174 24.7288 15.1836 24.8012 15.1595C24.9435 15.1089 25.1147 15.0799 25.2956 15.0968C25.3414 15.0992 25.3872 15.1065 25.433 15.1161C25.4547 15.1209 25.4789 15.1258 25.503 15.133C25.5247 15.1378 25.5488 15.145 25.5705 15.1523C25.6163 15.1667 25.6621 15.1836 25.7056 15.2029C25.7514 15.2222 25.7948 15.2463 25.8358 15.2704C25.8792 15.2946 25.9202 15.3235 25.9588 15.3524C25.9781 15.3669 25.9974 15.3838 26.0167 15.3983C26.0359 15.4151 26.0552 15.4296 26.0721 15.4465C26.1083 15.4803 26.1421 15.5164 26.1734 15.5526C26.2048 15.5912 26.2337 15.6274 26.2602 15.6684C26.3133 15.748 26.3543 15.8324 26.3832 15.9144C26.3977 15.9554 26.4097 15.9963 26.4194 16.0373C26.429 16.0783 26.4339 16.1193 26.4387 16.1579C26.4411 16.1772 26.4435 16.1965 26.4435 16.2158C26.4435 16.2351 26.4459 16.252 26.4435 16.2713V16.3484C26.4435 16.3581 26.4411 16.3653 26.4411 16.375C26.4363 16.4087 26.4339 16.4377 26.4266 16.4666C26.4218 16.4956 26.4146 16.5197 26.4073 16.5462C26.4001 16.5703 26.3929 16.592 26.3856 16.6113C26.3784 16.6306 26.3712 16.6451 26.3663 16.6595C26.3615 16.6716 26.3543 16.6837 26.3519 16.6885C26.3495 16.6957 26.347 16.6981 26.347 16.6981L26.2819 16.7295C26.2819 16.7295 26.2771 16.7223 26.2675 16.7054C26.2578 16.6909 26.2458 16.6692 26.2289 16.6403C26.212 16.6113 26.1903 16.58 26.1662 16.5414C26.1541 16.5221 26.1396 16.5028 26.1252 16.4835C26.1107 16.4642 26.0962 16.4401 26.0769 16.4184C26.0601 16.3967 26.0408 16.375 26.0239 16.3509C26.0046 16.3292 25.9829 16.305 25.9612 16.2833C25.9178 16.2375 25.8695 16.1917 25.8189 16.1459C25.7683 16.1 25.7128 16.0542 25.6549 16.0132C25.626 15.9915 25.5946 15.9722 25.5657 15.9529C25.5343 15.9336 25.503 15.9144 25.4716 15.8975C25.4403 15.8782 25.4089 15.8613 25.3752 15.8444C25.3438 15.8275 25.31 15.8107 25.2763 15.7962C25.2449 15.7793 25.2112 15.7672 25.1774 15.7528C25.1436 15.7407 25.1123 15.7262 25.0785 15.7142C25.0448 15.7021 25.0134 15.6925 24.9821 15.6804C24.9507 15.6684 24.9194 15.6587 24.888 15.6515C24.8277 15.6346 24.7674 15.6177 24.7144 15.6057C24.6589 15.5936 24.6107 15.584 24.5649 15.5743C24.519 15.5671 24.4804 15.5598 24.4491 15.555C24.4177 15.5502 24.3912 15.5478 24.3743 15.5454C24.3575 15.543 24.3478 15.543 24.3478 15.543L24.3502 15.4682Z" fill="white"/>
<path d="M9.22687 16.662C9.22687 16.8001 9.28175 16.9326 9.37944 17.0303C9.47713 17.128 9.60963 17.1829 9.74778 17.1829C9.88593 17.1829 10.0184 17.128 10.1161 17.0303C10.2138 16.9326 10.2687 16.8001 10.2687 16.662C10.2687 16.5238 10.2138 16.3913 10.1161 16.2936C10.0184 16.1959 9.88593 16.1411 9.74778 16.1411C9.60963 16.1411 9.47713 16.1959 9.37944 16.2936C9.28175 16.3913 9.22687 16.5238 9.22687 16.662Z" fill="#774621"/>
<path d="M10.5919 15.5164C10.5919 15.6546 10.6467 15.7871 10.7444 15.8848C10.8421 15.9825 10.9746 16.0374 11.1128 16.0374C11.2509 16.0374 11.3834 15.9825 11.4811 15.8848C11.5788 15.7871 11.6337 15.6546 11.6337 15.5164C11.6337 15.3783 11.5788 15.2458 11.4811 15.1481C11.3834 15.0504 11.2509 14.9955 11.1128 14.9955C10.9746 14.9955 10.8421 15.0504 10.7444 15.1481C10.6467 15.2458 10.5919 15.3783 10.5919 15.5164Z" fill="#774621"/>
<path d="M16.6451 15.6226C16.6451 15.7607 16.7 15.8932 16.7977 15.9909C16.8953 16.0886 17.0278 16.1435 17.166 16.1435C17.3041 16.1435 17.4366 16.0886 17.5343 15.9909C17.632 15.8932 17.6869 15.7607 17.6869 15.6226C17.6869 15.4844 17.632 15.3519 17.5343 15.2542C17.4366 15.1565 17.3041 15.1016 17.166 15.1016C17.0278 15.1016 16.8953 15.1565 16.7977 15.2542C16.7 15.3519 16.6451 15.4844 16.6451 15.6226Z" fill="#774621"/>
<path d="M12.1136 31.807H21.0511V34.332H12.1136V31.807Z" fill="#5B2B20"/>
<path d="M10.1674 3.4607C10.2374 3.4607 10.3049 3.47517 10.3724 3.49205C10.4062 3.5017 10.4399 3.51134 10.4737 3.5234C10.5075 3.53546 10.5388 3.54752 10.5726 3.56199C10.6063 3.57646 10.6377 3.59093 10.669 3.60781C10.7004 3.62469 10.7317 3.64157 10.7631 3.66086C10.7944 3.68016 10.8234 3.69945 10.8523 3.72115C10.8813 3.74286 10.9102 3.76456 10.9391 3.78868C10.9946 3.8345 11.0501 3.88514 11.1007 3.9382C11.1248 3.96473 11.1514 3.99126 11.1731 4.0202C11.1948 4.04914 11.2189 4.07807 11.2406 4.10701L11.3033 4.19866C11.3226 4.23001 11.3419 4.26136 11.3612 4.29512C11.3805 4.32647 11.3949 4.36024 11.4142 4.394L11.4383 4.44464L11.4601 4.49529C11.4745 4.52905 11.4914 4.56281 11.5011 4.59899L11.5372 4.7051C11.5493 4.74127 11.5565 4.77504 11.5686 4.81121C11.5782 4.84739 11.5879 4.88356 11.5951 4.91732L11.6168 5.02585C11.624 5.06202 11.6265 5.0982 11.6313 5.13437C11.6433 5.20672 11.6457 5.27907 11.6506 5.35142C11.653 5.38759 11.653 5.42377 11.653 5.45994V5.56846C11.6506 5.64081 11.6457 5.71075 11.6433 5.7831C11.6361 5.85304 11.6289 5.92297 11.6192 5.99291C11.6072 6.06285 11.5975 6.13037 11.583 6.20031L11.5782 6.22443L11.5734 6.24131L11.4721 6.54517L11.4239 6.69469L11.3781 6.8418C11.3636 6.89004 11.3491 6.94068 11.3346 6.98891C11.3202 7.03715 11.3057 7.08779 11.2937 7.13602C11.2671 7.2349 11.2454 7.33137 11.2261 7.43024C11.2165 7.47848 11.2068 7.52912 11.1996 7.57976C11.1924 7.63041 11.1851 7.67864 11.1803 7.72928C11.1779 7.7534 11.1755 7.77993 11.1731 7.80405C11.1707 7.83057 11.1707 7.85469 11.1682 7.87881C11.1658 7.90533 11.1658 7.92945 11.1658 7.95598V8.07174L11.1682 8.11032L11.1707 8.14891L11.1731 8.18749L11.1803 8.26708C11.1827 8.29361 11.1851 8.32013 11.19 8.34666C11.1972 8.39972 11.2068 8.45277 11.2189 8.50824L11.2382 8.59024C11.2454 8.61677 11.2527 8.6457 11.2599 8.67464C11.2382 8.65535 11.2165 8.63847 11.1948 8.61918C11.1731 8.59988 11.1538 8.57818 11.1321 8.55647C11.1104 8.53477 11.0935 8.51306 11.0742 8.49136C11.0549 8.46966 11.038 8.44554 11.0211 8.42142C10.9874 8.37319 10.9536 8.32255 10.9247 8.26949C10.9102 8.24296 10.8957 8.21643 10.8837 8.18991L10.8644 8.14891L10.8475 8.10791C10.8354 8.07897 10.8234 8.05244 10.8137 8.0235L10.7848 7.93669C10.7752 7.90775 10.7679 7.87881 10.7607 7.84987C10.7534 7.82093 10.7462 7.79199 10.739 7.76064C10.7269 7.70035 10.7173 7.64247 10.7076 7.58218C10.7004 7.52188 10.6932 7.46159 10.6907 7.4013C10.6835 7.28072 10.6859 7.16014 10.6932 7.04197C10.698 6.98168 10.7028 6.9238 10.71 6.86592C10.7173 6.80804 10.7245 6.75016 10.7342 6.69228C10.7438 6.6344 10.7534 6.57653 10.7655 6.52106C10.7776 6.46559 10.7896 6.40771 10.8041 6.35224C10.8161 6.29678 10.833 6.24131 10.8475 6.18825C10.862 6.13278 10.8789 6.07973 10.8933 6.02667L10.8837 6.07008C10.8909 6.00979 10.9006 5.95191 10.9102 5.89162L10.9319 5.71557L10.9464 5.53952C10.9488 5.48164 10.9536 5.42377 10.9536 5.36589C10.9536 5.30801 10.956 5.25013 10.9536 5.19225L10.9512 5.10543L10.9464 5.02102C10.9464 5.00655 10.944 4.99208 10.944 4.97761L10.9391 4.9342C10.9367 4.90526 10.9343 4.87633 10.9295 4.8498L10.9174 4.76539C10.9126 4.73645 10.9078 4.70992 10.9006 4.68098L10.8933 4.63999L10.8837 4.59899C10.8764 4.57246 10.8716 4.54352 10.862 4.51699C10.8547 4.49046 10.8475 4.46152 10.8379 4.435L10.8089 4.353L10.7776 4.27342L10.7414 4.19383C10.7293 4.16731 10.7149 4.14078 10.7028 4.11425C10.6883 4.08772 10.6739 4.06361 10.6594 4.03708C10.6449 4.01055 10.628 3.98643 10.6136 3.95991C10.5967 3.93579 10.5798 3.90926 10.5629 3.88514C10.5292 3.8345 10.4906 3.78627 10.4496 3.73804C10.4303 3.71392 10.4086 3.6898 10.3869 3.66569C10.3652 3.64157 10.3435 3.61745 10.3194 3.59575C10.2687 3.54752 10.2205 3.50411 10.1674 3.4607ZM16.7584 0.670441C16.7102 0.711438 16.6668 0.752436 16.6234 0.793434C16.6017 0.815139 16.5799 0.834432 16.5607 0.856136C16.5414 0.877841 16.5197 0.897134 16.5004 0.92125L16.4714 0.952602C16.4618 0.96466 16.4521 0.974306 16.4425 0.986364C16.4232 1.00807 16.4063 1.02977 16.387 1.05148C16.3701 1.07318 16.3533 1.0973 16.334 1.119L16.2857 1.18653L16.2399 1.25406L16.1965 1.32399L16.1579 1.39393C16.1459 1.41805 16.1338 1.44216 16.1217 1.46387C16.1 1.50969 16.0783 1.55792 16.0614 1.60615L16.047 1.64233L16.0349 1.6785C16.0277 1.70262 16.018 1.72673 16.0132 1.75085C16.0084 1.77497 15.9987 1.79908 15.9939 1.8232L15.9795 1.89555C15.9746 1.91967 15.9722 1.94378 15.9698 1.9679C15.965 1.99201 15.965 2.01613 15.9626 2.04025C15.9577 2.08848 15.9577 2.13671 15.9553 2.18494C15.9553 2.20906 15.9577 2.23318 15.9577 2.25729V2.29347C15.9577 2.30553 15.9602 2.31758 15.9626 2.32964L15.9698 2.40199L15.9819 2.47675C15.9867 2.52498 16.0012 2.57563 16.0084 2.62386C16.0132 2.64798 16.0204 2.67209 16.0253 2.69862C16.0325 2.72274 16.0373 2.74685 16.0446 2.77338C16.059 2.82403 16.0759 2.87226 16.0904 2.92049L16.0783 2.88914C16.1024 2.94702 16.129 3.0049 16.1555 3.06519C16.1796 3.12548 16.2061 3.18577 16.2303 3.24606C16.2809 3.36906 16.3267 3.49687 16.3677 3.6271C16.3894 3.69221 16.4063 3.75974 16.4256 3.82485C16.4425 3.89238 16.4594 3.95991 16.4714 4.02984C16.4787 4.06361 16.4835 4.09978 16.4907 4.13354C16.4955 4.16972 16.5004 4.20348 16.5052 4.23965C16.5148 4.30959 16.5197 4.38194 16.5221 4.45188C16.5245 4.52423 16.5245 4.59416 16.5221 4.66651C16.5197 4.73886 16.5124 4.8088 16.5028 4.88115C16.4931 4.95109 16.4787 5.02102 16.4618 5.09096C16.4449 5.1609 16.4256 5.22842 16.4015 5.29354C16.3894 5.3273 16.3774 5.35865 16.3629 5.39241L16.3195 5.48888C16.2881 5.55158 16.2568 5.61187 16.2206 5.66975C16.2037 5.69869 16.1844 5.72763 16.1651 5.75657L16.1362 5.79757L16.1097 5.83615C16.0687 5.88921 16.0229 5.94227 15.977 5.9905C15.9843 5.92297 15.9987 5.85786 16.006 5.79274L16.0132 5.74451L16.018 5.69628C16.0204 5.66493 16.0277 5.63358 16.0277 5.59981C16.0301 5.56846 16.0349 5.53711 16.0349 5.50576L16.0397 5.41171L16.0422 5.32007V5.22842C16.0397 5.16813 16.0373 5.10784 16.0325 5.04755C16.0325 5.01861 16.0277 4.98726 16.0253 4.95832C16.0229 4.92938 16.018 4.90044 16.0132 4.8715C16.006 4.81362 15.9939 4.75574 15.9843 4.69786C15.9722 4.63999 15.9602 4.58452 15.9457 4.52905C15.9312 4.47358 15.9143 4.4157 15.8975 4.36024C15.8806 4.30477 15.8613 4.2493 15.842 4.19383L15.813 4.10943L15.7817 4.02502L15.7479 3.94061L15.7142 3.85621L15.6418 3.68739L15.5671 3.51617L15.4899 3.34253C15.4634 3.28465 15.4392 3.22436 15.4127 3.16407L15.4055 3.14477L15.4031 3.13272C15.3838 3.0676 15.3669 3.0049 15.35 2.93979C15.3428 2.90602 15.3355 2.87467 15.3307 2.84091C15.3235 2.80715 15.3163 2.77579 15.3138 2.74203C15.3042 2.67451 15.2945 2.60698 15.2921 2.53704C15.2897 2.50328 15.2873 2.46711 15.2873 2.43334L15.2897 2.32964C15.2897 2.31276 15.2897 2.29588 15.2921 2.27659L15.297 2.22353C15.3018 2.18977 15.3042 2.15359 15.309 2.11983C15.3211 2.04989 15.3331 1.97996 15.3524 1.91243C15.3693 1.8449 15.3934 1.77738 15.4175 1.71227C15.432 1.68091 15.4465 1.64715 15.4609 1.6158C15.4754 1.58445 15.4923 1.5531 15.5092 1.52175C15.5261 1.4904 15.5429 1.46146 15.5622 1.43252L15.5912 1.38911C15.6008 1.37464 15.6105 1.36017 15.6225 1.34811C15.6611 1.29264 15.7069 1.23959 15.7528 1.18894C15.7769 1.16483 15.7986 1.14071 15.8227 1.11659C15.8468 1.09489 15.8709 1.07077 15.8975 1.04907C15.924 1.02736 15.9481 1.00807 15.9746 0.986364L16.0542 0.928485C16.1097 0.892311 16.1651 0.858548 16.2206 0.829608C16.2785 0.800669 16.3364 0.774141 16.3943 0.752436C16.4521 0.72832 16.5124 0.711438 16.5751 0.694557C16.633 0.687322 16.6957 0.675264 16.7584 0.670441Z" fill="#774621"/>
</svg>
