<svg width="35" height="35" viewBox="0 0 35 35" fill="none" xmlns="http://www.w3.org/2000/svg">
<path d="M4.5685 20.2644C4.84837 21.2491 5.70785 21.8975 8.00485 22.7582L10.8757 32.0827C10.8757 32.0827 11.0671 32.274 11.4497 32.3218C12.5022 32.2258 24.0821 32.3218 24.0821 32.3218C24.0821 32.3218 24.7998 32.4649 25.0872 31.6523C25.3737 30.839 27.8149 22.0886 27.8149 22.0886C27.8149 22.0886 31.2597 22.0406 31.5944 19.0755C31.6422 16.8762 3.98681 18.2176 4.5685 20.2644Z" fill="#77261C"/>
<path d="M23.8237 33.0684C23.7714 33.0686 23.7193 33.0645 23.6677 33.0562C23.1234 33.0517 11.7446 32.9603 10.7046 33.0554L10.6804 33.0576L10.6564 33.0546C10.1995 32.9974 9.96063 32.7704 9.93489 32.7447L9.89552 32.7053L8.87939 29.4048C8.8619 29.348 8.86769 29.2865 8.89548 29.234C8.92328 29.1815 8.9708 29.1421 9.0276 29.1246C9.0844 29.1071 9.14582 29.1129 9.19836 29.1407C9.25089 29.1685 9.29023 29.216 9.30772 29.2728L10.2877 32.456C10.3473 32.4986 10.4809 32.5766 10.6899 32.6068C11.9175 32.5122 23.2072 32.6042 23.6908 32.6081L23.7327 32.6125C23.7876 32.6224 24.291 32.6939 24.5124 32.0683C24.8013 31.2479 27.2908 22.3272 27.3159 22.2372L27.3609 22.076L27.5284 22.0734C27.6615 22.0713 30.7065 21.9921 31.167 19.3978C24.7899 18.8618 6.03272 19.7002 4.26947 20.0794C4.37449 21.1762 5.36493 22.0831 7.21651 22.777L7.31961 22.8157L8.18121 25.614C8.19869 25.6708 8.19289 25.7322 8.1651 25.7847C8.1373 25.8372 8.08979 25.8766 8.03301 25.8941C7.97621 25.9115 7.9148 25.9057 7.86228 25.8779C7.80976 25.8501 7.77042 25.8026 7.75289 25.7459L6.95593 23.1573C4.9006 22.3652 3.84318 21.2832 3.81263 19.9406C3.81101 19.8715 3.83894 19.8064 3.89133 19.7577C3.98062 19.6745 4.11549 19.549 7.60322 19.325C9.76686 19.1861 12.5757 19.0545 15.5124 18.9545C22.75 18.7081 28.7054 18.7146 31.4436 18.9726L31.6709 18.9939L31.6452 19.2208C31.3276 22.0344 28.4405 22.4512 27.7046 22.5116C27.3609 23.7426 25.2112 31.4333 24.9351 32.2175C24.6952 32.8953 24.1745 33.0684 23.8237 33.0684Z" fill="#040000"/>
<path d="M8.76693 28.5022C8.71903 28.5021 8.6724 28.4868 8.63388 28.4583C8.59536 28.4299 8.56696 28.3898 8.55287 28.344L8.10671 26.895C8.09766 26.8668 8.0943 26.837 8.09682 26.8075C8.09935 26.7779 8.10771 26.7492 8.12143 26.7229C8.13514 26.6966 8.15393 26.6733 8.17671 26.6544C8.1995 26.6354 8.22582 26.6211 8.25415 26.6124C8.28248 26.6037 8.31226 26.6007 8.34177 26.6035C8.37127 26.6064 8.39992 26.6151 8.42604 26.6291C8.45216 26.6431 8.47524 26.6622 8.49394 26.6852C8.51265 26.7082 8.5266 26.7347 8.53499 26.7631L8.98116 28.2122C8.99149 28.2457 8.9938 28.2812 8.98791 28.3157C8.98203 28.3503 8.9681 28.383 8.94726 28.4112C8.92642 28.4395 8.89924 28.4624 8.86792 28.4782C8.8366 28.494 8.80201 28.5022 8.76693 28.5022Z" fill="#040000"/>
<path d="M12.3417 30.4313C11.9292 30.5574 11.4878 30.3104 11.356 29.8799L9.55315 23.9686C9.42224 23.5382 9.6499 23.0872 10.0626 22.9625C10.4752 22.8362 10.9158 23.0833 11.0464 23.5136L12.8509 29.4252C12.982 29.8554 12.7544 30.3063 12.3417 30.4313ZM16.0973 30.5705C15.6691 30.6246 15.276 30.307 15.2197 29.8603L14.4402 23.7296C14.3836 23.2836 14.6842 22.878 15.1123 22.8231C15.5398 22.769 15.9326 23.0866 15.9891 23.5333L16.7695 29.6638C16.826 30.1098 16.5254 30.5158 16.0973 30.5705ZM21.2118 23.7296L20.4324 29.8603C20.3758 30.307 19.9839 30.6246 19.5555 30.5705C19.1274 30.5158 18.8261 30.1098 18.8832 29.6638L19.6627 23.5333C19.7202 23.0866 20.1123 22.769 20.5405 22.8231C20.9679 22.878 21.2692 23.2837 21.2118 23.7296ZM26.0998 23.9686L24.2961 29.8799C24.1643 30.3103 23.7237 30.5574 23.3111 30.4313C22.8984 30.3063 22.671 29.8554 22.8018 29.425L24.6055 23.5136C24.7372 23.0836 25.1778 22.8363 25.5905 22.9625C26.003 23.0872 26.2306 23.5382 26.0998 23.9686Z" fill="#F1DD81"/>
<path d="M31.1842 18.3982C30.8715 19.4421 29.1996 21.1646 26.9548 19.0773C26.6413 18.8681 26.38 18.7639 25.7528 19.39C25.1264 20.0168 24.8147 22.0326 21.9949 21.9279C20.428 21.8241 19.1212 20.4864 18.4942 19.6511C18.1289 19.129 17.3976 19.0249 16.9277 19.7033C16.458 20.3815 14.7344 22.0514 12.4373 19.9644C12.0197 19.39 11.2876 19.1813 10.5566 19.9644C9.82551 20.7472 7.37083 21.8428 5.02124 19.2862C4.08119 18.242 5.07329 15.7368 7.21455 15.2671L7.42317 14.9539C7.42317 14.9539 7.85382 5.40401 17.9259 4.88197C25.1855 5.28037 28.2073 10.3621 28.6775 15.6853C30.558 16.1549 31.498 17.3552 31.1842 18.3982Z" fill="#F7E0A5"/>
<path d="M18.5464 8.69153C18.5464 8.17274 18.1257 7.75206 17.6065 7.75206C17.0875 7.75206 16.6667 8.17274 16.6667 8.69153C16.6667 9.20995 17.0876 9.63071 17.6065 9.63071C18.1257 9.63071 18.5464 9.21028 18.5464 8.69153Z" fill="#2EB3E9"/>
<path d="M24.6 10.2813C24.6 9.7625 24.1792 9.34194 23.6603 9.34194C23.1411 9.34194 22.7204 9.7625 22.7204 10.2813C22.7204 10.8 23.1411 11.2205 23.6603 11.2205C24.1792 11.2205 24.6 10.8 24.6 10.2813Z" fill="#75291C"/>
<path d="M24.2121 15.1495C23.6928 15.1495 23.2721 15.5697 23.2721 16.0894C23.2721 16.6081 23.6928 17.0286 24.2121 17.0286C24.7312 17.0286 25.1519 16.6081 25.1519 16.0894C25.1518 15.5699 24.7312 15.1495 24.2121 15.1495Z" fill="#6AB82E"/>
<path d="M17.9554 14.2101C17.4362 14.2101 17.0153 14.6305 17.0153 15.1496C17.0153 15.668 17.4362 16.0894 17.9554 16.0894C18.4743 16.0894 18.8951 15.6681 18.8951 15.1496C18.8952 14.6305 18.4743 14.2101 17.9554 14.2101Z" fill="#EED922"/>
<path d="M12.2914 10.5732C11.7724 10.5732 11.3517 10.9939 11.3517 11.5125C11.3517 12.0313 11.7724 12.4518 12.2914 12.4518C12.8106 12.4518 13.2313 12.0313 13.2313 11.5125C13.2313 10.9939 12.8105 10.5732 12.2914 10.5732Z" fill="#E94B49"/>
<path d="M10.6057 15.1495C10.0857 15.1495 9.66479 15.5697 9.66479 16.0894C9.66479 16.6081 10.0857 17.0286 10.6057 17.0286C11.1246 17.0286 11.5456 16.6081 11.5456 16.0894C11.5454 15.5699 11.1246 15.1495 10.6057 15.1495Z" fill="#75291C"/>
<path d="M28.5281 15.6692C28.0579 10.3461 25.0361 5.26428 17.7764 4.86584C14.2097 5.05068 11.853 6.36813 10.2955 7.9921C11.832 6.70134 13.9921 5.72159 17.0309 5.56402C24.2905 5.96242 27.3123 11.0442 27.7825 16.3673C29.6631 16.8369 30.603 18.0373 30.2892 19.0804C30.2279 19.2852 30.1135 19.5157 29.9535 19.7389C30.5203 19.3949 30.9015 18.8274 31.0348 18.3822C31.3486 17.3391 30.4087 16.1387 28.5281 15.6692Z" fill="#D7C293"/>
<path d="M9.89534 7.69868C9.85043 7.6987 9.80655 7.68522 9.76939 7.65999C9.73224 7.63477 9.70352 7.59895 9.68697 7.5572C9.67042 7.51545 9.6668 7.46969 9.67658 7.42586C9.68636 7.38202 9.70909 7.34214 9.74181 7.31138C10.347 6.74241 11.0258 6.24778 11.7595 5.84094C11.8115 5.81215 11.8728 5.80517 11.9299 5.82154C11.9871 5.83791 12.0354 5.87629 12.0642 5.92825C12.093 5.98024 12.1 6.04154 12.0836 6.09868C12.0672 6.15581 12.0288 6.2041 11.9768 6.23294C11.2757 6.62164 10.6269 7.09437 10.0488 7.63786C10.0073 7.67696 9.95238 7.69872 9.89534 7.69868Z" fill="#040000"/>
<path d="M21.7259 22.4434C21.6528 22.4434 21.5782 22.442 21.5018 22.4391C19.5869 22.3128 18.1105 20.5375 17.7033 19.9962C17.5482 19.7753 17.3214 19.6471 17.0922 19.6471H17.0907C16.8502 19.6477 16.6202 19.7885 16.4431 20.0435C16.2991 20.2508 15.5149 21.2925 14.2118 21.4415C13.2961 21.5455 12.3687 21.1793 11.4552 20.3516L11.4246 20.3176C11.2314 20.0524 10.9818 19.8976 10.7217 19.8817C10.4275 19.8645 10.117 20.0217 9.82049 20.3386C9.34419 20.8473 8.3589 21.3584 7.22774 21.3584H7.21257C6.35633 21.3551 5.06153 21.0534 3.75589 19.6363C3.31446 19.1472 3.20874 18.3673 3.47157 17.5485C3.85071 16.3675 4.8594 15.4277 6.05646 15.1316L6.18958 14.9324C6.22379 14.4153 6.53102 11.0725 8.86148 8.25073C8.8994 8.20515 8.95383 8.17646 9.01285 8.17094C9.07187 8.16541 9.13068 8.1835 9.1764 8.22124C9.22211 8.25898 9.25101 8.3133 9.25676 8.3723C9.26251 8.43131 9.24465 8.49018 9.20708 8.53604C6.82606 11.419 6.63524 14.9808 6.63366 15.0163L6.63075 15.0786L6.32972 15.5293L6.24154 15.5486C4.92584 15.8366 4.15694 16.8797 3.89832 17.6854C3.68488 18.3505 3.75543 18.9668 4.0871 19.3343C5.0459 20.375 6.09857 20.9058 7.21444 20.9102H7.22866C8.36697 20.9102 9.18725 20.3592 9.49339 20.0323C9.98707 19.5047 10.4499 19.4152 10.7492 19.4344C11.1382 19.4581 11.5009 19.6709 11.7726 20.0342C12.5807 20.7613 13.3852 21.0843 14.161 20.9962C15.0227 20.8977 15.7307 20.2837 16.0751 19.7879C16.3381 19.409 16.6984 19.2 17.0896 19.1989H17.0922C17.4674 19.1989 17.8311 19.3984 18.0659 19.7329C18.4396 20.2294 19.8069 21.8782 21.5249 21.9916C23.6294 22.0706 24.2935 20.9386 24.7771 20.1129C24.9373 19.8395 25.0755 19.6032 25.2461 19.4331C25.9348 18.7472 26.3276 18.7849 26.7741 19.082L26.8024 19.1043C27.6584 19.8983 28.5194 20.2067 29.2913 19.997C30.1525 19.7627 30.6761 18.9746 30.8181 18.5021C30.9215 18.1591 30.8698 17.791 30.669 17.4374C30.2952 16.78 29.4612 16.2486 28.381 15.9796L28.226 15.941L28.2119 15.7819C27.9347 12.6515 26.3161 5.31903 17.293 4.81887C15.756 4.89948 14.3494 5.19344 13.1121 5.69273C12.9977 5.73921 12.8669 5.68359 12.8205 5.5688C12.7983 5.51368 12.7988 5.45198 12.8221 5.39727C12.8453 5.34257 12.8893 5.29934 12.9445 5.27708C14.2311 4.75796 15.6903 4.45298 17.2817 4.37071L17.2937 4.37012L17.3056 4.37079C20.8624 4.56548 23.6772 5.82764 25.6717 8.12222C27.3266 10.0261 28.3526 12.6039 28.6436 15.5853C29.7683 15.8964 30.6433 16.4855 31.0584 17.216C31.3216 17.6788 31.3868 18.1682 31.2472 18.6314C31.0428 19.3119 30.3802 20.165 29.4088 20.4294C28.7637 20.6052 27.7374 20.5762 26.5109 19.4452C26.2783 19.2909 26.1143 19.201 25.5624 19.7504C25.4331 19.8797 25.3083 20.0927 25.1637 20.3395C24.67 21.1827 23.9315 22.4433 21.7259 22.4434Z" fill="#040000"/>
</svg>
