<svg width="35" height="35" viewBox="0 0 35 35" fill="none" xmlns="http://www.w3.org/2000/svg">
<g clip-path="url(#clip0_161_9888)">
<path d="M5.42621 8.15608L5.43112 8.1504C7.07542 6.23647 10.115 6.51001 11.3912 8.68682C12.2832 10.2082 14.1299 10.882 15.7921 10.2922L16.3221 10.1041C16.3221 10.1041 15.9221 11.8781 14.9987 12.1081" fill="#45CE83"/>
<path d="M29.5738 7.9383L29.5689 7.93263C27.9246 6.0187 24.8849 6.29224 23.6088 8.46904C22.7168 9.99046 20.8701 10.6642 19.2079 10.0745L18.6779 9.88637C18.6779 9.88637 19.0779 11.6603 20.0013 11.8903" fill="#45CE83"/>
<path d="M6.50752 28.2645L0.688037 25.8684C0.166733 25.6537 -0.111178 25.0826 0.0417767 24.5399L4.72262 7.93109L16.2724 12.6866L7.90184 27.7762C7.6283 28.2692 7.02883 28.4791 6.50752 28.2645Z" fill="#46B9CC"/>
<path d="M6.70872 26.9891C6.64582 26.9891 6.582 26.9736 6.52301 26.9408C6.33784 26.838 6.27095 26.6046 6.37374 26.4194L6.90187 25.4674C7.00466 25.2822 7.238 25.2153 7.42333 25.3181C7.6085 25.4209 7.67539 25.6543 7.5726 25.8395L7.04447 26.7915C6.97443 26.9177 6.84365 26.9891 6.70872 26.9891Z" fill="white"/>
<path d="M8.01762 24.6297C7.95472 24.6297 7.8909 24.6142 7.83191 24.5814C7.64674 24.4787 7.57985 24.2452 7.68264 24.06L11.6112 16.9779C11.7139 16.7927 11.9473 16.7258 12.1327 16.8285C12.3178 16.9313 12.3847 17.1648 12.2819 17.35L8.35337 24.4321C8.28333 24.5584 8.15255 24.6297 8.01762 24.6297Z" fill="white"/>
<path d="M16.4637 13.3157L4.14394 8.24314C3.88405 8.13613 3.76017 7.83874 3.8671 7.57885C3.97411 7.31897 4.2715 7.19508 4.53139 7.30201L16.8511 12.3745C17.111 12.4815 17.2349 12.7789 17.128 13.0388C17.021 13.2988 16.7236 13.4227 16.4637 13.3157Z" fill="#F4E84A"/>
<path d="M28.4925 28.2645L34.312 25.8684C34.8333 25.6537 35.1112 25.0826 34.9582 24.5399L30.2774 7.93109L18.7275 12.6866L27.0982 27.7762C27.3716 28.2692 27.9711 28.4791 28.4925 28.2645Z" fill="#F48438"/>
<path d="M33.2867 24.9319C33.1193 24.9319 32.9655 24.8215 32.9178 24.6523L32.4442 22.9718C32.3867 22.7679 32.5054 22.5561 32.7093 22.4986C32.9135 22.4412 33.125 22.5598 33.1825 22.7637L33.6561 24.4442C33.7135 24.6481 33.5948 24.86 33.391 24.9174C33.3561 24.9272 33.3212 24.9319 33.2867 24.9319Z" fill="white"/>
<path d="M32.3098 21.4658C32.1424 21.4658 31.9886 21.3554 31.9408 21.1862L29.6461 13.0436C29.5886 12.8398 29.7073 12.6279 29.9112 12.5704C30.115 12.5131 30.3269 12.6316 30.3844 12.8355L32.6792 20.9781C32.7366 21.182 32.6179 21.3939 32.4141 21.4513C32.3794 21.4612 32.3443 21.4658 32.3098 21.4658Z" fill="white"/>
<path d="M29.5519 11.6798C29.3845 11.6798 29.2307 11.5693 29.183 11.4002L28.8485 10.2135C28.7911 10.0096 28.9097 9.79777 29.1136 9.74032C29.3174 9.68302 29.5294 9.80153 29.5868 10.0054L29.9213 11.1921C29.9787 11.396 29.8601 11.6078 29.6562 11.6653C29.6214 11.6751 29.5864 11.6798 29.5519 11.6798Z" fill="white"/>
<path d="M18.5363 13.3157L30.8561 8.24321C31.116 8.13621 31.2399 7.83881 31.1329 7.57893C31.0259 7.31904 30.7285 7.19516 30.4686 7.30209L18.1489 12.3746C17.889 12.4816 17.7651 12.779 17.872 13.0389C17.9791 13.2988 18.2764 13.4227 18.5363 13.3157Z" fill="#F4E84A"/>
</g>
<defs>
<clipPath id="clip0_161_9888">
<rect width="35" height="35" fill="white"/>
</clipPath>
</defs>
</svg>
