<svg width="35" height="35" viewBox="0 0 35 35" fill="none" xmlns="http://www.w3.org/2000/svg">
<g clip-path="url(#clip0_161_5372)">
<path d="M34.9617 16.354C34.3713 7.2234 26.7798 0 17.5 0C7.83508 0 0 7.83508 0 17.5C0 25.8474 5.84473 32.8286 13.6647 34.5773L34.9617 16.354Z" fill="#934D2B"/>
<path d="M35 17.5C35 17.1149 34.9861 16.7329 34.9616 16.354L27.1848 8.57712L5.14258 26.0552L13.6646 34.5773C14.899 34.8534 16.1823 35 17.5 35C27.1649 35 35 27.1649 35 17.5Z" fill="#813115"/>
<path d="M30.7291 14.7161C30.5539 14.0623 30.1118 13.5516 29.5516 13.269C29.7479 12.673 29.6993 11.9993 29.3609 11.413C29.0225 10.8268 28.4632 10.4479 27.849 10.3199C27.8842 9.69343 27.6631 9.05516 27.1844 8.57657C26.7058 8.09799 26.0676 7.87671 25.4411 7.91212C25.3131 7.29778 24.9342 6.73853 24.348 6.40015C23.7618 6.0617 23.0881 6.01317 22.492 6.20949C22.2094 5.64929 21.6987 5.20714 21.0449 5.032C20.3911 4.8568 19.7277 4.98429 19.2028 5.32821C18.7848 4.86022 18.1771 4.56538 17.5002 4.56538L14.4567 23.4198H27.9335L30.4329 16.5584C30.7766 16.0334 30.9042 15.37 30.7291 14.7161Z" fill="#BEC130"/>
<path d="M15.7973 5.32807C15.2724 4.98415 14.6091 4.85673 13.9552 5.03187C13.3014 5.207 12.7907 5.64908 12.508 6.20936C11.9121 6.01303 11.2383 6.06157 10.6521 6.40001C10.0658 6.73846 9.68699 7.29771 9.55902 7.91198C8.9325 7.87657 8.2943 8.09785 7.81565 8.57644C7.33706 9.05502 7.11579 9.69329 7.15113 10.3198C6.53685 10.4478 5.97753 10.8267 5.63915 11.4129C5.30071 11.9991 5.25217 12.6729 5.4485 13.2688C4.8883 13.5515 4.44615 14.0622 4.27101 14.716C4.09587 15.3699 4.22329 16.0332 4.56721 16.5581L7.06663 23.4195H17.5V4.56525C16.8231 4.56525 16.2153 4.86008 15.7973 5.32807Z" fill="#DDD532"/>
<path d="M6.47576 17.5898C7.7364 17.5898 8.75835 16.5678 8.75835 15.3072C8.75835 14.0465 7.7364 13.0246 6.47576 13.0246C5.21513 13.0246 4.19318 14.0465 4.19318 15.3072C4.19318 16.5678 5.21513 17.5898 6.47576 17.5898Z" fill="#BEC130"/>
<path d="M13.7704 7.23557C13.1401 6.1438 11.744 5.76974 10.6522 6.40015C10.066 6.73859 9.68711 7.29784 9.55914 7.91212C8.93263 7.87671 8.29442 8.09799 7.81577 8.57657C6.92437 9.46798 6.92437 10.9133 7.81577 11.8047C8.70718 12.6961 10.1525 12.6961 11.0438 11.8047L12.9348 10.3536C14.0266 9.72337 14.4006 8.32733 13.7704 7.23557Z" fill="#BEC130"/>
<path d="M30.729 14.7161C30.5539 14.0623 30.1118 13.5516 29.5516 13.269C29.7479 12.673 29.6993 11.9993 29.3609 11.413C29.0224 10.8268 28.4632 10.4479 27.8489 10.3199C27.8842 9.69343 27.6631 9.05516 27.1844 8.57657C26.293 7.68517 24.8477 7.68517 23.9563 8.57657C23.0649 9.46798 23.0649 10.9133 23.9563 11.8047L29.1151 17.5118C30.3326 17.1855 31.0553 15.9339 30.729 14.7161Z" fill="#A0AD2F"/>
<path d="M17.5 6.08692L14.8369 11.413L17.5 16.7392C20.4415 16.7392 22.8261 14.3546 22.8261 11.4131C22.8261 8.47157 20.4415 6.08692 17.5 6.08692Z" fill="#F72E12"/>
<path d="M12.1739 11.4131C12.1739 14.3546 14.5585 16.7392 17.5 16.7392V6.08692C14.5585 6.08692 12.1739 8.4715 12.1739 11.4131Z" fill="#F8513A"/>
<path d="M17.4999 7.60867L15.5978 11.413L17.4999 15.2174C19.601 15.2174 21.3043 13.5141 21.3043 11.4131C21.3043 9.31205 19.601 7.60867 17.4999 7.60867Z" fill="#F8513A"/>
<path d="M13.6957 11.4131C13.6957 13.5142 15.399 15.2174 17.5 15.2174V7.60867C15.3989 7.60867 13.6957 9.31198 13.6957 11.4131Z" fill="#FA7461"/>
<path d="M9.13042 10.6522L6.46735 15.9783L9.13042 21.3043C12.0719 21.3043 14.4565 18.9198 14.4565 15.9783C14.4565 13.0367 12.0719 10.6522 9.13042 10.6522Z" fill="#C9E5FF"/>
<path d="M3.80432 15.9783C3.80432 18.9198 6.1889 21.3043 9.13041 21.3043V10.6522C6.1889 10.6522 3.80432 13.0367 3.80432 15.9783Z" fill="white"/>
<path d="M9.13044 12.1739L7.22827 15.9783L9.13044 19.7826C11.2315 19.7826 12.9348 18.0793 12.9348 15.9783C12.9348 13.8772 11.2315 12.1739 9.13044 12.1739Z" fill="#92CCFF"/>
<path d="M5.32611 15.9783C5.32611 18.0793 7.02942 19.7826 9.13045 19.7826V12.1739C7.02942 12.1739 5.32611 13.8772 5.32611 15.9783Z" fill="#C9E5FF"/>
<path d="M25.8696 10.6522L23.2065 15.9783L25.8696 21.3043C28.8111 21.3043 31.1956 18.9198 31.1956 15.9783C31.1956 13.0367 28.8111 10.6522 25.8696 10.6522Z" fill="#F72E12"/>
<path d="M20.5435 15.9783C20.5435 18.9198 22.9281 21.3043 25.8696 21.3043V10.6522C22.9281 10.6522 20.5435 13.0367 20.5435 15.9783Z" fill="#F8513A"/>
<path d="M25.8696 12.1739L23.9674 15.9783L25.8696 19.7826C27.9707 19.7826 29.6739 18.0793 29.6739 15.9783C29.6739 13.8772 27.9706 12.1739 25.8696 12.1739Z" fill="#F8513A"/>
<path d="M22.0652 15.9783C22.0652 18.0793 23.7686 19.7826 25.8696 19.7826V12.1739C23.7685 12.1739 22.0652 13.8772 22.0652 15.9783Z" fill="#FA7461"/>
<path d="M17.5 9.13042L14.4565 18.2608L16.7391 26.6304L18.2608 27.3913H20.5434L21.3042 26.6304L22.0651 27.3913H24.3477L25.1085 26.6304L25.8694 27.3913H26.6302C27.1639 27.3913 27.6759 27.2988 28.1519 27.1304L28.9128 26.2278H29.6736C30.6073 25.3919 31.1954 24.1779 31.1954 22.826C31.1956 15.2622 25.0639 9.13042 17.5 9.13042Z" fill="#FC870B"/>
<path d="M3.80432 22.8261C3.80432 24.1779 4.39242 25.392 5.32607 26.2279H6.08691L6.84775 27.1305C7.3238 27.2988 7.83575 27.3913 8.3695 27.3913H9.13034L9.89118 26.6305L10.652 27.3913H12.9346L13.6954 26.6305L14.4563 27.3913H16.7389L17.4997 26.6305V9.13049C9.93609 9.13042 3.80432 15.2622 3.80432 22.8261Z" fill="#FDA409"/>
<path d="M16.7391 10.6766V27.3913H18.2609V10.6766C18.0091 10.661 17.7556 10.6522 17.5 10.6522C17.2444 10.6522 16.9909 10.661 16.7391 10.6766Z" fill="#FA690E"/>
<path d="M12.9348 11.5412V27.3913H14.4565V11.0374C13.9349 11.1721 13.4271 11.3414 12.9348 11.5412Z" fill="#FC870B"/>
<path d="M9.13043 13.9938V27.3913H10.6522V12.766C10.1123 13.1346 9.60341 13.5454 9.13043 13.9938Z" fill="#FC870B"/>
<path d="M6.84786 27.1305V16.9381C5.87914 18.6837 5.32632 20.6907 5.32611 22.8245V26.2278C5.76518 26.621 6.28075 26.93 6.84786 27.1305Z" fill="#FC870B"/>
<path d="M22.0653 11.5412V27.3913H20.5435V11.0374C21.0652 11.1721 21.5729 11.3414 22.0653 11.5412Z" fill="#FA690E"/>
<path d="M25.8696 13.9938V27.3913H24.3478V12.766C24.8877 13.1346 25.3966 13.5454 25.8696 13.9938Z" fill="#FA690E"/>
<path d="M28.1522 27.1305V16.9381C29.1209 18.6837 29.6737 20.6907 29.6739 22.8245V26.2278C29.2348 26.621 28.7193 26.93 28.1522 27.1305Z" fill="#FA690E"/>
</g>
<defs>
<clipPath id="clip0_161_5372">
<rect width="35" height="35" fill="white"/>
</clipPath>
</defs>
</svg>
