<svg width="20" height="20" viewBox="0 0 20 20" fill="none" xmlns="http://www.w3.org/2000/svg">
<path fill-rule="evenodd" clip-rule="evenodd" d="M3.85958 2.5C3.70208 2.5 3.56167 2.60917 3.5075 2.77333L2.54583 5.69458C2.51547 5.78696 2.5 5.88359 2.5 5.98083V7.14292C2.5 7.8 2.97958 8.33333 3.57125 8.33333C4.16292 8.33333 4.64292 7.8 4.64292 7.14292C4.64292 7.80042 5.1225 8.33333 5.71417 8.33333C6.30583 8.33333 6.78583 7.8 6.78583 7.14292C6.78583 7.80042 7.26542 8.33333 7.85708 8.33333C8.44875 8.33333 8.92792 7.80083 8.92875 7.14375C8.92875 7.80083 9.40833 8.33333 10 8.33333C10.5917 8.33333 11.0712 7.8 11.0712 7.14292C11.0712 7.80042 11.5512 8.33333 12.1429 8.33333C12.7346 8.33333 13.2137 7.80083 13.2142 7.14375C13.2146 7.80083 13.6942 8.33333 14.2858 8.33333C14.8775 8.33333 15.3571 7.8 15.3571 7.14292C15.3571 7.80042 15.8367 8.33333 16.4288 8.33333C17.0204 8.33333 17.5 7.8 17.5 7.14292V5.98083C17.5 5.88359 17.4845 5.78696 17.4542 5.69458L16.4925 2.77375C16.4383 2.60917 16.2979 2.5 16.1404 2.5H3.85958Z" fill="#89643D"/>
<path fill-rule="evenodd" clip-rule="evenodd" d="M4.16663 8.84585V12.0834H3.12496C3.06971 12.0834 3.01672 12.1053 2.97765 12.1444C2.93858 12.1834 2.91663 12.2364 2.91663 12.2917V12.7084C2.91663 12.7636 2.93858 12.8166 2.97765 12.8557C3.01672 12.8947 3.06971 12.9167 3.12496 12.9167H16.875C16.9302 12.9167 16.9832 12.8947 17.0223 12.8557C17.0613 12.8166 17.0833 12.7636 17.0833 12.7084V12.2917C17.0833 12.2364 17.0613 12.1834 17.0223 12.1444C16.9832 12.1053 16.9302 12.0834 16.875 12.0834H15.8333V8.84585C15.6588 8.77646 15.4977 8.67736 15.357 8.55294C15.2489 8.64803 15.1289 8.7287 15 8.79294V12.0834H4.99996V8.79294C4.87106 8.7287 4.75103 8.64803 4.64288 8.55294C4.50288 8.67585 4.34288 8.77585 4.16663 8.84585ZM15 8.03044C15.0352 7.99516 15.0686 7.95724 15.1 7.91669H15V8.03044ZM15.6141 7.91669C15.6773 7.99814 15.751 8.07085 15.8333 8.13294V7.91669H15.6141ZM4.16663 8.13294C4.2496 8.07166 4.32341 7.99884 4.38579 7.91669H4.16663V8.13294ZM4.89996 7.91669H4.99996V8.03044C4.96436 7.99458 4.93096 7.95659 4.89996 7.91669ZM3.54163 13.75C3.48637 13.75 3.43338 13.772 3.39431 13.811C3.35524 13.8501 3.33329 13.9031 3.33329 13.9584V17.0834C3.33329 17.1939 3.37719 17.2998 3.45533 17.378C3.53347 17.4561 3.63945 17.5 3.74996 17.5H16.25C16.3605 17.5 16.4664 17.4561 16.5446 17.378C16.6227 17.2998 16.6666 17.1939 16.6666 17.0834V13.9584C16.6666 13.9031 16.6447 13.8501 16.6056 13.811C16.5665 13.772 16.5135 13.75 16.4583 13.75H3.54163Z" fill="#89643D"/>
<path d="M5.83337 11.0416C5.83337 10.9864 5.85532 10.9334 5.89439 10.8943C5.93346 10.8553 5.98645 10.8333 6.04171 10.8333H7.29171C7.34696 10.8333 7.39995 10.8553 7.43902 10.8943C7.47809 10.9334 7.50004 10.9864 7.50004 11.0416V11.875C7.50004 11.9302 7.47809 11.9832 7.43902 12.0223C7.39995 12.0614 7.34696 12.0833 7.29171 12.0833H6.04171C5.98645 12.0833 5.93346 12.0614 5.89439 12.0223C5.85532 11.9832 5.83337 11.9302 5.83337 11.875V11.0416Z" fill="#89643D"/>
<path d="M6.66663 11.4583C6.66663 11.4031 6.68858 11.3501 6.72765 11.311C6.76672 11.2719 6.81971 11.25 6.87496 11.25H8.12496C8.18021 11.25 8.2332 11.2719 8.27227 11.311C8.31134 11.3501 8.33329 11.4031 8.33329 11.4583V11.875C8.33329 11.9302 8.31134 11.9832 8.27227 12.0223C8.2332 12.0614 8.18021 12.0833 8.12496 12.0833H6.87496C6.81971 12.0833 6.76672 12.0614 6.72765 12.0223C6.68858 11.9832 6.66663 11.9302 6.66663 11.875V11.4583ZM9.99996 11.4583C9.99996 11.6241 9.93411 11.783 9.8169 11.9003C9.69969 12.0175 9.54072 12.0833 9.37496 12.0833C9.2092 12.0833 9.05023 12.0175 8.93302 11.9003C8.81581 11.783 8.74996 11.6241 8.74996 11.4583C8.74996 11.2926 8.81581 11.1336 8.93302 11.0164C9.05023 10.8992 9.2092 10.8333 9.37496 10.8333C9.54072 10.8333 9.69969 10.8992 9.8169 11.0164C9.93411 11.1336 9.99996 11.2926 9.99996 11.4583Z" fill="#89643D"/>
</svg>
