<svg width="35" height="35" viewBox="0 0 35 35" fill="none" xmlns="http://www.w3.org/2000/svg">
<path d="M18.2436 20.6432C17.5599 19.9595 17.296 18.954 17.555 18.0192C17.6241 17.7698 17.819 17.5749 18.0685 17.5058C19.0034 17.2467 20.0087 17.5106 20.6924 18.1944C21.3761 18.8781 21.6401 19.8836 21.381 20.8184C21.312 21.0678 21.1171 21.2627 20.8677 21.3318C19.9329 21.5908 18.9273 21.3269 18.2436 20.6432Z" fill="#A3C14F"/>
<path d="M21.005 21.5085C20.8635 21.5085 20.7221 21.4545 20.6142 21.3466L19.1031 19.8356C18.8873 19.6198 18.8873 19.2699 19.1031 19.0541C19.319 18.8383 19.669 18.8383 19.8848 19.0541L21.3957 20.5651C21.6115 20.7809 21.6115 21.1308 21.3957 21.3466C21.2878 21.4544 21.1464 21.5085 21.005 21.5085Z" fill="#7F9136"/>
<path d="M21.1174 19.2568C21.8011 18.5731 22.8065 18.3092 23.7413 18.5683C23.9908 18.6373 24.1856 18.8322 24.2548 19.0816C24.5138 20.0165 24.2499 21.0219 23.5661 21.7056C22.8824 22.3893 21.877 22.6533 20.9422 22.3943C20.6927 22.3252 20.4978 22.1303 20.4287 21.8809C20.1698 20.946 20.4335 19.9405 21.1174 19.2568Z" fill="#B0CE6F"/>
<path d="M20.8047 22.5708C20.6633 22.5708 20.5218 22.5168 20.4139 22.409C20.1981 22.1931 20.1981 21.8432 20.4139 21.6275L21.9248 20.1165C22.1407 19.9007 22.4906 19.9007 22.7064 20.1165C22.9222 20.3323 22.9222 20.6823 22.7064 20.898L21.1954 22.409C21.0876 22.5168 20.946 22.5708 20.8047 22.5708Z" fill="#7E9149"/>
<path d="M30.2914 24.3345C31.6913 24.3345 32.8261 23.7671 32.8261 23.0671C32.8261 22.3672 31.6913 21.7997 30.2914 21.7997C28.8915 21.7997 27.7567 22.3672 27.7567 23.0671C27.7567 23.7671 28.8915 24.3345 30.2914 24.3345Z" fill="#F48911"/>
<path d="M27.7571 23.0669C28.4571 23.0669 29.0246 21.9321 29.0246 20.5322C29.0246 19.1322 28.4571 17.9974 27.7571 17.9974C27.0571 17.9974 26.4897 19.1322 26.4897 20.5322C26.4897 21.9321 27.0571 23.0669 27.7571 23.0669Z" fill="#F48911"/>
<path d="M30.4452 22.1707C29.4554 23.1605 28.2518 23.5618 27.7568 23.0669C27.4392 22.7493 27.4905 22.14 27.8296 21.4826C28.0189 21.1153 28.2983 20.7331 28.6528 20.3783C29.6427 19.3885 30.8465 18.9872 31.3414 19.4822C31.8365 19.9771 31.4351 21.1808 30.4452 22.1707Z" fill="#FFAB5F"/>
<path d="M26.6 22.0135C26.0155 22.0135 25.4811 22.2266 25.0691 22.5788C24.6427 21.9698 23.9365 21.5714 23.1368 21.5714C22.5305 21.5714 21.9777 21.8004 21.5601 22.1764C21.1369 21.545 20.4171 21.1292 19.6 21.1292C18.2978 21.1292 17.2421 22.185 17.2421 23.4871V25.6976C17.2421 26.9998 18.2977 28.0555 19.6 28.0555C20.2063 28.0555 20.759 27.8264 21.1767 27.4505C21.5998 28.0819 22.3196 28.4977 23.1368 28.4977C23.7212 28.4977 24.2556 28.2845 24.6676 27.9323C25.094 28.5413 25.8001 28.9397 26.6 28.9397C27.9022 28.9397 28.9578 27.884 28.9578 26.5818V24.3714C28.9578 23.0692 27.9022 22.0135 26.6 22.0135Z" fill="#FFAB5F"/>
<path opacity="0.1" d="M26.6 22.0135C26.0155 22.0135 25.4811 22.2266 25.0691 22.5788C24.6427 21.9698 23.9365 21.5713 23.1368 21.5713C22.5305 21.5713 21.9777 21.8004 21.5601 22.1764C21.1369 21.545 20.4171 21.1292 19.6 21.1292C18.2978 21.1292 17.2421 22.1849 17.2421 23.4871V24.9973C17.2421 23.6951 18.2977 22.6395 19.6 22.6395C20.4171 22.6395 21.137 23.0552 21.5601 23.6867C21.9778 23.3106 22.5305 23.0816 23.1368 23.0816C23.9365 23.0816 24.6427 23.4801 25.0691 24.089C25.4811 23.7369 26.0155 23.5238 26.6 23.5238C27.9022 23.5238 28.9578 24.5795 28.9578 25.8816V24.3714C28.9578 23.0692 27.9022 22.0135 26.6 22.0135Z" fill="black"/>
<path d="M21.5601 22.1764C21.4103 21.9529 21.2228 21.7571 21.0075 21.5966V23.4871C21.0075 23.7923 21.255 24.0397 21.5601 24.0397C21.8654 24.0397 22.1127 23.7923 22.1127 23.4871V21.8055C21.9109 21.9031 21.7249 22.0281 21.5601 22.1764Z" fill="#D38442"/>
<path d="M25.0692 22.5788C24.9177 22.3624 24.7304 22.1733 24.5166 22.0186V23.9293C24.5166 24.2345 24.7641 24.4819 25.0692 24.4819C25.3744 24.4819 25.6218 24.2344 25.6218 23.9293V22.2264C25.421 22.3182 25.2351 22.437 25.0692 22.5788Z" fill="#D38442"/>
<path d="M3.29577 25.7059C2.65052 25.0607 2.20338 24.2476 2.037 23.417C2.00022 23.2334 2.06079 23.0436 2.19744 22.9154C2.33416 22.7872 2.52727 22.7387 2.70835 22.7872L5.51123 23.5383C5.55785 23.5509 5.60795 23.5373 5.64207 23.5033C5.67631 23.4691 5.68971 23.419 5.67713 23.3724L4.92614 20.5694C4.87747 20.3883 4.92607 20.1952 5.05411 20.0586C5.18235 19.9219 5.37205 19.8612 5.5558 19.8981C6.38657 20.0645 7.19936 20.5116 7.84474 21.1569C9.38925 22.7015 9.62564 24.9784 8.37152 26.2326C7.11733 27.4868 4.84028 27.2506 3.29577 25.7059Z" fill="#F48911"/>
<path d="M6.65006 23.7297L5.43613 22.4727L5.6771 23.3725C5.68968 23.4191 5.67614 23.4692 5.64203 23.5033C5.60792 23.5374 5.55781 23.551 5.51119 23.5384L4.66107 23.3106L5.8685 24.5113C5.97651 24.6192 6.11795 24.6732 6.25938 24.6732C6.40082 24.6732 6.54225 24.6192 6.65019 24.5113C6.86587 24.2953 6.86587 23.9454 6.65006 23.7297Z" fill="#D6720F"/>
<path d="M9.37421 19.7661C5.02416 19.7661 1.48499 16.2269 1.48492 11.8767C1.48499 8.33561 4.36586 5.45474 7.90688 5.45474C10.8007 5.45474 13.155 7.80904 13.1551 10.7028C13.1551 11.0081 12.9076 11.2554 12.6026 11.2554C12.2973 11.2554 12.0499 11.0081 12.0499 10.7028C12.0499 8.41846 10.1914 6.55998 7.90701 6.55998C4.97535 6.55998 2.59036 8.94504 2.5903 11.8766C2.59036 15.6174 5.63359 18.6607 9.37435 18.6607C9.67957 18.6607 9.9269 18.9082 9.9269 19.2134C9.9269 19.5187 9.67944 19.7661 9.37421 19.7661Z" fill="#754C24"/>
<path d="M14.3567 21.0187C10.0066 21.0187 6.46741 17.4796 6.46735 13.1294C6.46741 9.5883 9.34835 6.70743 12.8894 6.70743C15.7831 6.70743 18.1375 9.06179 18.1376 11.9555C18.1376 12.2607 17.8901 12.5081 17.585 12.5081C17.2798 12.5081 17.0324 12.2607 17.0324 11.9555C17.0324 9.67122 15.1738 7.81266 12.8895 7.81266C9.95784 7.81266 7.57279 10.1977 7.57272 13.1294C7.57279 16.8701 10.6161 19.9134 14.3568 19.9134C14.662 19.9134 14.9093 20.1609 14.9093 20.4661C14.9093 20.7713 14.6619 21.0187 14.3567 21.0187Z" fill="#754C24"/>
<path d="M17.092 28.3097C17.0187 28.383 16.9326 28.4437 16.8371 28.4884C13.5144 30.0387 11.355 29.867 9.38328 27.8952C7.14718 25.6591 6.49606 22.3325 7.72447 19.42C7.76987 19.3123 7.83563 19.2156 7.9167 19.1343C7.99791 19.0532 8.0945 18.9874 8.20238 18.9421C11.1148 17.7137 14.4416 18.3647 16.6775 20.6009C18.6493 22.5726 18.821 24.7322 17.2706 28.0548C17.226 28.1502 17.1654 28.2362 17.092 28.3097Z" fill="#FFAB5F"/>
<path opacity="0.1" d="M10.8607 27.8952C8.62456 25.6591 7.97344 22.3325 9.20186 19.42C9.24725 19.3123 9.31301 19.2155 9.39408 19.1343C9.47529 19.0532 9.57189 18.9874 9.67976 18.9421C10.4198 18.6299 11.1867 18.4402 11.9557 18.366C10.7053 18.2453 9.41787 18.4294 8.20238 18.9421C8.0945 18.9875 7.99798 19.0533 7.9167 19.1343C7.83556 19.2155 7.7698 19.3122 7.72447 19.42C6.49606 22.3325 7.14718 25.6592 9.38328 27.8952C10.6719 29.1838 12.0412 29.7024 13.7625 29.4751C12.695 29.3163 11.7582 28.7927 10.8607 27.8952Z" fill="black"/>
<path d="M28.9599 12.9134H27.1179C26.8126 12.9134 26.5652 12.666 26.5652 12.3608C26.5652 12.0557 26.8127 11.8082 27.1179 11.8082H28.9599C29.9339 11.8082 30.7263 11.0158 30.7263 10.0418C30.7263 9.06781 29.9339 8.27539 28.9599 8.27539H27.3599C27.0547 8.27539 26.8073 8.02792 26.8073 7.72277C26.8073 7.41761 27.0548 7.17015 27.3599 7.17015H28.9599C30.5434 7.17015 31.8317 8.45838 31.8317 10.0419C31.8317 11.6253 30.5434 12.9134 28.9599 12.9134Z" fill="#FCE9C3"/>
<path d="M21.676 16.1183C21.3707 16.1183 21.1234 15.8708 21.1234 15.5656V14.304C21.1234 12.9278 22.243 11.8082 23.6191 11.8082H25.1632C25.4685 11.8082 25.7159 12.0557 25.7159 12.3608C25.7159 12.666 25.4684 12.9134 25.1632 12.9134H23.6191C22.8525 12.9134 22.2286 13.5372 22.2286 14.3039V15.5656C22.2286 15.8709 21.9812 16.1183 21.676 16.1183Z" fill="#FCE9C3"/>
<path d="M24.8316 10.0398H21.2148C19.5717 10.0398 18.2349 8.70297 18.2349 7.05975C18.2349 5.41659 19.5717 4.07976 21.2148 4.07976H22.5133C22.8186 4.07976 23.0659 4.32722 23.0659 4.63237C23.0659 4.9376 22.8185 5.18499 22.5133 5.18499H21.2148C20.181 5.18499 19.3402 6.02602 19.3402 7.05968C19.3402 8.09348 20.1811 8.93444 21.2148 8.93444H24.8316C25.1368 8.93444 25.3842 9.1819 25.3842 9.48705C25.3842 9.79221 25.1368 10.0398 24.8316 10.0398Z" fill="#F2D8A0"/>
<path d="M15.5001 26.2408C14.7823 25.523 14.2848 24.6186 14.0996 23.6947C14.0587 23.4903 14.1262 23.2792 14.2782 23.1367C14.4302 22.994 14.6452 22.9401 14.8465 22.9941L17.9645 23.8296C18.0163 23.8435 18.0721 23.8285 18.1101 23.7906C18.1479 23.7527 18.163 23.697 18.149 23.6452L17.3136 20.5271C17.2596 20.3257 17.3135 20.1109 17.4561 19.9588C17.5987 19.8069 17.8097 19.7393 18.0142 19.7803C18.9383 19.9654 19.8425 20.4628 20.5603 21.1806C22.2785 22.8989 22.5413 25.4318 21.1462 26.8268C19.7512 28.2218 17.2182 27.959 15.5001 26.2408Z" fill="#F48911"/>
<path d="M19.1874 24.0864L17.9363 22.851L18.1491 23.645C18.1631 23.6969 18.148 23.7526 18.1102 23.7905C18.0723 23.8284 18.0164 23.8434 17.9647 23.8295L17.1449 23.6099L18.4061 24.8678C18.514 24.9758 18.6554 25.0297 18.7969 25.0297C18.9382 25.0297 19.0797 24.9758 19.1877 24.8678C19.4032 24.6521 19.4032 24.3022 19.1874 24.0864Z" fill="#D6720F"/>
<path d="M14.0371 21.9646C14.9324 21.9646 15.6582 21.2388 15.6582 20.3435C15.6582 19.4483 14.9324 18.7225 14.0371 18.7225C13.1418 18.7225 12.416 19.4483 12.416 20.3435C12.416 21.2388 13.1418 21.9646 14.0371 21.9646Z" fill="#F7EEDF"/>
<path d="M14.0371 20.9785C14.3878 20.9785 14.6721 20.6942 14.6721 20.3435C14.6721 19.9928 14.3878 19.7086 14.0371 19.7086C13.6864 19.7086 13.4021 19.9928 13.4021 20.3435C13.4021 20.6942 13.6864 20.9785 14.0371 20.9785Z" fill="#754C24"/>
<path d="M29.8221 27.6815C30.8892 27.6815 31.7542 26.8167 31.7542 25.75C31.7542 24.6833 30.8892 23.8186 29.8221 23.8186C28.7551 23.8186 27.89 24.6833 27.89 25.75C27.89 26.8167 28.7551 27.6815 29.8221 27.6815Z" fill="#FFE266"/>
<path d="M2.89508 27.5881C3.56876 29.5275 5.41057 30.9202 7.57934 30.9202H27.4204C29.5893 30.9202 31.4311 29.5275 32.1048 27.5881H2.89508Z" fill="#DAF7E9"/>
<path opacity="0.1" d="M5.14239 27.5881H2.89508C3.56876 29.5275 5.41057 30.9202 7.57934 30.9202H9.82672C7.65802 30.9203 5.81614 29.5276 5.14239 27.5881Z" fill="black"/>
<path d="M35 27.4079C35 28.0538 34.4764 28.5774 33.8305 28.5774H1.16942C0.523564 28.5774 0 28.0538 0 27.4079C0 26.7621 0.523564 26.2385 1.16942 26.2385H33.8305C34.4764 26.2385 35 26.762 35 27.4079Z" fill="#F2FFE9"/>
<path opacity="0.1" d="M2.24738 27.4079C2.24738 26.7621 2.77095 26.2385 3.41681 26.2385H1.16942C0.523564 26.2385 0 26.762 0 27.4079C0 28.0538 0.523564 28.5774 1.16942 28.5774H3.41681C2.77095 28.5774 2.24738 28.0538 2.24738 27.4079Z" fill="black"/>
</svg>
