<svg width="35" height="35" viewBox="0 0 35 35" fill="none" xmlns="http://www.w3.org/2000/svg">
<path d="M32.5686 9.16409L2.54045 9.26472C1.71652 9.26748 1.05082 9.93765 1.05358 10.7616L1.09596 23.4085C1.09872 24.2325 1.76889 24.8982 2.59283 24.8954L32.621 24.7948C33.445 24.792 34.1107 24.1219 34.1079 23.2979L34.0655 10.651C34.0627 9.82702 33.3926 9.16133 32.5686 9.16409Z" fill="#89643D"/>
<path d="M3.15492 24.2102C2.81771 24.2146 2.4924 24.0856 2.24978 23.8514C2.00715 23.6172 1.86684 23.2966 1.85937 22.9595L1.81726 11.1601C1.82202 10.8212 1.96097 10.4981 2.20364 10.2616C2.4463 10.0251 2.77287 9.8945 3.11171 9.89844L32.002 9.80219C32.3407 9.79618 32.6679 9.92459 32.912 10.1593C33.1562 10.394 33.2974 10.7159 33.3047 11.0545L33.3441 22.8539C33.3446 23.0195 33.3115 23.1834 33.247 23.3359C33.1824 23.4883 33.0876 23.6261 32.9684 23.7409C32.7226 23.9804 32.3928 24.1141 32.0496 24.1134L3.15492 24.2102Z" fill="#AF8756"/>
<path d="M32.007 9.66765V9.94109C32.3083 9.93609 32.5994 10.0504 32.8168 10.259C33.0343 10.4677 33.1605 10.7538 33.168 11.0551L33.2073 22.8545C33.2022 23.1566 33.0774 23.4444 32.8604 23.6548C32.6434 23.8651 32.3518 23.9809 32.0496 23.9766L3.15492 24.0734C2.85346 24.0786 2.56219 23.9643 2.34469 23.7555C2.12718 23.5467 2.00108 23.2603 1.9939 22.9589L1.95398 11.1601C1.95916 10.8578 2.08401 10.5699 2.30114 10.3595C2.51827 10.1492 2.80997 10.0335 3.11226 10.0379L32.0026 9.94109L32.007 9.66765ZM32.007 9.66765H32.002L3.11172 9.76445C2.73692 9.76007 2.37571 9.90466 2.10745 10.1665C1.8392 10.4282 1.68585 10.7858 1.68109 11.1606L1.72101 22.96C1.72806 23.3338 1.88289 23.6896 2.15162 23.9495C2.42035 24.2094 2.7811 24.3523 3.15492 24.3469H3.15984L32.0502 24.2501C32.2358 24.2523 32.4201 24.218 32.5924 24.149C32.7648 24.08 32.9219 23.9777 33.0548 23.848C33.1876 23.7183 33.2936 23.5637 33.3667 23.3931C33.4398 23.2224 33.4786 23.039 33.4808 22.8534L33.4414 11.0545C33.4345 10.6805 33.2796 10.3245 33.0106 10.0645C32.7416 9.8045 32.381 9.6618 32.007 9.66765Z" fill="#BD925D"/>
<path d="M1.73191 15.4038C1.73191 15.4038 14.2187 11.3931 20.9179 11.7124C27.6171 12.0318 31.1264 13.7173 33.4047 13.9907V14.7656C33.4047 14.7656 25.0649 12.3501 20.9633 12.4868C16.8618 12.6235 5.46871 15.0845 1.68597 17.5913L1.73191 15.4038Z" fill="#AF7838"/>
<path d="M33.4507 19.9156C33.4507 19.9156 28.5288 15.2212 21.9204 14.5376C15.312 13.854 7.38281 24.2906 7.38281 24.2906H7.97508C7.97508 24.2906 16.0874 14.2188 21.9204 14.9477C27.7534 15.6767 33.4507 21.5562 33.4507 21.6929V19.9156Z" fill="#AF7838"/>
<path d="M29.9109 11.6826L29.2656 11.6848C27.84 11.6896 26.6883 12.8491 26.693 14.2747L26.7108 19.5804C26.7156 21.006 27.8751 22.1578 29.3007 22.153L29.946 22.1508C31.3716 22.1461 32.5234 20.9865 32.5186 19.561L32.5008 14.2552C32.496 12.8296 31.3365 11.6778 29.9109 11.6826Z" fill="#6E5031"/>
<path d="M32.0468 19.3102C32.0624 19.8933 31.8459 20.4588 31.4449 20.8825C31.0439 21.3062 30.4911 21.5534 29.908 21.5698H29.3715C28.7883 21.5574 28.2338 21.3138 27.83 20.8928C27.4262 20.4718 27.2061 19.9076 27.2179 19.3244L27.2021 14.694C27.1866 14.1109 27.4032 13.5454 27.8041 13.1218C28.2051 12.6981 28.7578 12.4509 29.3409 12.4343H29.8774C30.4606 12.4468 31.0151 12.6903 31.4189 13.1113C31.8227 13.5324 32.0428 14.0965 32.031 14.6798L32.0468 19.3102Z" fill="#301E08"/>
<path d="M30.1804 12.6809C29.745 12.6252 29.3028 12.66 28.8816 12.7832C28.198 12.9883 27.8223 13.5696 28.6765 14.2188C29.5467 14.9268 30.3688 15.6919 31.1374 16.5091C31.4109 16.8164 31.8894 16.7142 31.8894 15.9961C31.8894 15.2781 31.8555 14.595 31.8555 14.595C31.8016 14.1444 31.6128 13.7205 31.3139 13.3789C31.015 13.0374 30.6199 12.7941 30.1804 12.6809Z" fill="#59380F"/>
<path d="M27.446 18.7649C27.4191 19.236 27.4948 19.7074 27.668 20.1463C27.8189 20.4871 28.0625 20.7786 28.371 20.9875C28.6796 21.1965 29.0407 21.3145 29.4131 21.3281L30.0097 21.3604C30.0097 21.3604 30.5221 21.3259 30.0781 20.8305C29.634 20.335 27.446 17.7395 27.446 18.7649Z" fill="#59380F"/>
<path d="M30.9746 13.4884C31.041 13.2915 30.8846 13.061 30.6253 12.9736C30.366 12.8862 30.102 12.975 30.0356 13.1719C29.9692 13.3688 30.1256 13.5993 30.3849 13.6867C30.6442 13.7741 30.9082 13.6853 30.9746 13.4884Z" fill="#FFD8A6"/>
<path d="M31.547 14.3213C31.576 14.2354 31.5078 14.1349 31.3947 14.0968C31.2817 14.0587 31.1666 14.0974 31.1376 14.1833C31.1087 14.2691 31.1769 14.3696 31.2899 14.4077C31.403 14.4458 31.5181 14.4071 31.547 14.3213Z" fill="#FFD8A6"/>
<path d="M28.9998 20.9147C29.0288 20.8288 28.9606 20.7283 28.8475 20.6902C28.7345 20.6521 28.6194 20.6908 28.5904 20.7767C28.5615 20.8626 28.6297 20.9631 28.7427 21.0012C28.8558 21.0393 28.9709 21.0006 28.9998 20.9147Z" fill="#FFD8A6"/>
<path d="M29.7615 17.2014C29.7916 17.2655 29.7952 17.339 29.7713 17.4057C29.7474 17.4725 29.6981 17.527 29.6341 17.5574C29.5699 17.5875 29.4965 17.591 29.4299 17.567C29.3632 17.543 29.3088 17.4935 29.2786 17.4295L28.9363 16.7049C28.9061 16.6407 28.9027 16.5671 28.9267 16.5004C28.9507 16.4337 29.0001 16.3792 29.0642 16.3488C29.1283 16.3187 29.2018 16.3153 29.2684 16.3393C29.3351 16.3633 29.3895 16.4128 29.4197 16.4768L29.7615 17.2014Z" fill="#00C40A"/>
<path d="M30.4215 17.2561C30.3947 17.3294 30.2575 17.3474 30.1218 17.2966C29.9835 17.2452 29.8933 17.144 29.9206 17.0707L30.0677 16.6726C30.095 16.5993 30.2318 16.5813 30.3674 16.6327C30.5057 16.6835 30.596 16.7847 30.5692 16.858L30.4215 17.2561Z" fill="#00C40A"/>
<path d="M29.6406 17.3195C29.7451 17.3409 29.8047 17.4754 29.7752 17.6203C29.7456 17.7647 29.6368 17.8642 29.5329 17.8429L28.9669 17.7259C28.863 17.7045 28.8028 17.57 28.8323 17.4256C28.8624 17.2807 28.9712 17.1812 29.0752 17.2025L29.6406 17.3195Z" fill="#1CFF28"/>
<path d="M12.2068 23.281C11.9158 23.2325 11.6515 23.0821 11.4612 22.8567C11.2708 22.6313 11.1668 22.3456 11.1677 22.0506C11.1677 20.9459 11.183 18.9963 11.2656 18.2771C11.3837 17.2479 11.9219 14.0421 11.9098 13.6177C11.8903 13.1227 12.0334 12.6348 12.3173 12.2287C12.5847 11.9695 13.5751 12.0231 14.0711 12.6563C14.3981 12.7073 14.711 12.8251 14.9905 13.0024C15.2699 13.1796 15.5099 13.4126 15.6953 13.6866C16.287 14.6038 16.1908 14.3199 17.0412 15.5028C17.5935 16.2712 17.3917 16.316 17.4185 17.1648C17.4992 17.9014 17.3376 18.6442 16.958 19.2806C16.891 19.6215 16.7383 19.9397 16.5145 20.2054C16.2906 20.471 16.0029 20.6754 15.6784 20.7993C15.5839 21.1969 15.3828 21.5612 15.0967 21.853C14.8106 22.1448 14.4503 22.353 14.0547 22.4552C13.8539 22.751 13.5746 22.985 13.2481 23.1309C12.9217 23.2767 12.5611 23.3287 12.2068 23.281Z" fill="#89643D"/>
<path d="M12.1095 22.9398C11.8234 22.8906 11.564 22.7418 11.3771 22.5197C11.1902 22.2976 11.088 22.0165 11.0884 21.7263C11.0884 20.6391 11.0983 18.7184 11.1781 18.0119C11.293 16.9991 11.8174 13.8447 11.8038 13.4269C11.7834 12.9399 11.9232 12.4596 12.2019 12.0597C12.4644 11.8054 13.4378 11.8595 13.9256 12.4835C14.2472 12.5348 14.5548 12.6517 14.8293 12.8269C15.1038 13.0021 15.3394 13.2318 15.5214 13.5018C16.1049 14.4052 16.0098 14.1252 16.8476 15.2912C17.3912 16.0486 17.1932 16.0923 17.2206 16.928C17.3014 17.6521 17.144 18.3828 16.7721 19.0094C16.7068 19.3447 16.5569 19.6577 16.3368 19.919C16.1167 20.1802 15.8336 20.381 15.5143 20.5023C15.4224 20.8934 15.2251 21.2518 14.9439 21.5386C14.6627 21.8254 14.3082 22.0297 13.9191 22.1293C13.7227 22.4194 13.4493 22.6489 13.1296 22.7921C12.8099 22.9353 12.4566 22.9864 12.1095 22.9398Z" fill="url(#paint0_linear_161_4155)"/>
<path d="M15.3672 20.3383C15.3672 20.3383 14.8143 20.1698 14.9975 19.9473C15.2031 19.6952 15.2977 20.1294 15.3672 20.3383Z" fill="#FFCA1F"/>
<path d="M13.6303 12.6607C13.6303 12.6607 13.4339 13.0435 13.5297 13.0922C13.5408 13.0991 13.5535 13.1032 13.5665 13.104C13.5796 13.1049 13.5927 13.1025 13.6047 13.0971C13.6166 13.0917 13.6271 13.0834 13.635 13.073C13.643 13.0626 13.6484 13.0504 13.6505 13.0375C13.6505 13.0375 13.6035 13.1556 13.697 13.1824C13.7905 13.2092 13.9704 12.9303 13.9704 12.9303C13.9704 12.9303 14.0732 12.6569 13.9114 12.775C13.7495 12.8931 13.8457 12.3681 13.6303 12.6607Z" fill="#FFCA1F"/>
<path d="M15.3672 13.9453C15.3672 13.9453 15.0303 14.2122 15.097 14.2964C15.1044 14.3074 15.1143 14.3163 15.1259 14.3225C15.1376 14.3287 15.1505 14.332 15.1637 14.332C15.1769 14.332 15.1899 14.3287 15.2015 14.3225C15.2132 14.3163 15.2231 14.3074 15.2304 14.2964C15.2304 14.2964 15.1386 14.3845 15.2129 14.4474C15.2873 14.5102 15.5684 14.332 15.5684 14.332C15.5684 14.332 15.774 14.1269 15.5788 14.1679C15.3836 14.2089 15.6838 13.7676 15.3672 13.9453Z" fill="#FFCA1F"/>
<path d="M15.7182 14.3921C15.7182 14.3921 15.4054 14.5015 15.4322 14.577C15.4348 14.5868 15.4397 14.5958 15.4466 14.6032C15.4534 14.6107 15.462 14.6163 15.4716 14.6197C15.4812 14.623 15.4914 14.624 15.5014 14.6225C15.5114 14.6209 15.5209 14.6169 15.529 14.6109C15.529 14.6109 15.4393 14.6513 15.4776 14.7159C15.5159 14.7804 15.7647 14.7235 15.7647 14.7235C15.7647 14.7235 15.9671 14.6278 15.815 14.6059C15.663 14.5841 15.9939 14.3445 15.7182 14.3921Z" fill="#FFCA1F"/>
<path d="M16.5298 18.632C16.5298 18.632 16.1131 18.527 16.0869 18.632C16.0827 18.6446 16.0817 18.658 16.0839 18.671C16.0862 18.684 16.0916 18.6963 16.0997 18.7067C16.1078 18.7172 16.1183 18.7254 16.1304 18.7308C16.1425 18.7362 16.1557 18.7385 16.1689 18.7376C16.1689 18.7376 16.0426 18.7184 16.0382 18.8152C16.0338 18.912 16.3461 19.0274 16.3461 19.0274C16.3461 19.0274 16.6337 19.0668 16.4839 18.9356C16.3341 18.8043 16.864 18.7759 16.5298 18.632Z" fill="#FFCA1F"/>
<path d="M16.9192 16.5911C16.9192 16.5911 16.2739 16.5911 16.327 16.7278C16.38 16.8645 16.8252 16.7765 16.9367 16.7634C17.0483 16.7502 17.2014 16.6436 16.9192 16.5911Z" fill="#FFCA1F"/>
<path d="M16.4221 15.5673C16.4221 15.5673 16.0355 15.7484 16.1055 15.8151C16.1755 15.8818 16.4177 15.7057 16.4806 15.6663C16.5435 15.627 16.6058 15.5203 16.4221 15.5673Z" fill="#FFCA1F"/>
<path d="M14.0312 21.7438C14.0312 21.7438 13.7222 21.4446 13.6483 21.5217C13.6385 21.5305 13.631 21.5416 13.6264 21.554C13.6219 21.5664 13.6205 21.5798 13.6223 21.5929C13.6241 21.6059 13.6292 21.6184 13.637 21.6291C13.6447 21.6397 13.655 21.6483 13.6669 21.6541C13.6669 21.6541 13.5674 21.5742 13.5149 21.6541C13.4624 21.7339 13.6757 21.9915 13.6757 21.9915C13.6757 21.9915 13.9059 22.1687 13.8398 21.98C13.7736 21.7913 14.2483 22.0347 14.0312 21.7438Z" fill="#FFCA1F"/>
<path d="M13.6341 22.1484C13.6341 22.1484 13.487 21.852 13.4154 21.8892C13.406 21.893 13.3976 21.899 13.3911 21.9068C13.3846 21.9145 13.3801 21.9238 13.3781 21.9337C13.376 21.9436 13.3764 21.9539 13.3793 21.9636C13.3822 21.9733 13.3875 21.9821 13.3946 21.9893C13.3946 21.9893 13.3399 21.9062 13.2852 21.9521C13.2305 21.9981 13.3153 22.2381 13.3153 22.2381C13.3153 22.2381 13.4362 22.4257 13.4384 22.2726C13.4405 22.1195 13.7167 22.4175 13.6341 22.1484Z" fill="#FFCA1F"/>
<path d="M15.3606 17.4065C15.3907 17.4707 15.3941 17.5442 15.3702 17.6109C15.3462 17.6777 15.2967 17.7322 15.2326 17.7625C15.1685 17.7926 15.0951 17.796 15.0284 17.772C14.9618 17.748 14.9074 17.6986 14.8772 17.6345L14.5354 16.9099C14.5052 16.8458 14.5017 16.7723 14.5256 16.7056C14.5494 16.6389 14.5988 16.5843 14.6628 16.5539C14.7269 16.5238 14.8003 16.5204 14.867 16.5444C14.9336 16.5684 14.988 16.6178 15.0182 16.6819L15.3606 17.4065Z" fill="#00C40A"/>
<path d="M22.2064 22.6248C21.9251 22.7121 21.6219 22.6968 21.3508 22.5814C21.0798 22.466 20.8586 22.2581 20.7265 21.9948C20.2289 21.0104 19.3594 19.2604 19.1094 18.5828C18.7507 17.6116 17.7838 14.5075 17.5782 14.1345C17.3374 13.7021 17.245 13.2026 17.3151 12.7127C17.4365 12.3605 18.3449 11.9607 19.0722 12.302C19.3871 12.2003 19.7196 12.1645 20.0489 12.1969C20.3782 12.2292 20.6973 12.329 20.9863 12.4901C21.9286 13.0413 21.7142 12.8313 23.0098 13.5029C23.8492 13.9404 23.6901 14.07 24.0969 14.8154C24.5023 15.4357 24.6943 16.1712 24.6438 16.9105C24.7379 17.245 24.7453 17.5979 24.6654 17.9361C24.5855 18.2743 24.421 18.5866 24.1872 18.8437C24.2818 19.2417 24.266 19.6581 24.1412 20.0477C24.0165 20.4374 23.7877 20.7856 23.4795 21.0547C23.4339 21.4088 23.2907 21.7432 23.0658 22.0205C22.841 22.2978 22.5434 22.507 22.2064 22.6248Z" fill="#89643D"/>
<path d="M21.9652 22.3639C21.688 22.4489 21.3897 22.4332 21.123 22.3195C20.8563 22.2058 20.6384 22.0015 20.5078 21.7427C20.0156 20.773 19.1592 19.0564 18.9109 18.3876C18.556 17.4322 17.5984 14.3812 17.3988 14.0126C17.1609 13.5875 17.0689 13.0961 17.1368 12.6137C17.2561 12.268 18.1497 11.877 18.8666 12.2134C19.1767 12.1139 19.5038 12.0793 19.8278 12.1115C20.1518 12.1438 20.4657 12.2423 20.7501 12.4009C21.6797 12.944 21.467 12.7373 22.7412 13.3995C23.5681 13.8294 23.4111 13.9579 23.8131 14.6912C24.2122 15.3008 24.4015 16.0239 24.3523 16.7508C24.4455 17.0791 24.4535 17.4257 24.3755 17.7579C24.2975 18.0901 24.1362 18.397 23.9066 18.6495C24.0011 19.04 23.9868 19.4489 23.8653 19.8318C23.7439 20.2148 23.5198 20.5571 23.2176 20.8217C23.1734 21.17 23.0327 21.499 22.8114 21.7715C22.5901 22.044 22.297 22.2492 21.9652 22.3639Z" fill="url(#paint1_linear_161_4155)"/>
<path d="M23.6944 18.5735C23.6944 18.5735 23.1257 18.6725 23.1886 18.3914C23.2602 18.0726 23.5413 18.4171 23.6944 18.5735Z" fill="#FFCA1F"/>
<path d="M18.6812 12.5059C18.6812 12.5059 18.6812 12.9358 18.7862 12.9363C18.8912 12.9369 18.8688 12.8319 18.8688 12.8319C18.8688 12.8319 18.8803 12.9588 18.9782 12.9413C19.0761 12.9238 19.1105 12.5918 19.1105 12.5918C19.1105 12.5918 19.0799 12.3031 18.988 12.4824C18.8961 12.6618 18.7408 12.1477 18.6812 12.5059Z" fill="#FFCA1F"/>
<path d="M20.8107 12.868C20.8107 12.868 20.6308 13.2584 20.7282 13.3055C20.7397 13.312 20.7526 13.3155 20.7658 13.3158C20.779 13.3161 20.7921 13.3131 20.8038 13.3071C20.8156 13.301 20.8257 13.2922 20.8332 13.2813C20.8407 13.2705 20.8454 13.2579 20.8468 13.2448C20.8468 13.2448 20.8047 13.3645 20.9015 13.387C20.9983 13.4094 21.1668 13.1234 21.1668 13.1234C21.1668 13.1234 21.2575 12.8499 21.1011 12.9713C20.9447 13.0927 21.0131 12.5666 20.8107 12.868Z" fill="#FFCA1F"/>
<path d="M21.3254 13.1081C21.3254 13.1081 21.0946 13.3448 21.1537 13.4023C21.1603 13.41 21.1688 13.4159 21.1783 13.4196C21.1878 13.4232 21.1981 13.4244 21.2082 13.423C21.2183 13.4216 21.2279 13.4178 21.2362 13.4118C21.2444 13.4058 21.251 13.3978 21.2554 13.3886C21.2554 13.3886 21.1941 13.4652 21.2554 13.5056C21.3166 13.5461 21.5151 13.3826 21.5151 13.3826C21.5151 13.3826 21.6524 13.2065 21.5069 13.2552C21.3615 13.3038 21.5501 12.9413 21.3254 13.1081Z" fill="#FFCA1F"/>
<path d="M23.9646 16.5249C23.9646 16.5249 23.5451 16.619 23.5686 16.724C23.5708 16.7368 23.5761 16.749 23.5841 16.7593C23.5921 16.7696 23.6024 16.7778 23.6143 16.7832C23.6262 16.7886 23.6392 16.791 23.6522 16.7902C23.6652 16.7894 23.6778 16.7855 23.689 16.7787C23.689 16.7787 23.5681 16.8186 23.608 16.9072C23.6479 16.9958 23.9783 16.9575 23.9783 16.9575C23.9783 16.9575 24.2517 16.8623 24.0597 16.8131C23.8678 16.7639 24.3272 16.5025 23.9646 16.5249Z" fill="#FFCA1F"/>
<path d="M23.3898 14.5277C23.3898 14.5277 22.815 14.8198 22.9233 14.9171C23.0316 15.0145 23.3898 14.7355 23.4839 14.6737C23.5779 14.612 23.6654 14.4473 23.3898 14.5277Z" fill="#FFCA1F"/>
<path d="M22.4842 13.8392C22.4842 13.8392 22.2211 14.175 22.3136 14.2034C22.406 14.2319 22.5427 13.9639 22.5815 13.9005C22.6204 13.837 22.6269 13.714 22.4842 13.8392Z" fill="#FFCA1F"/>
<path d="M23.1394 20.4291C23.1394 20.4291 22.7292 20.3022 22.6969 20.4045C22.6922 20.4167 22.6905 20.43 22.6921 20.443C22.6937 20.4561 22.6984 20.4685 22.7059 20.4793C22.7134 20.4901 22.7234 20.4989 22.7351 20.5049C22.7468 20.5109 22.7598 20.514 22.7729 20.5138C22.7729 20.5138 22.6483 20.4876 22.6384 20.5844C22.6286 20.6812 22.9348 20.813 22.9348 20.813C22.9348 20.813 23.2197 20.8677 23.077 20.7282C22.9343 20.5887 23.4653 20.5909 23.1394 20.4291Z" fill="#FFCA1F"/>
<path d="M22.9687 20.9716C22.9687 20.9716 22.7035 20.7736 22.6543 20.8398C22.6475 20.8474 22.6427 20.8565 22.6404 20.8664C22.6381 20.8764 22.6382 20.8867 22.6409 20.8965C22.6435 20.9063 22.6486 20.9153 22.6556 20.9227C22.6626 20.9301 22.6714 20.9356 22.6811 20.9388C22.6811 20.9388 22.5974 20.8879 22.5651 20.9552C22.5329 21.0224 22.721 21.1969 22.721 21.1969C22.721 21.1969 22.914 21.3101 22.8462 21.1723C22.7784 21.0345 23.1634 21.1723 22.9687 20.9716Z" fill="#FFCA1F"/>
<path d="M20.3043 16.6409C20.2775 16.7141 20.1403 16.7322 20.0047 16.6813C19.8663 16.6299 19.7761 16.5288 19.8034 16.4555L19.9505 16.0574C19.9779 15.9841 20.1146 15.966 20.2502 16.0174C20.3886 16.0683 20.4788 16.1695 20.452 16.2427L20.3043 16.6409Z" fill="#00C40A"/>
<path d="M21.4993 17.8866C21.5168 17.9627 21.4145 18.0507 21.2707 18.0841C21.1268 18.1174 20.9972 18.0841 20.9786 18.0059L20.8835 17.5919C20.866 17.5159 20.9682 17.4278 21.1121 17.3945C21.2559 17.3611 21.3855 17.3945 21.4041 17.4727L21.4993 17.8866Z" fill="#00C40A"/>
<path d="M5.37632 22.9797C5.08156 22.9744 4.79827 22.8645 4.57701 22.6697C4.35574 22.4748 4.21088 22.2077 4.16828 21.916C4.00421 20.8223 3.73078 18.894 3.70617 18.1688C3.67062 17.1336 3.72859 13.8835 3.65148 13.4657C3.55911 12.9787 3.62884 12.4749 3.85 12.0313C4.07586 11.7354 5.06351 11.6413 5.64757 12.1953C5.97833 12.1979 6.30502 12.2685 6.60732 12.4027C6.90961 12.537 7.18103 12.732 7.40468 12.9757C8.12546 13.796 7.9882 13.5281 9.00484 14.572C9.66437 15.2502 9.47187 15.324 9.6239 16.158C9.81311 16.8742 9.76338 17.6327 9.48226 18.3181C9.46661 18.6651 9.36305 19.0024 9.1813 19.2984C8.99954 19.5943 8.74556 19.8393 8.4432 20.0102C8.40855 20.4177 8.26326 20.8081 8.02299 21.1392C7.78272 21.4702 7.45661 21.7294 7.07984 21.8887C6.92541 22.2109 6.68418 22.4838 6.38326 22.6765C6.08233 22.8692 5.73363 22.9742 5.37632 22.9797Z" fill="#89643D"/>
<path d="M5.22922 22.6565C4.93909 22.6503 4.6605 22.5417 4.4428 22.3498C4.22509 22.1579 4.08232 21.8952 4.03977 21.6081C3.87571 20.533 3.60227 18.6337 3.57821 17.9211C3.54157 16.9023 3.59297 13.7052 3.5175 13.294C3.42526 12.8156 3.4925 12.3201 3.70891 11.8836C3.93039 11.5932 4.90164 11.5008 5.47641 12.0477C5.80203 12.0509 6.12352 12.121 6.42097 12.2535C6.71841 12.3861 6.98548 12.5783 7.20563 12.8182C7.91656 13.6254 7.78039 13.3651 8.78172 14.3916C9.43196 15.0598 9.24274 15.1326 9.39313 15.9551C9.58058 16.6591 9.53316 17.4051 9.25805 18.0797C9.24331 18.4207 9.14187 18.7523 8.96331 19.0432C8.78475 19.3341 8.53498 19.5747 8.23758 19.7422C8.20467 20.1425 8.06269 20.5262 7.82705 20.8515C7.59142 21.1768 7.27114 21.4313 6.90102 21.5873C6.74968 21.9037 6.51296 22.1714 6.21756 22.3603C5.92215 22.5492 5.57983 22.6518 5.22922 22.6565Z" fill="url(#paint2_linear_161_4155)"/>
<path d="M8.06255 19.6016C8.06255 19.6016 7.49107 19.5169 7.63982 19.2697C7.80771 18.9897 7.9663 19.4048 8.06255 19.6016Z" fill="#FFCA1F"/>
<path d="M5.21004 12.2659C5.21004 12.2659 5.07278 12.6733 5.17449 12.7077C5.18654 12.7124 5.19953 12.7141 5.21237 12.7127C5.22521 12.7112 5.23751 12.7067 5.24824 12.6996C5.25897 12.6924 5.26781 12.6827 5.27402 12.6714C5.28022 12.66 5.2836 12.6474 5.28387 12.6345C5.28387 12.6345 5.25489 12.7581 5.35168 12.7706C5.44848 12.7832 5.58684 12.4802 5.58684 12.4802C5.58684 12.4802 5.64809 12.1964 5.5059 12.3353C5.36371 12.4742 5.37957 11.9443 5.21004 12.2659Z" fill="#FFCA1F"/>
<path d="M7.11811 13.2787C7.11811 13.2787 6.82444 13.5926 6.90319 13.6664C6.91215 13.6761 6.92336 13.6834 6.93582 13.6877C6.94827 13.692 6.9616 13.6932 6.97462 13.6911C6.98764 13.6891 6.99995 13.6838 7.01048 13.6759C7.02101 13.668 7.02942 13.6576 7.03498 13.6456C7.03498 13.6456 6.95733 13.7463 7.0399 13.7977C7.12248 13.8491 7.37459 13.6303 7.37459 13.6303C7.37459 13.6303 7.5474 13.3973 7.36037 13.4663C7.17334 13.5352 7.40522 13.0561 7.11811 13.2787Z" fill="#FFCA1F"/>
<path d="M7.53154 13.6686C7.53154 13.6686 7.23787 13.8206 7.27615 13.8939C7.28014 13.9032 7.28635 13.9114 7.29424 13.9177C7.30212 13.924 7.31144 13.9283 7.32137 13.9302C7.33131 13.9321 7.34155 13.9315 7.35121 13.9285C7.36087 13.9255 7.36965 13.9202 7.37677 13.913C7.37677 13.913 7.29474 13.9677 7.34177 14.0224C7.3888 14.0771 7.62669 13.9874 7.62669 13.9874C7.62669 13.9874 7.81263 13.8627 7.65951 13.8638C7.50638 13.8649 7.79732 13.5811 7.53154 13.6686Z" fill="#FFCA1F"/>
<path d="M8.96273 17.7417C8.96273 17.7417 8.53507 17.6991 8.52523 17.8063C8.51538 17.9134 8.62148 17.8981 8.62148 17.8981C8.62148 17.8981 8.49406 17.8981 8.5039 17.9949C8.51374 18.0917 8.83968 18.159 8.83968 18.159C8.83968 18.159 9.13007 18.1546 8.96218 18.0496C8.79429 17.9446 9.31437 17.8342 8.96273 17.7417Z" fill="#FFCA1F"/>
<path d="M9.04529 15.6652C9.04529 15.6652 8.40763 15.7615 8.47982 15.8884C8.55201 16.0152 8.97966 15.8627 9.08794 15.8337C9.19622 15.8047 9.33185 15.6756 9.04529 15.6652Z" fill="#FFCA1F"/>
<path d="M8.40163 14.7268C8.40163 14.7268 8.04616 14.963 8.1282 15.0188C8.21023 15.0746 8.42077 14.8635 8.47765 14.8154C8.53452 14.7673 8.57663 14.6524 8.40163 14.7268Z" fill="#FFCA1F"/>
<path d="M6.95242 21.1887C6.95242 21.1887 6.60242 20.9388 6.54007 21.0246C6.53166 21.0348 6.52588 21.0468 6.52323 21.0597C6.52057 21.0726 6.52114 21.086 6.52486 21.0986C6.52859 21.1113 6.53537 21.1228 6.5446 21.1322C6.55384 21.1416 6.56524 21.1486 6.57781 21.1526C6.57781 21.1526 6.46843 21.0886 6.42796 21.1777C6.3875 21.2669 6.63687 21.4873 6.63687 21.4873C6.63687 21.4873 6.89117 21.6289 6.80093 21.4517C6.7107 21.2745 7.21054 21.4446 6.95242 21.1887Z" fill="#FFCA1F"/>
<path d="M6.61988 21.6497C6.61988 21.6497 6.43066 21.3763 6.36285 21.426C6.35407 21.4311 6.3467 21.4383 6.34141 21.447C6.33611 21.4557 6.33306 21.4655 6.33251 21.4757C6.33197 21.4858 6.33396 21.4959 6.3383 21.5051C6.34264 21.5143 6.3492 21.5223 6.35738 21.5283C6.35738 21.5283 6.29394 21.4539 6.24254 21.5081C6.19113 21.5622 6.31418 21.7864 6.31418 21.7864C6.31418 21.7864 6.46183 21.9543 6.44105 21.8023C6.42027 21.6502 6.74129 21.9018 6.61988 21.6497Z" fill="#FFCA1F"/>
<path d="M5.63279 16.374C5.73724 16.3953 5.79685 16.5298 5.76732 16.6748C5.73779 16.8191 5.62896 16.9187 5.52506 16.8973L4.95959 16.7803C4.85514 16.759 4.79553 16.6245 4.82506 16.4795C4.85459 16.3352 4.96342 16.2356 5.06732 16.257L5.63279 16.374Z" fill="#1CFF28"/>
<path d="M6.1556 17.8927C6.20535 17.8563 6.26721 17.8404 6.32833 17.8485C6.38944 17.8565 6.4451 17.8878 6.48373 17.9359C6.53365 17.9714 6.56801 18.0248 6.57971 18.0849C6.59142 18.1451 6.57957 18.2074 6.54662 18.2591L6.15068 18.6796C6.10093 18.716 6.03907 18.7318 5.97796 18.7238C5.91684 18.7158 5.86118 18.6845 5.82256 18.6364C5.77263 18.6009 5.73827 18.5475 5.72657 18.4874C5.71486 18.4272 5.72671 18.3649 5.75966 18.3132L6.1556 17.8927Z" fill="#1CFF28"/>
<path d="M18.4297 18.6184C18.5341 18.6397 18.5937 18.7742 18.5642 18.9191C18.5347 19.0635 18.4259 19.1631 18.3219 19.1417L17.7559 19.0247C17.652 19.0034 17.5919 18.8688 17.6214 18.7245C17.6515 18.5795 17.7603 18.48 17.8642 18.5013L18.4297 18.6184Z" fill="#1CFF28"/>
<path d="M10.3173 11.9219C10.4212 11.9432 10.4814 12.0777 10.4519 12.2227C10.4218 12.367 10.3135 12.4666 10.2091 12.4452L9.64359 12.3282C9.58698 12.3049 9.54147 12.2608 9.51644 12.2049C9.49141 12.1491 9.48877 12.0857 9.50906 12.028C9.53914 11.8831 9.64742 11.7835 9.75187 11.8048L10.3173 11.9219Z" fill="#1CFF28"/>
<defs>
<linearGradient id="paint0_linear_161_4155" x1="11.1811" y1="17.3835" x2="15.9382" y2="17.5844" gradientUnits="userSpaceOnUse">
<stop offset="0.038" stop-color="#FFF887"/>
<stop offset="1" stop-color="#FFE840"/>
</linearGradient>
<linearGradient id="paint1_linear_161_4155" x1="18.6277" y1="17.8254" x2="22.9632" y2="15.8572" gradientUnits="userSpaceOnUse">
<stop offset="0.038" stop-color="#FFF887"/>
<stop offset="1" stop-color="#FFE840"/>
</linearGradient>
<linearGradient id="paint2_linear_161_4155" x1="3.48832" y1="17.2989" x2="8.22265" y2="16.7933" gradientUnits="userSpaceOnUse">
<stop offset="0.038" stop-color="#FFF887"/>
<stop offset="1" stop-color="#FFE840"/>
</linearGradient>
</defs>
</svg>
